<svg id="Layer_1" data-name="Layer 1" xmlns="http://www.w3.org/2000/svg" xmlns:xlink="http://www.w3.org/1999/xlink" viewBox="0 0 400 200"><defs><linearGradient id="linear-gradient" x1="200" y1="200" x2="200" gradientUnits="userSpaceOnUse"><stop offset="0" stop-color="#191919"/><stop offset="1" stop-color="#2d2d2d"/></linearGradient><linearGradient id="linear-gradient-2" x1="118.624" y1="92.8131" x2="118.624" y2="58.019" gradientUnits="userSpaceOnUse"><stop offset="0" stop-color="#26aeea"/><stop offset="1" stop-color="#2199ea"/></linearGradient><linearGradient id="linear-gradient-3" x1="118.6239" y1="93.6263" x2="118.6239" y2="57.2058" xlink:href="#linear-gradient-2"/><linearGradient id="linear-gradient-4" x1="153.5686" y1="92.9122" x2="153.5686" y2="58.2486" xlink:href="#linear-gradient-2"/><linearGradient id="linear-gradient-5" x1="153.5686" y1="93.7254" x2="153.5686" y2="57.4354" xlink:href="#linear-gradient-2"/><linearGradient id="linear-gradient-6" x1="185.2646" y1="92.8625" x2="185.2646" y2="58.0696" xlink:href="#linear-gradient-2"/><linearGradient id="linear-gradient-7" x1="185.2646" y1="93.6757" x2="185.2646" y2="57.2564" xlink:href="#linear-gradient-2"/><linearGradient id="linear-gradient-8" x1="216.1256" y1="92.9122" x2="216.1256" y2="58.2486" xlink:href="#linear-gradient-2"/><linearGradient id="linear-gradient-9" x1="216.1256" y1="93.7254" x2="216.1256" y2="57.4354" xlink:href="#linear-gradient-2"/><linearGradient id="linear-gradient-10" x1="249.702" y1="92.9122" x2="249.702" y2="58.2182" xlink:href="#linear-gradient-2"/><linearGradient id="linear-gradient-11" x1="249.702" y1="93.7254" x2="249.702" y2="57.405" xlink:href="#linear-gradient-2"/><linearGradient id="linear-gradient-12" x1="280.5111" y1="93.011" x2="280.5111" y2="58.2676" xlink:href="#linear-gradient-2"/><linearGradient id="linear-gradient-13" x1="280.5108" y1="93.8242" x2="280.5108" y2="57.4544" xlink:href="#linear-gradient-2"/><linearGradient id="linear-gradient-14" x1="114.3066" y1="107.108" x2="114.3066" y2="141.9506" gradientUnits="userSpaceOnUse"><stop offset="0" stop-color="#51d62b"/><stop offset="1" stop-color="#3eb716"/></linearGradient><linearGradient id="linear-gradient-15" x1="114.0178" y1="106.7015" x2="114.0178" y2="142.3571" xlink:href="#linear-gradient-14"/><linearGradient id="linear-gradient-16" x1="148.3654" y1="107.1575" x2="148.3654" y2="141.8515" xlink:href="#linear-gradient-14"/><linearGradient id="linear-gradient-17" x1="148.3654" y1="106.7509" x2="148.3654" y2="142.2581" xlink:href="#linear-gradient-14"/><linearGradient id="linear-gradient-18" x1="181.4257" y1="107.2565" x2="181.4257" y2="142" xlink:href="#linear-gradient-14"/><linearGradient id="linear-gradient-19" x1="181.4257" y1="106.8499" x2="181.4257" y2="142.4066" xlink:href="#linear-gradient-14"/><linearGradient id="linear-gradient-20" x1="211.7641" y1="107.2071" x2="211.7641" y2="141.9506" xlink:href="#linear-gradient-14"/><linearGradient id="linear-gradient-21" x1="211.7641" y1="106.8005" x2="211.7641" y2="142.3572" xlink:href="#linear-gradient-14"/><linearGradient id="linear-gradient-22" x1="243.9576" y1="107.0586" x2="243.9576" y2="141.8021" xlink:href="#linear-gradient-14"/><linearGradient id="linear-gradient-23" x1="244.0412" y1="106.652" x2="244.0412" y2="142.2087" xlink:href="#linear-gradient-14"/><linearGradient id="linear-gradient-24" x1="280.4085" y1="107.1575" x2="280.4085" y2="141.9011" xlink:href="#linear-gradient-14"/><linearGradient id="linear-gradient-25" x1="280.4085" y1="106.7509" x2="280.4085" y2="142.3077" xlink:href="#linear-gradient-14"/><linearGradient id="linear-gradient-26" x1="141.9736" y1="155.0752" x2="141.9736" y2="174" gradientUnits="userSpaceOnUse"><stop offset="0" stop-color="#efd229"/><stop offset="1" stop-color="#d6a51e"/></linearGradient><linearGradient id="linear-gradient-27" x1="141.9736" y1="154.5142" x2="141.9736" y2="174.561" xlink:href="#linear-gradient-26"/><linearGradient id="linear-gradient-28" x1="153.6561" y1="155.0752" x2="153.6561" xlink:href="#linear-gradient-26"/><linearGradient id="linear-gradient-29" x1="153.6561" y1="154.5142" x2="153.6561" y2="174.561" xlink:href="#linear-gradient-26"/><linearGradient id="linear-gradient-30" x1="167.427" y1="155.2856" x2="167.427" y2="173.7885" xlink:href="#linear-gradient-26"/><linearGradient id="linear-gradient-31" x1="167.427" y1="154.7246" x2="167.427" y2="174.3495" xlink:href="#linear-gradient-26"/><linearGradient id="linear-gradient-32" x1="178.5014" y1="155.2856" x2="178.5014" y2="173.7885" xlink:href="#linear-gradient-26"/><linearGradient id="linear-gradient-33" x1="178.5014" y1="154.7246" x2="178.5014" y2="174.3495" xlink:href="#linear-gradient-26"/><linearGradient id="linear-gradient-34" x1="188.0561" y1="155.2856" x2="188.0561" y2="173.7885" xlink:href="#linear-gradient-26"/><linearGradient id="linear-gradient-35" x1="188.0561" y1="154.7246" x2="188.0561" y2="174.3495" xlink:href="#linear-gradient-26"/><linearGradient id="linear-gradient-36" x1="200.2545" y1="155.0752" x2="200.2545" xlink:href="#linear-gradient-26"/><linearGradient id="linear-gradient-37" x1="200.2545" y1="154.5142" x2="200.2545" y2="174.561" xlink:href="#linear-gradient-26"/><linearGradient id="linear-gradient-38" x1="217.2499" y1="155.0752" x2="217.2499" xlink:href="#linear-gradient-26"/><linearGradient id="linear-gradient-39" x1="217.2499" y1="154.5142" x2="217.2499" y2="174.561" xlink:href="#linear-gradient-26"/><linearGradient id="linear-gradient-40" x1="228.8269" y1="155.0752" x2="228.8269" xlink:href="#linear-gradient-26"/><linearGradient id="linear-gradient-41" x1="228.8269" y1="154.5142" x2="228.8269" y2="174.561" xlink:href="#linear-gradient-26"/><linearGradient id="linear-gradient-42" x1="240.6948" y1="155.0752" x2="240.6948" xlink:href="#linear-gradient-26"/><linearGradient id="linear-gradient-43" x1="240.6948" y1="154.5142" x2="240.6948" y2="174.561" xlink:href="#linear-gradient-26"/><linearGradient id="linear-gradient-44" x1="252.9718" y1="155.2856" x2="252.9718" y2="173.7885" xlink:href="#linear-gradient-26"/><linearGradient id="linear-gradient-45" x1="252.9718" y1="154.7246" x2="252.9718" y2="174.3495" xlink:href="#linear-gradient-26"/></defs><title>ColourStream4</title><rect width="400" height="200" style="fill:url(#linear-gradient)"/><g style="opacity:0.14"><rect width="99.5305" height="200" style="fill:#f2860f"/><rect x="99.5305" width="100.1565" height="200" style="fill:#efd229"/><rect x="199.687" width="100.1565" height="200" style="fill:#51d62b"/><rect x="299.8435" width="100.1565" height="200" style="fill:#267ddb"/></g><g style="opacity:0.5700000000000001"><path d="M99.4754.5349v99.006H.5246V.5349H99.4754M100,.01H0V100.0656H100V.01Z"/><path d="M99.4754,100.5387v99.006H.5246v-99.006H99.4754M100,100.014H0V200.0693H100V100.014Z"/><path d="M199.4754.5349v99.006H100.5246V.5349h98.9507M200,.01H100V100.0656H200V.01Z"/><path d="M199.4754,100.5387v99.006H100.5246v-99.006h98.9507M200,100.014H100V200.0693H200V100.014Z"/><path d="M299.4754.5349v99.006H200.5246V.5349h98.9507M300,.01H200V100.0656H300V.01Z"/><path d="M299.4754,100.5387v99.006H200.5246v-99.006h98.9507M300,100.014H200V200.0693H300V100.014Z"/><path d="M399.4754.5349v99.006H300.5246V.5349h98.9507M400,.01H300V100.0656H400V.01Z"/><path d="M399.4754,100.5387v99.006H300.5246v-99.006h98.9507M400,100.014H300V200.0693H400V100.014Z"/></g><g style="opacity:0.30000000000000004"><path d="M132.4817,68.2156,122.3854,74.798l11.8285,7.77a.0442.0442,0,0,1,.05.0494l.0494.0494v.05a.0441.0441,0,0,1,.0494.0494v.0991a.0439.0439,0,0,1-.0494.0494v.0494l-1.7819,2.5242a15.9421,15.9421,0,0,1-5.741,5.4194,15.4543,15.4543,0,0,1-7.5723,1.9053,16.8274,16.8274,0,0,1-11.16-4.3058,16.1418,16.1418,0,0,1-3.7366-5.073,15.5434,15.5434,0,0,1-1.4352-6.8052,16.4331,16.4331,0,0,1,1.0393-5.8647,15.4383,15.4383,0,0,1,3.0686-4.9739,16.1429,16.1429,0,0,1,27.32-.4455l.0494.0494v.1979a.1435.1435,0,0,0-.0494.0991l-1.7819,2.4745Zm-11.977-9.6016a15.88,15.88,0,0,0-6.1866,1.4352,15.721,15.721,0,0,0-5.0978,3.712,17.119,17.119,0,0,1,4.7265-2.4251,16.7128,16.7128,0,0,1,5.2709-.8414,15.4918,15.4918,0,0,1,7.3992,1.8065,15.72,15.72,0,0,1,5.6668,5.1718l1.3858-1.98a15.4987,15.4987,0,0,0-5.6916-5.1472A14.9487,14.9487,0,0,0,120.5047,58.614Zm1.3363,16.58-2.2272,1.4352,12.62,8.2652,1.3858-1.98Z" style="fill:url(#linear-gradient-2)"/></g><path d="M120.7121,58.019a16.1615,16.1615,0,0,1,13.6009,7.326l.0494.0494v.1979a.1435.1435,0,0,0-.0494.0991l-1.7818,2.4745-.0494.05L122.3854,74.798l11.8285,7.77a.0442.0442,0,0,1,.05.0494l.0494.0494v.05a.0441.0441,0,0,1,.0494.0494v.0991a.0438.0438,0,0,1-.0494.0494v.0494l-1.7818,2.5242a15.9422,15.9422,0,0,1-5.741,5.4194,15.4543,15.4543,0,0,1-7.5723,1.9053,16.8274,16.8274,0,0,1-11.16-4.3058,16.1421,16.1421,0,0,1-3.7366-5.073,15.5435,15.5435,0,0,1-1.4352-6.8052,16.4331,16.4331,0,0,1,1.0393-5.8647,15.4381,15.4381,0,0,1,3.0686-4.9739,16.1308,16.1308,0,0,1,13.5113-7.77c.0691-.0008.1385-.0012.2074-.0012M109.22,63.7613a17.1192,17.1192,0,0,1,4.7265-2.4251,16.7129,16.7129,0,0,1,5.2709-.8414,15.4918,15.4918,0,0,1,7.3992,1.8065,15.72,15.72,0,0,1,5.6668,5.1718l1.3858-1.98a15.4988,15.4988,0,0,0-5.6916-5.1472,14.9016,14.9016,0,0,0-7.0653-1.7373q-.2034,0-.408.005a15.88,15.88,0,0,0-6.1865,1.4352,15.7209,15.7209,0,0,0-5.0978,3.712m23.014,21.1331,1.3858-1.98L121.841,75.1939l-2.2272,1.4352,12.62,8.2652M120.7124,57.2058h0l-.217.0013A16.9428,16.9428,0,0,0,106.34,65.3a16.3109,16.3109,0,0,0-3.1759,5.1764,17.3193,17.3193,0,0,0-1.092,6.1525,16.42,16.42,0,0,0,1.5152,7.1569,17.0252,17.0252,0,0,0,3.9248,5.3248,17.64,17.64,0,0,0,11.7055,4.5155,16.3285,16.3285,0,0,0,7.9642-2.006,16.8183,16.8183,0,0,0,6.0316-5.69l1.7637-2.4974.1488-.2109V83.159a.8843.8843,0,0,0,.0494-.2937v-.0991a.8843.8843,0,0,0-.0494-.2937V82.38l-.1641-.1984a.8458.8458,0,0,0-.3922-.3525L123.87,74.8006l9.0554-5.9038.0717-.0467.06-.0606.0494-.05.0458-.046.0379-.0527,1.7818-2.4745.0911-.1265.1116-.1122v-.7712l-.193-.2732a16.9742,16.9742,0,0,0-14.27-7.6776Zm-2.8043,2.5235a15.5019,15.5019,0,0,1,2.6213-.3024c.125-.0031.2542-.0047.3831-.0047a14.1645,14.1645,0,0,1,6.6855,1.6431,14.7107,14.7107,0,0,1,5.0795,4.4272l-.405.5785a16.1949,16.1949,0,0,0-13.0548-6.3895q-.6578,0-1.31.0477Zm3.1984,16.9053.7307-.4709,10.6359,6.9715-.4528.6469-10.9137-7.1475Z" style="fill:url(#linear-gradient-3)"/><g style="opacity:0.30000000000000004"><path d="M164.8991,62.0785a15.7036,15.7036,0,0,1,4.0831,5.32,16.3089,16.3089,0,0,1,1.5591,6.5578,15.1415,15.1415,0,0,1-.2722,3.415,15.3371,15.3371,0,0,1-.94,3.0189,18.7782,18.7782,0,0,1-1.4846,2.7716q-.8666,1.3362-1.8065,2.6727a.4336.4336,0,0,0-.1237.1979.4414.4414,0,0,1-.1239.1979,15.74,15.74,0,0,1-5.741,4.9245,15.9763,15.9763,0,0,1-7.3248,1.757,15.6687,15.6687,0,0,1-6.2856-1.2621,16.31,16.31,0,0,1-8.5868-8.5868,15.9183,15.9183,0,0,1-.5444-10.9379,17.198,17.198,0,0,1,2.0538-4.3058l.4455-.5938,1.3363-1.8807a15.2907,15.2907,0,0,1,4.8006-4.6771,15.7935,15.7935,0,0,1,6.3351-2.2518,15.484,15.484,0,0,1,6.6815.47A16.4938,16.4938,0,0,1,164.8991,62.0785Zm3.91,14.7488a15.4559,15.4559,0,0,1-.1733,2.326,19.8131,19.8131,0,0,1-.47,2.2272,18.9,18.9,0,0,0,1.361-3.44,12.33,12.33,0,0,0,.4207-3.984,15.5851,15.5851,0,0,0-1.5095-6.2856,15.6511,15.6511,0,0,0-9.6262-8.1908,15.5361,15.5361,0,0,0-11.68,1.2373,16.0987,16.0987,0,0,0-4.3058,3.39,16.347,16.347,0,0,1,4.6277-2.4994,15.99,15.99,0,0,1,5.2709-.8662,15.5519,15.5519,0,0,1,6.236,1.2621,16.31,16.31,0,0,1,8.5868,8.5868A15.5521,15.5521,0,0,1,168.8091,76.8273Z" style="fill:url(#linear-gradient-4)"/></g><path d="M154.5771,58.2486a15.3892,15.3892,0,0,1,4.383.6377,16.4936,16.4936,0,0,1,5.939,3.1923,15.7036,15.7036,0,0,1,4.0831,5.32,16.3091,16.3091,0,0,1,1.5591,6.5578,15.1422,15.1422,0,0,1-.2722,3.415,15.3372,15.3372,0,0,1-.94,3.0189,18.7765,18.7765,0,0,1-1.4846,2.7715q-.8666,1.3362-1.8065,2.6727a.4337.4337,0,0,0-.1237.1979.4413.4413,0,0,1-.1239.1979,15.74,15.74,0,0,1-5.741,4.9245,15.9764,15.9764,0,0,1-7.3248,1.757,15.6685,15.6685,0,0,1-6.2856-1.2621,16.31,16.31,0,0,1-8.5869-8.5868,15.9184,15.9184,0,0,1-.5444-10.9379,17.1982,17.1982,0,0,1,2.0538-4.3058l.4455-.5938,1.3363-1.8807a15.2907,15.2907,0,0,1,4.8006-4.6771,15.7935,15.7935,0,0,1,6.3351-2.2518,16.0383,16.0383,0,0,1,2.2985-.1675m-11.7515,5.8591a16.347,16.347,0,0,1,4.6277-2.4994,15.99,15.99,0,0,1,5.2709-.8662,15.5519,15.5519,0,0,1,6.236,1.2621,16.31,16.31,0,0,1,8.5869,8.5868,15.9457,15.9457,0,0,1,1.0888,8.5622,19.8109,19.8109,0,0,1-.47,2.2272,18.8993,18.8993,0,0,0,1.3609-3.44,12.3294,12.3294,0,0,0,.4207-3.984,15.5853,15.5853,0,0,0-1.5095-6.2856,15.6512,15.6512,0,0,0-9.6262-8.1908,15.4459,15.4459,0,0,0-4.3074-.616,15.7247,15.7247,0,0,0-2.1266.1457,15.4633,15.4633,0,0,0-5.2463,1.7076,16.0982,16.0982,0,0,0-4.3058,3.39m11.7517-6.6724h0a16.93,16.93,0,0,0-2.4151.1759,16.6581,16.6581,0,0,0-6.6464,2.365,16.1691,16.1691,0,0,0-5.053,4.923l-1.3191,1.8554-.4331.5768-.015.02-.0138.0209a18.0907,18.0907,0,0,0-2.15,4.5086,16.7314,16.7314,0,0,0,.5736,11.5049,17.1226,17.1226,0,0,0,9.0107,9.0107,16.5492,16.5492,0,0,0,6.6082,1.3288,16.8564,16.8564,0,0,0,7.6926-1.845,16.6135,16.6135,0,0,0,6.0018-5.1311,1.2541,1.2541,0,0,0,.2425-.388l.0013-.0013.04-.0575c.6307-.897,1.2442-1.8047,1.8235-2.698a19.6864,19.6864,0,0,0,1.5491-2.8919,16.2269,16.2269,0,0,0,.9906-3.1788,16.0265,16.0265,0,0,0,.2883-3.5988,17.194,17.194,0,0,0-1.6365-6.8832,16.5825,16.5825,0,0,0-4.2922-5.5933,17.3864,17.3864,0,0,0-6.2349-3.3523,16.2746,16.2746,0,0,0-4.6133-.671ZM151.62,59.9628q.4309-.0858.8706-.1476a14.9723,14.9723,0,0,1,2.0133-.1377,14.7039,14.7039,0,0,1,4.0816.584,14.8382,14.8382,0,0,1,9.1174,7.7584,14.7737,14.7737,0,0,1,1.2648,4.1238,15.9426,15.9426,0,0,0-.6745-1.8752,17.1228,17.1228,0,0,0-9.0107-9.0107,16.4321,16.4321,0,0,0-6.5587-1.3288q-.5557,0-1.1038.0339Z" style="fill:url(#linear-gradient-5)"/><g style="opacity:0.30000000000000004"><path d="M197.3654,90.091l-.0494.05v.0989l-1.7817,2.4747-.05.0494-.0494.0494a.1012.1012,0,0,0-.0743.0248.1005.1005,0,0,1-.0743.0246h-21.826q-.2969,0-.297-.3464V60.8412l.0494-.0494v-.0991l1.7819-2.4745a.0439.0439,0,0,1,.0494-.05l.0494-.0494h.0991l.0494-.0494h11.73c.1979,0,.297.1159.297.3464v21.48l9.9974,9.948v.0494a.0442.0442,0,0,1,.0494.05l.0494.0494v.0989Zm-10.5913-9.8984a.2817.2817,0,0,1-.0991-.1979V58.7131H175.3909l-1.3363,1.8805h10.6409a.2626.2626,0,0,1,.297.297V82.37l10.2448,9.7,1.4352-1.98Z" style="fill:url(#linear-gradient-6)"/></g><path d="M186.9721,58.07c.1979,0,.297.116.297.3465v21.48l9.9974,9.948v.0494a.0442.0442,0,0,1,.0494.05l.0494.0494v.0989l-.0494.05v.0989l-1.7816,2.4747-.05.0494-.0494.0494a.1012.1012,0,0,0-.0742.0248.1005.1005,0,0,1-.0742.0246h-21.826q-.2969,0-.297-.3464V60.8412l.0494-.0494v-.0991l1.7819-2.4745a.0439.0439,0,0,1,.0494-.05l.0494-.0494h.0991l.0494-.0494h11.73m-12.9175,2.524h10.6409a.2626.2626,0,0,1,.297.297V82.37l10.2448,9.7,1.4352-1.98-9.8984-9.8984a.2817.2817,0,0,1-.0991-.1979V58.7131H175.3909l-1.3363,1.8805m12.9175-3.3372H174.9055l-.0494.0494h0l-.1884.1331a.8458.8458,0,0,0-.4.3975l-1.7145,2.381L172.4,60.43v.0246l-.0494.0494V92.5161a1.0866,1.0866,0,0,0,1.11,1.16h21.826a.95.95,0,0,0,.3049-.0494h.18l.2382-.2381.0494-.0494.0486-.0483.0472-.047.0389-.0541,1.7816-2.4747.1532-.2128v-.0253l.0494-.05v-.6727l-.0989-.14V89.555l-.24-.2879-9.7578-9.71V58.4161a1.0866,1.0866,0,0,0-1.11-1.16Zm-11.1614,2.27h10.0512V79.9947a1.0738,1.0738,0,0,0,.3407.7764l9.4043,9.4044-.4838.6674L185.8057,82.02v-21.13a1.0738,1.0738,0,0,0-1.11-1.11H175.63l.1806-.2541Z" style="fill:url(#linear-gradient-7)"/><g style="opacity:0.30000000000000004"><path d="M227.4562,62.0785a15.7061,15.7061,0,0,1,4.0831,5.32,16.312,16.312,0,0,1,1.5589,6.5578,15.1182,15.1182,0,0,1-.2724,3.415,15.3235,15.3235,0,0,1-.94,3.0189,18.76,18.76,0,0,1-1.4846,2.7716q-.8666,1.3362-1.8067,2.6727a.4364.4364,0,0,0-.1235.1979.44.44,0,0,1-.1239.1979,15.7415,15.7415,0,0,1-5.7408,4.9245,15.9779,15.9779,0,0,1-7.3252,1.757,15.6681,15.6681,0,0,1-6.2852-1.2621,16.309,16.309,0,0,1-8.587-8.5868,15.9214,15.9214,0,0,1-.5444-10.9379,17.1848,17.1848,0,0,1,2.054-4.3058l.4451-.5938L203.7,65.345A15.2907,15.2907,0,0,1,208.5,60.6679a15.7933,15.7933,0,0,1,6.3353-2.2518,15.4821,15.4821,0,0,1,6.6811.47A16.4954,16.4954,0,0,1,227.4562,62.0785Zm3.91,14.7488a15.482,15.482,0,0,1-.1731,2.326,19.7692,19.7692,0,0,1-.47,2.2272,18.9149,18.9149,0,0,0,1.3612-3.44,12.3355,12.3355,0,0,0,.42-3.984,15.5849,15.5849,0,0,0-1.5093-6.2856,15.6533,15.6533,0,0,0-9.6266-8.1908,15.5351,15.5351,0,0,0-11.68,1.2373,16.0924,16.0924,0,0,0-4.3058,3.39,16.3406,16.3406,0,0,1,4.6275-2.4994,15.9905,15.9905,0,0,1,5.2707-.8662,15.5519,15.5519,0,0,1,6.236,1.2621,16.309,16.309,0,0,1,8.587,8.5868A15.552,15.552,0,0,1,231.3657,76.8273Z" style="fill:url(#linear-gradient-8)"/></g><path d="M217.134,58.2486a15.3873,15.3873,0,0,1,4.3828.6377,16.4954,16.4954,0,0,1,5.9394,3.1923,15.706,15.706,0,0,1,4.0831,5.32,16.3119,16.3119,0,0,1,1.5589,6.5578,15.1181,15.1181,0,0,1-.2724,3.415,15.3236,15.3236,0,0,1-.94,3.0189,18.7579,18.7579,0,0,1-1.4846,2.7715q-.8666,1.3362-1.8067,2.6727a.4364.4364,0,0,0-.1235.1979.44.44,0,0,1-.1239.1979,15.7417,15.7417,0,0,1-5.7408,4.9245,15.9779,15.9779,0,0,1-7.3251,1.757,15.668,15.668,0,0,1-6.2852-1.2621,16.3089,16.3089,0,0,1-8.587-8.5868,15.9212,15.9212,0,0,1-.5444-10.9379,17.1851,17.1851,0,0,1,2.054-4.3058l.4451-.5938L203.7,65.345A15.2907,15.2907,0,0,1,208.5,60.6679a15.7933,15.7933,0,0,1,6.3353-2.2518,16.0356,16.0356,0,0,1,2.2983-.1675m-11.7514,5.8591a16.3406,16.3406,0,0,1,4.6275-2.4994,15.99,15.99,0,0,1,5.2707-.8662,15.5519,15.5519,0,0,1,6.236,1.2621,16.309,16.309,0,0,1,8.587,8.5868,15.9526,15.9526,0,0,1,1.0888,8.5622,19.77,19.77,0,0,1-.47,2.2272,18.9143,18.9143,0,0,0,1.3612-3.44,12.3355,12.3355,0,0,0,.4205-3.984,15.5851,15.5851,0,0,0-1.5093-6.2856,15.6533,15.6533,0,0,0-9.6266-8.1908,15.4426,15.4426,0,0,0-4.3071-.616,15.725,15.725,0,0,0-2.1266.1457,15.46,15.46,0,0,0-5.2461,1.7076,16.0925,16.0925,0,0,0-4.3058,3.39m11.7516-6.6724h0a16.9277,16.9277,0,0,0-2.4149.1759,16.6579,16.6579,0,0,0-6.6466,2.365,16.169,16.169,0,0,0-5.053,4.923L201.7,66.7546l-.4329.5771a18.1126,18.1126,0,0,0-2.179,4.5494,16.7341,16.7341,0,0,0,.5736,11.5048,17.1219,17.1219,0,0,0,9.0109,9.0107,16.5484,16.5484,0,0,0,6.6078,1.3288,16.8584,16.8584,0,0,0,7.693-1.845,16.6151,16.6151,0,0,0,6.0014-5.1307,1.2518,1.2518,0,0,0,.243-.3889l.0011-.0011.04-.057c.63-.8958,1.2437-1.8035,1.8238-2.698a19.667,19.667,0,0,0,1.5491-2.8919,16.2126,16.2126,0,0,0,.99-3.1789,16.0015,16.0015,0,0,0,.2884-3.5988,17.1968,17.1968,0,0,0-1.6363-6.883,16.5845,16.5845,0,0,0-4.2921-5.5933,17.39,17.39,0,0,0-6.2354-3.3523,16.2725,16.2725,0,0,0-4.613-.671Zm-2.957,2.5274q.4309-.0858.8706-.1476a14.973,14.973,0,0,1,2.0134-.1377,14.7,14.7,0,0,1,4.0813.584A14.84,14.84,0,0,1,230.26,68.02a14.777,14.777,0,0,1,1.2648,4.1248,15.9388,15.9388,0,0,0-.6748-1.8764,17.1221,17.1221,0,0,0-9.0108-9.0107,16.4321,16.4321,0,0,0-6.5587-1.3288q-.5557,0-1.1036.0339Z" style="fill:url(#linear-gradient-9)"/><g style="opacity:0.30000000000000004"><path d="M258.0417,88.8537a.0438.0438,0,0,1-.05.0494,14.071,14.071,0,0,1-4.2812,2.9449,12.37,12.37,0,0,1-5.0726,1.0641,12.7859,12.7859,0,0,1-4.9495-.9651,13,13,0,0,1-6.9043-6.6073,12.5605,12.5605,0,0,1-1.163-4.9q-.1483-3.2663-.1485-6.5576t.05-6.5578q.0488-1.5831.0743-3.1674t.0246-3.1674v-.05a.1426.1426,0,0,1,.05-.0989l1.732-2.4745a.2285.2285,0,0,1,.2478-.1485h25.9831a.2624.2624,0,0,1,.297.2968V71.086q-.0995,1.4848-.0492,3.0686.0482,1.5846-.025,3.1674a20.1772,20.1772,0,0,1-.3959,3.1428,9.8262,9.8262,0,0,1-1.163,2.9943A21.9623,21.9623,0,0,1,258.0417,88.8537Zm-21.5788-28.161h24.8947a.2627.2627,0,0,1,.297.297v3.1922q0,1.6087.0492,3.1922.0488,3.2663.05,6.533t-.0989,6.5328a13.8411,13.8411,0,0,1-1.1384,4.7019q.3454-.4944.6683-.9651a6.7629,6.7629,0,0,0,.569-1.0147,9.8247,9.8247,0,0,0,1.0145-2.3757,13.6349,13.6349,0,0,0,.4209-2.5982q.0983-1.4107.0989-3.118t.05-3.9842V58.812h-25.538Z" style="fill:url(#linear-gradient-10)"/></g><path d="M263.6341,58.2182a.2624.2624,0,0,1,.297.2968V71.086q-.0995,1.4848-.0492,3.0686.0482,1.5846-.025,3.1674a20.18,20.18,0,0,1-.3959,3.1428,9.826,9.826,0,0,1-1.163,2.9943,21.9629,21.9629,0,0,1-4.2562,5.3946.0438.0438,0,0,1-.05.0494,14.0707,14.0707,0,0,1-4.2812,2.9449,12.37,12.37,0,0,1-5.0726,1.0642,12.7862,12.7862,0,0,1-4.9495-.9651,13,13,0,0,1-6.9043-6.6073,12.56,12.56,0,0,1-1.163-4.9q-.1483-3.2663-.1485-6.5576t.05-6.5578q.0488-1.5831.0742-3.1674t.0246-3.1674v-.05a.1426.1426,0,0,1,.05-.0989l1.732-2.4745a.2285.2285,0,0,1,.2478-.1485h25.9831m-27.1711,2.4745h24.8947a.2627.2627,0,0,1,.297.297V64.182q0,1.6087.0492,3.1922.0488,3.2663.05,6.533t-.0989,6.5328a13.8415,13.8415,0,0,1-1.1384,4.7019q.3454-.4943.6682-.9651a6.7611,6.7611,0,0,0,.569-1.0147,9.8245,9.8245,0,0,0,1.0145-2.3757,13.6354,13.6354,0,0,0,.4209-2.5982q.0983-1.4107.0989-3.118t.05-3.9842V58.812h-25.538l-1.3365,1.8807m27.1711-3.2877H237.651a1.0392,1.0392,0,0,0-.9594.56l-1.66,2.3715a.94.94,0,0,0-.2233.6033c0,1.1017-.0083,2.1531-.0245,3.2045s-.0415,2.1035-.074,3.1549c-.0333,2.167-.05,4.3775-.05,6.5829,0,2.1932.05,4.4119.1494,6.5945a13.4178,13.4178,0,0,0,1.2388,5.2075,13.8124,13.8124,0,0,0,7.3293,7.0139,13.655,13.655,0,0,0,5.261,1.0271,13.237,13.237,0,0,0,5.4023-1.134,14.937,14.937,0,0,0,4.4244-3.0121.8455.8455,0,0,0,.2366-.2284,22.8977,22.8977,0,0,0,4.3044-5.4919,10.6582,10.6582,0,0,0,1.2513-3.23,21.0968,21.0968,0,0,0,.4118-3.27c.05-1.0607.0585-2.1475.0255-3.23-.0324-1.0267-.0163-2.0322.0478-2.9895l.0018-.0272V58.515a1.0737,1.0737,0,0,0-1.11-1.11Zm-25.4149,2.22h24.3051v8.2392q-.0035-.2511-.0072-.5023c-.0327-1.051-.0491-2.1165-.0491-3.18V60.99a1.0738,1.0738,0,0,0-1.11-1.11H238.0385l.1807-.2543Z" style="fill:url(#linear-gradient-11)"/><g style="opacity:0.30000000000000004"><path d="M290.5086,78.2625a10.4122,10.4122,0,0,1-2.8212,2.7467,12.2386,12.2386,0,0,1-4.0581,1.658.2212.2212,0,0,0-.0993.0248.2132.2132,0,0,1-.0989.0248l8.0673,7.82v.0494h.05v.1485l.0492.0494-.0492.05v.0494l-.05.0494v.05h-.05l-2.2272,1.93a.2011.2011,0,0,1-.1485.0494v.0494H267.4948q-.3466,0-.3466-.2968V61.0391l.05-.0494v-.05a.1426.1426,0,0,1,.05-.0989l2.2764-2.4745h.05a.044.044,0,0,1,.05-.05v-.0494h14.0063a2.6086,2.6086,0,0,0,.5936.0494c.2641.0665.5027.1161.7179.1485a5.5974,5.5974,0,0,1,.6679.1485q.6927.1983,1.3365.4207a6.585,6.585,0,0,1,1.2869.6186,9.2134,9.2134,0,0,1,4.1077,3.86,13.5855,13.5855,0,0,1,1.46,4.578,11.1146,11.1146,0,0,1-.2228,3.8851,13.4108,13.4108,0,0,1-1.2869,3.2913q-.8422,1.51-1.6332,2.7467a.044.044,0,0,1-.05.05q0,.05-.0989.1485Zm-7.82-19.4011H269.92l-1.7817,1.8807h12.9175a.29.29,0,0,1,.1981.05q.4938.05,1.1384.0743a3.719,3.719,0,0,1,.94.1237,9.0828,9.0828,0,0,1,2.2764.6929,13.2286,13.2286,0,0,1,2.0294,1.1878,12.3184,12.3184,0,0,1,1.732,1.5343,10.2438,10.2438,0,0,1,2.8708,8.6611q-.05.3967-.0993.7423a7.3507,7.3507,0,0,1-.1485.7423,16.9887,16.9887,0,0,0,.8664-2.2272,9.6371,9.6371,0,0,0,.42-2.524,10.9562,10.9562,0,0,0-.297-2.8458,13.5087,13.5087,0,0,0-1.1876-3.1428,6.4563,6.4563,0,0,0-1.46-1.98,12.1964,12.1964,0,0,0-2.3511-1.6333q-.6438-.3457-1.2373-.5938a7.3634,7.3634,0,0,0-1.2869-.3961,3.8009,3.8009,0,0,0-.6186-.1483q-.3222-.0488-.7175-.1485a2.3238,2.3238,0,0,1-.5444-.05h-.891Zm.0993,24.0533a.0436.0436,0,0,1-.05-.0494,23.3231,23.3231,0,0,1-3.1674.2968l9.4034,9.156,1.8313-1.5837Z" style="fill:url(#linear-gradient-12)"/></g><path d="M283.6293,58.2676a2.608,2.608,0,0,0,.5936.0494c.2641.0665.5027.1161.7179.1485a5.5984,5.5984,0,0,1,.6679.1485q.6927.1983,1.3365.4207a6.586,6.586,0,0,1,1.2869.6186,9.2134,9.2134,0,0,1,4.1077,3.86,13.5856,13.5856,0,0,1,1.46,4.578,11.1142,11.1142,0,0,1-.2228,3.8851,13.41,13.41,0,0,1-1.2869,3.2913q-.8422,1.51-1.6331,2.7467a.044.044,0,0,1-.05.05q0,.05-.0989.1485v.0494a10.4124,10.4124,0,0,1-2.8212,2.7467,12.2387,12.2387,0,0,1-4.058,1.658.221.221,0,0,0-.0993.0248.2133.2133,0,0,1-.0989.0248l8.0673,7.82v.0494h.05v.1485l.0492.0494-.0492.05v.0494l-.05.0494v.05h-.05l-2.2272,1.93a.2011.2011,0,0,1-.1485.0494v.0494H267.4948q-.3466,0-.3466-.2968V61.0391l.05-.0494v-.05a.1426.1426,0,0,1,.05-.0989l2.2764-2.4745h.05a.044.044,0,0,1,.05-.05v-.0494h14.0063M268.138,60.7421h12.9175a.29.29,0,0,1,.1982.05q.4937.05,1.1384.0742a3.719,3.719,0,0,1,.94.1237,9.0828,9.0828,0,0,1,2.2764.6929,13.2293,13.2293,0,0,1,2.0294,1.1878,12.3182,12.3182,0,0,1,1.732,1.5343,10.2438,10.2438,0,0,1,2.8708,8.6611q-.05.3967-.0993.7423a7.3594,7.3594,0,0,1-.1485.7423,16.99,16.99,0,0,0,.8664-2.2272,9.6371,9.6371,0,0,0,.4205-2.524,10.9567,10.9567,0,0,0-.297-2.8458,13.5089,13.5089,0,0,0-1.1877-3.1428,6.4562,6.4562,0,0,0-1.46-1.98,12.1961,12.1961,0,0,0-2.351-1.6334q-.6439-.3457-1.2373-.5938a7.3655,7.3655,0,0,0-1.2869-.3961,3.8,3.8,0,0,0-.6186-.1483q-.3222-.0488-.7175-.1485a2.3237,2.3237,0,0,1-.5444-.05H269.92l-1.7816,1.8807m20.8362,31.576,1.8313-1.5837-8.0176-7.82a.0436.0436,0,0,1-.05-.0494,23.3221,23.3221,0,0,1-3.1675.2968l9.4034,9.1561m-5.2433-34.8638H268.8591l-.0281.4642-2.1821,2.372a.8811.8811,0,0,0-.1922.2895l-.1218.1213V92.7142a1.0866,1.0866,0,0,0,1.16,1.11h22.3916v-.412l1.8658-1.617h.51l.0309-.5064.0684-.0681v-.0524l.3824-.3857-.3824-.384v-.5762l-.46-.0281-6.8736-6.6626a12.2468,12.2468,0,0,0,3.1086-1.4444,11.27,11.27,0,0,0,3.0394-2.96l.1461-.21v-.0129a.8522.8522,0,0,0,.0779-.1423c.5158-.8109,1.054-1.7182,1.6007-2.6985a14.2826,14.2826,0,0,0,1.3656-3.49,11.9748,11.9748,0,0,0,.2426-4.168,14.45,14.45,0,0,0-1.5412-4.8558,10.0422,10.0422,0,0,0-4.4523-4.2144,7.2081,7.2081,0,0,0-1.4035-.67c-.4372-.1513-.901-.2973-1.379-.4341a6.446,6.446,0,0,0-.7665-.17c-.19-.0285-.405-.0732-.6446-.1336l-.0978-.0246h-.1008a1.89,1.89,0,0,1-.3935-.0244l-.0985-.025Zm-13.4615,2.22H283.493a3.1872,3.1872,0,0,0,.528.0486c.251.0609.4857.108.6987.14a2.9948,2.9948,0,0,1,.4841.116l.0423.0141.0436.0093a6.5836,6.5836,0,0,1,1.1451.3518c.3676.1535.76.3419,1.165.5595a11.4268,11.4268,0,0,1,2.186,1.5161,5.6762,5.6762,0,0,1,1.2765,1.732,12.8641,12.8641,0,0,1,1.1237,2.953,12.9529,12.9529,0,0,0-4.0716-4.904,14.1055,14.1055,0,0,0-2.1544-1.2621,9.8808,9.8808,0,0,0-2.438-.752,4.6429,4.6429,0,0,0-1.0978-.1437c-.3507-.0133-.6684-.0326-.9476-.0574a1.2517,1.2517,0,0,0-.421-.0671h-11.027l.2409-.2543Zm11.18,24.1819q.5162-.0521,1.0114-.1246l7.143,6.9666-.5972.5164L281.45,83.8565Z" style="fill:url(#linear-gradient-13)"/><path d="M126.2922,122.8962a9.6019,9.6019,0,0,1,2.5242,4.8748,9.4353,9.4353,0,0,1-.5446,5.469l-.0494.0494a.2029.2029,0,0,1-.0494.1485c0,.0665-.0171.0989-.0494.0989v.05a17.8341,17.8341,0,0,1-3.3161,4.9491l-.1483.1485a8.58,8.58,0,0,1-4.0336,2.6973,16.31,16.31,0,0,1-4.2812.5692c-.2968,0-.6024-.0077-.9154-.0248s-.6188-.0246-.9156-.0246-.6026-.0077-.9156-.0248-.6357-.0248-.9651-.0248h-12.67a.2841.2841,0,0,1-.1979-.0494.0435.0435,0,0,1-.0494-.0494l-.0494-.0494v-.0991l-.05-.0494h.05v-.1485h.0494l1.7322-2.5242,9.7995-13.1154h-.4949a2.5457,2.5457,0,0,0-.4949.05q-1.1876,0-2.326-.0248a10.01,10.01,0,0,1-2.2272-.297,7.7948,7.7948,0,0,1-2.1529-.9156,7.3068,7.3068,0,0,1-2.0044-1.8807,7.7928,7.7928,0,0,1-1.7076-4.0334,7.9875,7.9875,0,0,1,.6683-4.3306l.0494-.0494.1485-.297a12.5863,12.5863,0,0,1,1.3115-2.3014,16.7939,16.7939,0,0,1,1.757-2.0538,8.2386,8.2386,0,0,1,1.93-1.5591,7.22,7.22,0,0,1,1.955-.7423,10.0134,10.0134,0,0,1,2.1529-.2228h15.4415a.0435.0435,0,0,0,.0494.0494h.05v.05h.0494v.0494l.0494.0494v.1979l-.0494.05v.0494l-1.7322,2.4745-7.325,9.75h.3464q1.2865,0,2.5242.0494a13.7562,13.7562,0,0,1,2.45.3216,9.49,9.49,0,0,1,2.3755.891A8.5589,8.5589,0,0,1,126.2922,122.8962Zm-13.9074-15.1447h-2.2766a12.0774,12.0774,0,0,0-2.0787.1731,6.5743,6.5743,0,0,0-1.93.6683,7.4075,7.4075,0,0,0-1.8807,1.4846,3.2854,3.2854,0,0,0-.4207.3961q-.1739.1983-.3216.3959a5.6762,5.6762,0,0,1,1.7074-.8414,10.7392,10.7392,0,0,1,1.757-.3464,16.406,16.406,0,0,1,1.8065-.0991h14.526l1.2867-1.8805H114.2161q-.4952,0-.9156.0246C113.02,107.7437,112.7144,107.7515,112.3848,107.7515ZM125.5,126.5585a9.58,9.58,0,0,1,1.6085,4.0088,9.81,9.81,0,0,1-.2722,4.2068,6.1656,6.1656,0,0,0,.4207-.7918q.1727-.3955.3713-.792a8.81,8.81,0,0,0,.5938-5.1967,9.2826,9.2826,0,0,0-2.3757-4.7017,9.0651,9.0651,0,0,0-2.1033-1.6828,8.01,8.01,0,0,0-2.2025-.8414,13.7338,13.7338,0,0,0-2.3509-.2968q-1.2132-.0488-2.4994-.05h-.7918l-1.3858,1.8807h.2474q1.5337,0,2.9943.0494a11.4848,11.4848,0,0,1,2.821.4455,8.5164,8.5164,0,0,1,2.5736,1.2621A10.1886,10.1886,0,0,1,125.5,126.5585Z" style="fill-opacity:0.30000000000000004;stroke-miterlimit:10;stroke-opacity:0.99;stroke-width:0.8130000000000001px;fill:url(#linear-gradient-14);stroke:url(#linear-gradient-15)"/><path d="M153.2157,114.7794v24.2511c0,.1322-.0334.215-.0991.2476l-2.4745,2.4745-.0991.0494-.0989.0494H139.3083a.2623.2623,0,0,1-.2968-.2968v-20.44l-7.325,3.2665a.2152.2152,0,0,1-.297-.0494.2282.2282,0,0,1-.1483-.2476V109.929a.1.1,0,0,1,.0246-.0741.1012.1012,0,0,0,.0248-.0743l1.7817-2.4747a.2284.2284,0,0,1,.2476-.1485h31.8728a.2918.2918,0,0,1,.2476.1485.3277.3277,0,0,1,0,.3464l-1.7819,2.4747-.0989.0989Zm-21.0836-5.1472h31.1305l1.3363-1.8807H133.4682Zm20.49,5.444-1.8805.8414v24.8945l1.8805-1.8805Z" style="fill-opacity:0.30000000000000004;stroke-miterlimit:10;stroke-width:0.813200141092565px;fill:url(#linear-gradient-16);stroke:url(#linear-gradient-17)"/><path d="M191.423,127.2514a10.4142,10.4142,0,0,1-2.821,2.7467,12.2408,12.2408,0,0,1-4.0585,1.658.22.22,0,0,0-.0989.0248.2152.2152,0,0,1-.0991.0248l8.0673,7.82v.0494h.0494v.1485l.05.0494-.05.05v.0494l-.0494.0494v.05h-.0494l-2.2272,1.93a.202.202,0,0,1-.1485.0494V142H168.4092q-.3469,0-.3464-.2968V110.0281l.0494-.0494v-.05a.1431.1431,0,0,1,.0494-.0989l2.2768-2.4745h.0494a.0439.0439,0,0,1,.0494-.05v-.0494h14.0063a2.6138,2.6138,0,0,0,.594.0494q.3955.1.7175.1485a5.6031,5.6031,0,0,1,.6683.1485q.6924.1983,1.3363.4207a6.589,6.589,0,0,1,1.2867.6186,9.2109,9.2109,0,0,1,4.1079,3.86,13.5855,13.5855,0,0,1,1.46,4.578,11.1146,11.1146,0,0,1-.2228,3.8851,13.4183,13.4183,0,0,1-1.2867,3.2913q-.8422,1.51-1.6333,2.7467a.0439.0439,0,0,1-.0494.05c0,.0332-.0334.0826-.0991.1485Zm-7.82-19.4011h-12.769l-1.7817,1.8807H181.97a.29.29,0,0,1,.1981.05q.4941.05,1.1382.0743a3.7194,3.7194,0,0,1,.94.1237,9.0875,9.0875,0,0,1,2.2766.6929,13.2357,13.2357,0,0,1,2.0292,1.1878,12.3307,12.3307,0,0,1,1.7322,1.5343,10.2435,10.2435,0,0,1,2.87,8.6611q-.05.3967-.0989.7423a7.52,7.52,0,0,1-.1485.7423,16.96,16.96,0,0,0,.866-2.2272,9.6207,9.6207,0,0,0,.4207-2.524,10.9728,10.9728,0,0,0-.2968-2.8458A13.5187,13.5187,0,0,0,192.71,112.8a6.45,6.45,0,0,0-1.46-1.98,12.1883,12.1883,0,0,0-2.3509-1.6333q-.6438-.3457-1.2375-.5938a7.3664,7.3664,0,0,0-1.2867-.3961,3.8109,3.8109,0,0,0-.6186-.1483q-.3225-.0488-.7177-.1485a2.3238,2.3238,0,0,1-.5444-.05h-.8908Zm.0991,24.0533a.0436.0436,0,0,1-.05-.0494,23.3232,23.3232,0,0,1-3.1674.2968l9.4034,9.156,1.8313-1.5837Z" style="fill-opacity:0.30000000000000004;stroke-miterlimit:10;stroke-width:0.813200141092565px;fill:url(#linear-gradient-18);stroke:url(#linear-gradient-19)"/><path d="M225.721,130.2209v9.0572l-.05.0494-1.7813,2.524-.05.05a.0436.0436,0,0,0-.0492.0494H198.1039a.2624.2624,0,0,1-.2968-.297V109.88l.0494-.0494,1.7817-2.4745v-.05l.05-.0494h.0494l.0494-.0494h23.6074a.2622.2622,0,0,1,.297.2968v9.0077a.0436.0436,0,0,1-.0492.0494v.0494l-2.1283,2.4747a.3345.3345,0,0,1-.247.0989h-3.3656v4.5532a.1022.1022,0,0,1-.0246.0743.099.099,0,0,0-.0254.0743l-.0492.05v.0494l-2.5238,2.4745-.0993.05-.0993.0494h-4.2558v3.415h14.6988l.05.0494h.0492l.0492.0494v.0494a.0446.0446,0,0,1,.05.05Zm-2.623-22.42H200.0345l-1.3365,1.8807h22.42a.2627.2627,0,0,1,.297.297v8.3147l1.6828-1.98Zm-12.5712,22.7664a.2627.2627,0,0,1-.297-.297v-3.7118h-1.732v5.89h14.9958l1.3365-1.8807Zm6.7311-11.3832h-1.8813v6.3351l1.8813-1.8807Zm7.8691,12.0267-1.1388,1.6332v7.8693l1.1388-1.6333Z" style="fill-opacity:0.30000000000000004;stroke-miterlimit:10;stroke-width:0.813200141092565px;fill:url(#linear-gradient-20);stroke:url(#linear-gradient-21)"/><path d="M260.0676,139.08v.05l-.05.0494-1.6828,2.4251a.3172.3172,0,0,1-.297.1979l-.0492-.0494-14.9962-3.415-.7425,1.4848v.0494l-.0989.0991-2.92,1.7817a.1017.1017,0,0,0-.0743.0246.1936.1936,0,0,1-.1239.0248H228.0955a.228.228,0,0,1-.2474-.1485.2463.2463,0,0,1,0-.2968l14.9465-31.6751a.0439.0439,0,0,0,.05-.0494l1.732-2.4747h.05v-.0494a.0439.0439,0,0,0,.05-.0494h.297l.0492.0494.05.0494.05.05,14.9465,31.6749v.05l.0492.0494-.0492.0494Zm-17.6688-.8908-1.2869-.297-1.3361,2.8212,1.98-1.2373Zm17.0252.792-14.65-31.0316-1.3361,1.8807,14.65,31.0811Z" style="fill-opacity:0.30000000000000004;stroke-miterlimit:10;stroke-width:0.813200141092565px;fill:url(#linear-gradient-22);stroke:url(#linear-gradient-23)"/><path d="M298.5723,107.7515a.0441.0441,0,0,1,.0492.0494v31.4275l-.0492.05v.0494l-.05.0494-2.623,2.4251a.0439.0439,0,0,0-.05.0494h-.0492a.1437.1437,0,0,0-.0993.05h-33.209a.2625.2625,0,0,1-.297-.297V109.7807h.0492v-.05l1.7324-2.4745h.0492v-.0494a.1437.1437,0,0,1,.0993-.05h.1977l.05.05h.05l.0492.0494,16.4808,20.0443,14.4518-17.52.05-.05v-.0494h.05l2.623-2.0787h.0492l.05-.0494h.1981l.0492.0494a.0442.0442,0,0,1,.05.0494h.05v.0991ZM262.8387,109.88l16.2334,19.7475,1.5343-1.8313-16.3819-19.8464Zm33.16,31.0316,2.029-1.8807V108.4444l-2.029,1.6332Z" style="fill-opacity:0.30000000000000004;stroke-miterlimit:10;stroke-width:0.813200141092565px;fill:url(#linear-gradient-24);stroke:url(#linear-gradient-25)"/><g style="opacity:0.2"><path d="M146.3085,166.8894v2.4586c0,2.96-1.48,4.652-4.3349,4.652s-4.3349-1.6917-4.3349-4.652v-9.6207c0-2.96,1.48-4.652,4.3349-4.652s4.3349,1.6917,4.3349,4.652v1.7968H143.56v-1.982c0-1.3224-.5818-1.8242-1.5065-1.8242s-1.507.5018-1.507,1.8242v9.991c0,1.3213.5818,1.7968,1.507,1.7968s1.5065-.4755,1.5065-1.7968v-2.6438Z" style="fill:url(#linear-gradient-26)"/></g><path d="M141.9736,155.0752c2.8547,0,4.3349,1.6917,4.3349,4.652v1.7968H143.56v-1.982c0-1.3224-.5818-1.8242-1.5065-1.8242s-1.507.5018-1.507,1.8242v9.9911c0,1.3213.5818,1.7968,1.507,1.7968s1.5065-.4755,1.5065-1.7968v-2.6438h2.7489v2.4586c0,2.96-1.48,4.652-4.3349,4.652s-4.3349-1.6917-4.3349-4.652v-9.6207c0-2.96,1.48-4.652,4.3349-4.652m0-.561c-3.1114,0-4.8958,1.9-4.8958,5.213v9.6207c0,3.3129,1.7845,5.213,4.8958,5.213s4.8958-1.9,4.8958-5.213v-3.02h-3.8708v3.2047c0,1.1414-.4473,1.2359-.9455,1.2359s-.9461-.0945-.9461-1.2359v-9.9911c0-1.1656.4884-1.2633.9461-1.2633s.9455.0976.9455,1.2633v2.543h3.8708v-2.3578c0-3.3129-1.7845-5.213-4.8958-5.213Z" style="fill:url(#linear-gradient-27)"/><g style="opacity:0.2"><path d="M149.242,159.7272c0-2.96,1.56-4.652,4.4137-4.652s4.4143,1.6917,4.4143,4.652v9.6207c0,2.96-1.5591,4.652-4.4143,4.652s-4.4137-1.6917-4.4137-4.652Zm2.9073,9.8059c0,1.3213.5818,1.8231,1.5065,1.8231s1.507-.5018,1.507-1.8231v-9.991c0-1.3224-.5818-1.8242-1.507-1.8242s-1.5065.5018-1.5065,1.8242Z" style="fill:url(#linear-gradient-28)"/></g><path d="M153.6558,155.0752c2.8552,0,4.4143,1.6917,4.4143,4.652v9.6207c0,2.96-1.5591,4.652-4.4143,4.652s-4.4137-1.6917-4.4137-4.652v-9.6207c0-2.96,1.56-4.652,4.4137-4.652m0,16.2811c.9253,0,1.507-.5018,1.507-1.8231v-9.9911c0-1.3224-.5818-1.8242-1.507-1.8242s-1.5065.5018-1.5065,1.8242v9.9911c0,1.3213.5818,1.8231,1.5065,1.8231m0-16.842c-3.1615,0-4.9747,1.9-4.9747,5.213v9.6207c0,3.3129,1.8132,5.213,4.9747,5.213s4.9753-1.9,4.9753-5.213v-9.6207c0-3.3129-1.8134-5.213-4.9753-5.213Zm0,16.2811c-.4575,0-.9455-.0975-.9455-1.2622v-9.9911c0-1.1656.4881-1.2633.9455-1.2633s.9461.0976.9461,1.2633v9.9911c0,1.1646-.4883,1.2622-.9461,1.2622Z" style="fill:url(#linear-gradient-29)"/><g style="opacity:0.2"><path d="M167.48,168.4232h.0531l1.9557-13.1377h4.044v18.503h-2.7489V160.5194h-.0526l-1.9562,13.2692H166.026l-2.1146-13.084h-.0526v13.084h-2.5375v-18.503h4.044Z" style="fill:url(#linear-gradient-30)"/></g><path d="M173.5327,155.2856v18.503h-2.7489V160.5194h-.0526l-1.9562,13.2692H166.026l-2.1146-13.084h-.0526v13.084h-2.5375v-18.503h4.044l2.1146,13.1377h.0531l1.9557-13.1377h4.044m.561-.561h-5.0886l-.0712.4783-1.448,9.7273-1.5667-9.7338-.0759-.4718H160.76V174.35H164.42v-6.9833l1.0524,6.5119.0762.4715h3.7108l.0706-.4791.8929-6.0567V174.35h3.8708V154.7246Z" style="fill:url(#linear-gradient-31)"/><g style="opacity:0.2"><path d="M177.0475,155.2856h2.9078v18.503h-2.9078Z" style="fill:url(#linear-gradient-32)"/></g><path d="M179.9553,155.2856v18.503h-2.9078v-18.503h2.9078m.561-.561h-4.03V174.35h4.03V154.7246Z" style="fill:url(#linear-gradient-33)"/><g style="opacity:0.2"><path d="M186.1132,160.3879H186.06v13.4006h-2.6164v-18.503h3.6473l2.9341,11.0757h.0526V155.2856h2.5906v18.503h-2.9867Z" style="fill:url(#linear-gradient-34)"/></g><path d="M192.6684,155.2856v18.503h-2.9867l-3.5685-13.4006H186.06v13.4006h-2.6164v-18.503h3.6474l2.9341,11.0757h.0526V155.2856h2.5906m.561-.561h-3.7125v7.527l-1.8835-7.11-.1106-.4173h-4.64V174.35h3.7383v-9.8746l2.5186,9.458.1109.4166h3.9788V154.7246Z" style="fill:url(#linear-gradient-35)"/><g style="opacity:0.2"><path d="M200.5186,163.48h4.0708v5.8682c0,2.96-1.48,4.652-4.3349,4.652s-4.3349-1.6917-4.3349-4.652v-9.6207c0-2.96,1.48-4.652,4.3349-4.652s4.3349,1.6917,4.3349,4.652v1.7968H201.84v-1.982c0-1.3224-.5818-1.8242-1.5065-1.8242s-1.507.5018-1.507,1.8242v9.991c0,1.3213.5818,1.7968,1.507,1.7968s1.5065-.4755,1.5065-1.7968v-3.41h-1.3219Z" style="fill:url(#linear-gradient-36)"/></g><path d="M200.2545,155.0752c2.8547,0,4.3349,1.6917,4.3349,4.652v1.7968H201.84v-1.982c0-1.3224-.5818-1.8242-1.5065-1.8242s-1.507.5018-1.507,1.8242v9.9911c0,1.3213.5818,1.7968,1.507,1.7968s1.5065-.4755,1.5065-1.7968v-3.41h-1.3219V163.48h4.0708v5.8682c0,2.96-1.48,4.652-4.3349,4.652s-4.3349-1.6917-4.3349-4.652v-9.6207c0-2.96,1.48-4.652,4.3349-4.652m0-.561c-3.1114,0-4.8958,1.9-4.8958,5.213v9.6207c0,3.3129,1.7845,5.213,4.8958,5.213s4.8958-1.9,4.8958-5.213v-6.4292h-5.1927v3.7657h1.3219v2.8486c0,1.1414-.4473,1.2359-.9455,1.2359s-.9461-.0945-.9461-1.2359v-9.9911c0-1.1656.4883-1.2633.9461-1.2633s.9455.0976.9455,1.2633v2.543H205.15v-2.3578c0-3.3129-1.7845-5.213-4.8958-5.213Z" style="fill:url(#linear-gradient-37)"/><g style="opacity:0.2"><path d="M217.2757,155.0752c2.8289,0,4.2828,1.6917,4.2828,4.652v.5807H218.81v-.7658c0-1.3224-.5292-1.8242-1.4539-1.8242s-1.4539.5018-1.4539,1.8242c0,1.3476.5818,2.3523,2.4849,4.0177,2.4312,2.1409,3.1981,3.6736,3.1981,5.7882,0,2.96-1.48,4.652-4.3354,4.652s-4.3343-1.6917-4.3343-4.652v-1.1362h2.7489v1.3213c0,1.3213.5818,1.7968,1.5065,1.7968s1.5065-.4755,1.5065-1.7968c0-1.3476-.5818-2.3523-2.4849-4.0177-2.4312-2.1409-3.1981-3.6736-3.1981-5.7882C212.994,156.7668,214.4479,155.0752,217.2757,155.0752Z" style="fill:url(#linear-gradient-38)"/></g><path d="M217.2757,155.0752c2.8289,0,4.2828,1.6917,4.2828,4.652v.5807H218.81v-.7659c0-1.3224-.5292-1.8242-1.4539-1.8242s-1.4539.5018-1.4539,1.8242c0,1.3476.5818,2.3523,2.4849,4.0177,2.4312,2.1409,3.1981,3.6736,3.1981,5.7882,0,2.96-1.48,4.652-4.3354,4.652s-4.3343-1.6917-4.3343-4.652v-1.1362h2.7489v1.3213c0,1.3213.5818,1.7968,1.5065,1.7968s1.5065-.4755,1.5065-1.7968c0-1.3476-.5818-2.3523-2.4849-4.0177-2.4312-2.1409-3.1982-3.6736-3.1982-5.7882,0-2.96,1.4539-4.652,4.2817-4.652m0-.561c-3.0776,0-4.8427,1.9-4.8427,5.213,0,2.3513.9184,4.0341,3.3884,6.2092,1.94,1.6976,2.2946,2.543,2.2946,3.5967,0,1.1414-.4473,1.2359-.9455,1.2359s-.9455-.0945-.9455-1.2359v-1.8823h-3.8708v1.6971c0,3.3129,1.7843,5.213,4.8953,5.213s4.8964-1.9,4.8964-5.213c0-2.3513-.9184-4.0342-3.3884-6.2092-1.94-1.6976-2.2947-2.543-2.2947-3.5967,0-1.1666.4224-1.2633.8929-1.2633s.8929.0966.8929,1.2633v1.3268h3.8708v-1.1416c0-3.3129-1.7655-5.213-4.8438-5.213Z" style="fill:url(#linear-gradient-39)"/><g style="opacity:0.2"><path d="M224.4126,159.7272c0-2.96,1.5591-4.652,4.4143-4.652s4.4143,1.6917,4.4143,4.652v9.6207c0,2.96-1.56,4.652-4.4143,4.652s-4.4143-1.6917-4.4143-4.652Zm2.9078,9.8059c0,1.3213.5807,1.8231,1.5065,1.8231s1.5065-.5018,1.5065-1.8231v-9.991c0-1.3224-.5818-1.8242-1.5065-1.8242s-1.5065.5018-1.5065,1.8242Z" style="fill:url(#linear-gradient-40)"/></g><path d="M228.8269,155.0752c2.8541,0,4.4143,1.6917,4.4143,4.652v9.6207c0,2.96-1.56,4.652-4.4143,4.652s-4.4143-1.6917-4.4143-4.652v-9.6207c0-2.96,1.5591-4.652,4.4143-4.652m0,16.2811c.9247,0,1.5065-.5018,1.5065-1.8231v-9.9911c0-1.3224-.5818-1.8242-1.5065-1.8242s-1.5065.5018-1.5065,1.8242v9.9911c0,1.3213.5807,1.8231,1.5065,1.8231m0-16.842c-3.1618,0-4.9753,1.9-4.9753,5.213v9.6207c0,3.3129,1.8134,5.213,4.9753,5.213s4.9753-1.9,4.9753-5.213v-9.6207c0-3.3129-1.8134-5.213-4.9753-5.213Zm0,16.2811c-.4784,0-.9455-.0975-.9455-1.2622v-9.9911c0-1.1657.4671-1.2633.9455-1.2633.4575,0,.9455.0976.9455,1.2633v9.9911c0,1.1646-.4881,1.2622-.9455,1.2622Z" style="fill:url(#linear-gradient-41)"/><g style="opacity:0.2"><path d="M236.28,159.7272c0-2.96,1.5591-4.652,4.4143-4.652s4.4143,1.6917,4.4143,4.652v9.6207c0,2.96-1.56,4.652-4.4143,4.652s-4.4143-1.6917-4.4143-4.652Zm2.9078,9.8059c0,1.3213.5807,1.8231,1.5065,1.8231s1.5065-.5018,1.5065-1.8231v-9.991c0-1.3224-.5818-1.8242-1.5065-1.8242s-1.5065.5018-1.5065,1.8242Z" style="fill:url(#linear-gradient-42)"/></g><path d="M240.6948,155.0752c2.8541,0,4.4143,1.6917,4.4143,4.652v9.6207c0,2.96-1.56,4.652-4.4143,4.652s-4.4143-1.6917-4.4143-4.652v-9.6207c0-2.96,1.5591-4.652,4.4143-4.652m0,16.2811c.9247,0,1.5065-.5018,1.5065-1.8231v-9.9911c0-1.3224-.5818-1.8242-1.5065-1.8242s-1.5065.5018-1.5065,1.8242v9.9911c0,1.3213.5807,1.8231,1.5065,1.8231m0-16.842c-3.1618,0-4.9753,1.9-4.9753,5.213v9.6207c0,3.3129,1.8134,5.213,4.9753,5.213s4.9753-1.9,4.9753-5.213v-9.6207c0-3.3129-1.8134-5.213-4.9753-5.213Zm0,16.2811c-.4784,0-.9455-.0975-.9455-1.2622v-9.9911c0-1.1657.4671-1.2633.9455-1.2633.4575,0,.9455.0976.9455,1.2633v9.9911c0,1.1646-.4881,1.2622-.9455,1.2622Z" style="fill:url(#linear-gradient-43)"/><g style="opacity:0.2"><path d="M251.03,160.3879h-.0537v13.4006H248.36v-18.503h3.6473l2.9341,11.0757h.0526V155.2856h2.59v18.503h-2.9867Z" style="fill:url(#linear-gradient-44)"/></g><path d="M257.5839,155.2856v18.503h-2.9867L251.03,160.3879h-.0537v13.4006H248.36v-18.503h3.6473l2.9341,11.0757h.0526V155.2856h2.59m.561-.561h-3.712v7.5271l-1.8835-7.11-.1105-.4173h-4.64V174.35h3.7383v-9.8754l2.518,9.4588.1109.4166h3.9788V154.7246Z" style="fill:url(#linear-gradient-45)"/><path d="M126.2922,122.8962a9.6019,9.6019,0,0,1,2.5242,4.8748,9.4353,9.4353,0,0,1-.5446,5.469l-.0494.0494a.2029.2029,0,0,1-.0494.1485c0,.0665-.0171.0989-.0494.0989v.05a17.8341,17.8341,0,0,1-3.3161,4.9491l-.1483.1485a8.58,8.58,0,0,1-4.0336,2.6973,16.31,16.31,0,0,1-4.2812.5692c-.2968,0-.6024-.0077-.9154-.0248s-.6188-.0246-.9156-.0246-.6026-.0077-.9156-.0248-.6357-.0248-.9651-.0248h-12.67a.2841.2841,0,0,1-.1979-.0494.0435.0435,0,0,1-.0494-.0494l-.0494-.0494v-.0991l-.05-.0494h.05v-.1485h.0494l1.7322-2.5242,9.7995-13.1154h-.4949a2.5457,2.5457,0,0,0-.4949.05q-1.1876,0-2.326-.0248a10.01,10.01,0,0,1-2.2272-.297,7.7948,7.7948,0,0,1-2.1529-.9156,7.3068,7.3068,0,0,1-2.0044-1.8807,7.7928,7.7928,0,0,1-1.7076-4.0334,7.9875,7.9875,0,0,1,.6683-4.3306l.0494-.0494.1485-.297a12.5863,12.5863,0,0,1,1.3115-2.3014,16.7939,16.7939,0,0,1,1.757-2.0538,8.2386,8.2386,0,0,1,1.93-1.5591,7.22,7.22,0,0,1,1.955-.7423,10.0134,10.0134,0,0,1,2.1529-.2228h15.4415a.0435.0435,0,0,0,.0494.0494h.05v.05h.0494v.0494l.0494.0494v.1979l-.0494.05v.0494l-1.7322,2.4745-7.325,9.75h.3464q1.2865,0,2.5242.0494a13.7562,13.7562,0,0,1,2.45.3216,9.49,9.49,0,0,1,2.3755.891A8.5589,8.5589,0,0,1,126.2922,122.8962Zm-13.9074-15.1447h-2.2766a12.0774,12.0774,0,0,0-2.0787.1731,6.5743,6.5743,0,0,0-1.93.6683,7.4075,7.4075,0,0,0-1.8807,1.4846,3.2854,3.2854,0,0,0-.4207.3961q-.1739.1983-.3216.3959a5.6762,5.6762,0,0,1,1.7074-.8414,10.7392,10.7392,0,0,1,1.757-.3464,16.406,16.406,0,0,1,1.8065-.0991h14.526l1.2867-1.8805H114.2161q-.4952,0-.9156.0246C113.02,107.7437,112.7144,107.7515,112.3848,107.7515ZM125.5,126.5585a9.58,9.58,0,0,1,1.6085,4.0088,9.81,9.81,0,0,1-.2722,4.2068,6.1656,6.1656,0,0,0,.4207-.7918q.1727-.3955.3713-.792a8.81,8.81,0,0,0,.5938-5.1967,9.2826,9.2826,0,0,0-2.3757-4.7017,9.0651,9.0651,0,0,0-2.1033-1.6828,8.01,8.01,0,0,0-2.2025-.8414,13.7338,13.7338,0,0,0-2.3509-.2968q-1.2132-.0488-2.4994-.05h-.7918l-1.3858,1.8807h.2474q1.5337,0,2.9943.0494a11.4848,11.4848,0,0,1,2.821.4455,8.5164,8.5164,0,0,1,2.5736,1.2621A10.1886,10.1886,0,0,1,125.5,126.5585Z" style="fill:none;stroke-miterlimit:10;stroke-opacity:0.99;stroke-width:0.8130000000000001px;stroke:url(#linear-gradient-15)"/></svg>