<svg id="Layer_1" data-name="Layer 1" xmlns="http://www.w3.org/2000/svg" xmlns:xlink="http://www.w3.org/1999/xlink" viewBox="0 0 400 200"><defs><style>.cls-1{fill:url(#linear-gradient);}.cls-2{opacity:0.14;}.cls-3{fill:#f2860f;}.cls-4{fill:#efd229;}.cls-5{fill:#51d62b;}.cls-6{fill:#267ddb;}.cls-7{opacity:0.57;}.cls-8{opacity:0.3;}.cls-9{fill:url(#linear-gradient-2);}.cls-10{fill:url(#linear-gradient-3);}.cls-11{fill:url(#linear-gradient-4);}.cls-12{fill:url(#linear-gradient-5);}.cls-13{fill:url(#linear-gradient-6);}.cls-14{fill:url(#linear-gradient-7);}.cls-15{fill:url(#linear-gradient-8);}.cls-16{fill:url(#linear-gradient-9);}.cls-17{fill:url(#linear-gradient-10);}.cls-18{fill:url(#linear-gradient-11);}.cls-19{fill:url(#linear-gradient-12);}.cls-20{fill:url(#linear-gradient-13);}.cls-21,.cls-22,.cls-23,.cls-24,.cls-25,.cls-26{fill-opacity:0.3;stroke-miterlimit:10;stroke-width:0.81px;}.cls-21{fill:url(#linear-gradient-14);stroke:url(#linear-gradient-15);}.cls-22{fill:url(#linear-gradient-16);stroke:url(#linear-gradient-17);}.cls-23{fill:url(#linear-gradient-18);stroke:url(#linear-gradient-19);}.cls-24{fill:url(#linear-gradient-20);stroke:url(#linear-gradient-21);}.cls-25{fill:url(#linear-gradient-22);stroke:url(#linear-gradient-23);}.cls-26{fill:url(#linear-gradient-24);stroke:url(#linear-gradient-25);}.cls-27{opacity:0.2;}.cls-28{fill:url(#linear-gradient-26);}.cls-29{fill:url(#linear-gradient-27);}.cls-30{fill:url(#linear-gradient-28);}.cls-31{fill:url(#linear-gradient-29);}.cls-32{fill:url(#linear-gradient-30);}.cls-33{fill:url(#linear-gradient-31);}.cls-34{fill:url(#linear-gradient-32);}.cls-35{fill:url(#linear-gradient-33);}.cls-36{fill:url(#linear-gradient-34);}.cls-37{fill:url(#linear-gradient-35);}.cls-38{fill:url(#linear-gradient-36);}.cls-39{fill:url(#linear-gradient-37);}.cls-40{fill:url(#linear-gradient-38);}.cls-41{fill:url(#linear-gradient-39);}.cls-42{fill:url(#linear-gradient-40);}.cls-43{fill:url(#linear-gradient-41);}.cls-44{fill:url(#linear-gradient-42);}.cls-45{fill:url(#linear-gradient-43);}.cls-46{fill:url(#linear-gradient-44);}.cls-47{fill:url(#linear-gradient-45);}</style><linearGradient id="linear-gradient" x1="200" y1="200" x2="200" gradientUnits="userSpaceOnUse"><stop offset="0" stop-color="#191919"/><stop offset="1" stop-color="#2d2d2d"/></linearGradient><linearGradient id="linear-gradient-2" x1="102.89" y1="75.42" x2="134.36" y2="75.42" gradientUnits="userSpaceOnUse"><stop offset="0" stop-color="#26aeea"/><stop offset="1" stop-color="#2199ea"/></linearGradient><linearGradient id="linear-gradient-3" x1="118.62" y1="93.63" x2="118.62" y2="57.21" xlink:href="#linear-gradient-2"/><linearGradient id="linear-gradient-4" x1="136.59" y1="75.58" x2="170.55" y2="75.58" xlink:href="#linear-gradient-2"/><linearGradient id="linear-gradient-5" x1="153.57" y1="93.73" x2="153.57" y2="57.44" xlink:href="#linear-gradient-2"/><linearGradient id="linear-gradient-6" x1="173.16" y1="75.47" x2="197.37" y2="75.47" xlink:href="#linear-gradient-2"/><linearGradient id="linear-gradient-7" x1="185.26" y1="93.68" x2="185.26" y2="57.26" xlink:href="#linear-gradient-2"/><linearGradient id="linear-gradient-8" x1="199.15" y1="75.58" x2="233.1" y2="75.58" xlink:href="#linear-gradient-2"/><linearGradient id="linear-gradient-9" x1="216.13" y1="93.73" x2="216.13" y2="57.44" xlink:href="#linear-gradient-2"/><linearGradient id="linear-gradient-10" x1="235.47" y1="75.57" x2="263.93" y2="75.57" xlink:href="#linear-gradient-2"/><linearGradient id="linear-gradient-11" x1="249.7" y1="93.73" x2="249.7" y2="57.4" xlink:href="#linear-gradient-2"/><linearGradient id="linear-gradient-12" x1="267.15" y1="75.64" x2="293.87" y2="75.64" xlink:href="#linear-gradient-2"/><linearGradient id="linear-gradient-13" x1="280.51" y1="93.82" x2="280.51" y2="57.45" xlink:href="#linear-gradient-2"/><linearGradient id="linear-gradient-14" x1="99.62" y1="124.53" x2="129" y2="124.53" gradientUnits="userSpaceOnUse"><stop offset="0" stop-color="#51d62b"/><stop offset="1" stop-color="#3eb716"/></linearGradient><linearGradient id="linear-gradient-15" x1="114.02" y1="106.7" x2="114.02" y2="142.36" xlink:href="#linear-gradient-14"/><linearGradient id="linear-gradient-16" x1="131.24" y1="124.5" x2="165.49" y2="124.5" xlink:href="#linear-gradient-14"/><linearGradient id="linear-gradient-17" x1="148.37" y1="106.75" x2="148.37" y2="142.26" xlink:href="#linear-gradient-14"/><linearGradient id="linear-gradient-18" x1="168.06" y1="124.63" x2="194.79" y2="124.63" xlink:href="#linear-gradient-14"/><linearGradient id="linear-gradient-19" x1="181.43" y1="106.85" x2="181.43" y2="142.41" xlink:href="#linear-gradient-14"/><linearGradient id="linear-gradient-20" x1="197.81" y1="124.58" x2="225.72" y2="124.58" xlink:href="#linear-gradient-14"/><linearGradient id="linear-gradient-21" x1="211.76" y1="106.8" x2="211.76" y2="142.36" xlink:href="#linear-gradient-14"/><linearGradient id="linear-gradient-22" x1="227.8" y1="124.43" x2="260.12" y2="124.43" xlink:href="#linear-gradient-14"/><linearGradient id="linear-gradient-23" x1="244.04" y1="106.65" x2="244.04" y2="142.21" xlink:href="#linear-gradient-14"/><linearGradient id="linear-gradient-24" x1="262.2" y1="124.53" x2="298.62" y2="124.53" xlink:href="#linear-gradient-14"/><linearGradient id="linear-gradient-25" x1="280.41" y1="106.75" x2="280.41" y2="142.31" xlink:href="#linear-gradient-14"/><linearGradient id="linear-gradient-26" x1="141.97" y1="155.08" x2="141.97" y2="174" gradientUnits="userSpaceOnUse"><stop offset="0" stop-color="#efd229"/><stop offset="1" stop-color="#d6a51e"/></linearGradient><linearGradient id="linear-gradient-27" x1="141.97" y1="154.51" x2="141.97" y2="174.56" xlink:href="#linear-gradient-26"/><linearGradient id="linear-gradient-28" x1="153.66" y1="155.08" x2="153.66" xlink:href="#linear-gradient-26"/><linearGradient id="linear-gradient-29" x1="153.66" y1="154.51" x2="153.66" y2="174.56" xlink:href="#linear-gradient-26"/><linearGradient id="linear-gradient-30" x1="167.43" y1="155.29" x2="167.43" y2="173.79" xlink:href="#linear-gradient-26"/><linearGradient id="linear-gradient-31" x1="167.43" y1="154.72" x2="167.43" y2="174.35" xlink:href="#linear-gradient-26"/><linearGradient id="linear-gradient-32" x1="178.5" y1="155.29" x2="178.5" y2="173.79" xlink:href="#linear-gradient-26"/><linearGradient id="linear-gradient-33" x1="178.5" y1="154.72" x2="178.5" y2="174.35" xlink:href="#linear-gradient-26"/><linearGradient id="linear-gradient-34" x1="188.06" y1="155.29" x2="188.06" y2="173.79" xlink:href="#linear-gradient-26"/><linearGradient id="linear-gradient-35" x1="188.06" y1="154.72" x2="188.06" y2="174.35" xlink:href="#linear-gradient-26"/><linearGradient id="linear-gradient-36" x1="200.25" y1="155.08" x2="200.25" xlink:href="#linear-gradient-26"/><linearGradient id="linear-gradient-37" x1="200.25" y1="154.51" x2="200.25" y2="174.56" xlink:href="#linear-gradient-26"/><linearGradient id="linear-gradient-38" x1="217.25" y1="155.08" x2="217.25" xlink:href="#linear-gradient-26"/><linearGradient id="linear-gradient-39" x1="217.25" y1="154.51" x2="217.25" y2="174.56" xlink:href="#linear-gradient-26"/><linearGradient id="linear-gradient-40" x1="228.83" y1="155.08" x2="228.83" xlink:href="#linear-gradient-26"/><linearGradient id="linear-gradient-41" x1="228.83" y1="154.51" x2="228.83" y2="174.56" xlink:href="#linear-gradient-26"/><linearGradient id="linear-gradient-42" x1="240.69" y1="155.08" x2="240.69" xlink:href="#linear-gradient-26"/><linearGradient id="linear-gradient-43" x1="240.69" y1="154.51" x2="240.69" y2="174.56" xlink:href="#linear-gradient-26"/><linearGradient id="linear-gradient-44" x1="252.97" y1="155.29" x2="252.97" y2="173.79" xlink:href="#linear-gradient-26"/><linearGradient id="linear-gradient-45" x1="252.97" y1="154.72" x2="252.97" y2="174.35" xlink:href="#linear-gradient-26"/></defs><title>ColourStream2</title><rect class="cls-1" width="400" height="200"/><g class="cls-2"><rect class="cls-3" width="99.53" height="200"/><rect class="cls-4" x="99.53" width="100.16" height="200"/><rect class="cls-5" x="199.69" width="100.16" height="200"/><rect class="cls-6" x="299.84" width="100.16" height="200"/></g><g class="cls-7"><path d="M99.48.53v99H.52V.53h99M100,0H0V100.07H100V0Z"/><path d="M99.48,100.54v99H.52v-99h99M100,100H0V200.07H100V100Z"/><path d="M199.48.53v99h-99V.53h99M200,0H100V100.07H200V0Z"/><path d="M199.48,100.54v99h-99v-99h99M200,100H100V200.07H200V100Z"/><path d="M299.48.53v99h-99V.53h99M300,0H200V100.07H300V0Z"/><path d="M299.48,100.54v99h-99v-99h99M300,100H200V200.07H300V100Z"/><path d="M399.48.53v99h-99V.53h99M400,0H300V100.07H400V0Z"/><path d="M399.48,100.54v99h-99v-99h99M400,100H300V200.07H400V100Z"/></g><g class="cls-8"><path class="cls-9" d="M132.48,68.22l-10.1,6.58,11.83,7.77a0,0,0,0,1,0,0l0,0v0a0,0,0,0,1,0,0v.1a0,0,0,0,1,0,0v0l-1.78,2.52a15.94,15.94,0,0,1-5.74,5.42,15.45,15.45,0,0,1-7.57,1.91,16.83,16.83,0,0,1-11.16-4.31,16.14,16.14,0,0,1-3.74-5.07,15.54,15.54,0,0,1-1.44-6.81,16.43,16.43,0,0,1,1-5.86,15.44,15.44,0,0,1,3.07-5,16.14,16.14,0,0,1,27.32-.45l0,0v.2a.14.14,0,0,0,0,.1l-1.78,2.47Zm-12-9.6A15.88,15.88,0,0,0,114.32,60a15.72,15.72,0,0,0-5.1,3.71,17.12,17.12,0,0,1,4.73-2.43,16.71,16.71,0,0,1,5.27-.84,15.49,15.49,0,0,1,7.4,1.81,15.72,15.72,0,0,1,5.67,5.17l1.39-2A15.5,15.5,0,0,0,128,60.35,15,15,0,0,0,120.5,58.61Zm1.34,16.58-2.23,1.44,12.62,8.27,1.39-2Z"/></g><path class="cls-10" d="M120.71,58a16.16,16.16,0,0,1,13.6,7.33l0,0v.2a.14.14,0,0,0,0,.1l-1.78,2.47,0,0-10.1,6.58,11.83,7.77a0,0,0,0,1,0,0l0,0v0a0,0,0,0,1,0,0v.1a0,0,0,0,1,0,0v0l-1.78,2.52a15.94,15.94,0,0,1-5.74,5.42,15.45,15.45,0,0,1-7.57,1.91,16.83,16.83,0,0,1-11.16-4.31,16.14,16.14,0,0,1-3.74-5.07,15.54,15.54,0,0,1-1.44-6.81,16.43,16.43,0,0,1,1-5.86,15.44,15.44,0,0,1,3.07-5A16.13,16.13,0,0,1,120.5,58h.21m-11.49,5.74a17.12,17.12,0,0,1,4.73-2.43,16.71,16.71,0,0,1,5.27-.84,15.49,15.49,0,0,1,7.4,1.81,15.72,15.72,0,0,1,5.67,5.17l1.39-2A15.5,15.5,0,0,0,128,60.35a14.9,14.9,0,0,0-7.07-1.74h-.41A15.88,15.88,0,0,0,114.32,60a15.72,15.72,0,0,0-5.1,3.71m23,21.13,1.39-2-11.78-7.72-2.23,1.44,12.62,8.27M120.71,57.21h-.22a16.94,16.94,0,0,0-14.16,8.09,16.31,16.31,0,0,0-3.18,5.18,17.32,17.32,0,0,0-1.09,6.15,16.42,16.42,0,0,0,1.52,7.16,17,17,0,0,0,3.92,5.32,17.64,17.64,0,0,0,11.71,4.52,16.33,16.33,0,0,0,8-2,16.82,16.82,0,0,0,6-5.69l1.76-2.5.15-.21v-.06a.88.88,0,0,0,0-.29v-.1a.88.88,0,0,0,0-.29v-.09l-.16-.2a.85.85,0,0,0-.39-.35l-10.7-7,9.06-5.9.07,0,.06-.06,0,0,0,0,0-.05L135,66.17l.09-.13.11-.11v-.77l-.19-.27a17,17,0,0,0-14.27-7.68Zm-2.8,2.52a15.5,15.5,0,0,1,2.62-.3h.38a14.16,14.16,0,0,1,6.69,1.64,14.71,14.71,0,0,1,5.08,4.43l-.4.58a16.19,16.19,0,0,0-13.05-6.39q-.66,0-1.31,0Zm3.2,16.91.73-.47,10.64,7-.45.65-10.91-7.15Z"/><g class="cls-8"><path class="cls-11" d="M164.9,62.08A15.7,15.7,0,0,1,169,67.4,16.31,16.31,0,0,1,170.54,74a15.14,15.14,0,0,1-.27,3.42,15.34,15.34,0,0,1-.94,3,18.78,18.78,0,0,1-1.48,2.77Q167,84.5,166,85.83a.43.43,0,0,0-.12.2.44.44,0,0,1-.12.2A15.74,15.74,0,0,1,160,91.16a16,16,0,0,1-7.32,1.76,15.67,15.67,0,0,1-6.29-1.26,16.31,16.31,0,0,1-8.59-8.59,15.92,15.92,0,0,1-.54-10.94,17.2,17.2,0,0,1,2.05-4.31l.45-.59,1.34-1.88a15.29,15.29,0,0,1,4.8-4.68,15.79,15.79,0,0,1,6.34-2.25,15.48,15.48,0,0,1,6.68.47A16.49,16.49,0,0,1,164.9,62.08Zm3.91,14.75a15.46,15.46,0,0,1-.17,2.33,19.81,19.81,0,0,1-.47,2.23,18.9,18.9,0,0,0,1.36-3.44,12.33,12.33,0,0,0,.42-4,15.59,15.59,0,0,0-1.51-6.29,15.65,15.65,0,0,0-9.63-8.19,15.54,15.54,0,0,0-11.68,1.24,16.1,16.1,0,0,0-4.31,3.39,16.35,16.35,0,0,1,4.63-2.5,16,16,0,0,1,5.27-.87A15.55,15.55,0,0,1,159,62a16.31,16.31,0,0,1,8.59,8.59A15.55,15.55,0,0,1,168.81,76.83Z"/></g><path class="cls-12" d="M154.58,58.25a15.39,15.39,0,0,1,4.38.64,16.49,16.49,0,0,1,5.94,3.19A15.7,15.7,0,0,1,169,67.4,16.31,16.31,0,0,1,170.54,74a15.14,15.14,0,0,1-.27,3.42,15.34,15.34,0,0,1-.94,3,18.78,18.78,0,0,1-1.48,2.77Q167,84.5,166,85.83a.43.43,0,0,0-.12.2.44.44,0,0,1-.12.2A15.74,15.74,0,0,1,160,91.16a16,16,0,0,1-7.32,1.76,15.67,15.67,0,0,1-6.29-1.26,16.31,16.31,0,0,1-8.59-8.59,15.92,15.92,0,0,1-.54-10.94,17.2,17.2,0,0,1,2.05-4.31l.45-.59,1.34-1.88a15.29,15.29,0,0,1,4.8-4.68,15.79,15.79,0,0,1,6.34-2.25,16,16,0,0,1,2.3-.17m-11.75,5.86a16.35,16.35,0,0,1,4.63-2.5,16,16,0,0,1,5.27-.87A15.55,15.55,0,0,1,159,62a16.31,16.31,0,0,1,8.59,8.59,15.95,15.95,0,0,1,1.09,8.56,19.81,19.81,0,0,1-.47,2.23,18.9,18.9,0,0,0,1.36-3.44,12.33,12.33,0,0,0,.42-4,15.59,15.59,0,0,0-1.51-6.29,15.65,15.65,0,0,0-9.63-8.19,15.45,15.45,0,0,0-4.31-.62,15.72,15.72,0,0,0-2.13.15,15.46,15.46,0,0,0-5.25,1.71,16.1,16.1,0,0,0-4.31,3.39m11.75-6.67h0a16.93,16.93,0,0,0-2.42.18A16.66,16.66,0,0,0,145.52,60a16.17,16.17,0,0,0-5.05,4.92l-1.32,1.86-.43.58,0,0v0a18.09,18.09,0,0,0-2.15,4.51,16.73,16.73,0,0,0,.57,11.5,17.12,17.12,0,0,0,9,9,16.55,16.55,0,0,0,6.61,1.33,16.86,16.86,0,0,0,7.69-1.84,16.61,16.61,0,0,0,6-5.13,1.25,1.25,0,0,0,.24-.39h0l0-.06c.63-.9,1.24-1.8,1.82-2.7a19.69,19.69,0,0,0,1.55-2.89,16.23,16.23,0,0,0,1-3.18,16,16,0,0,0,.29-3.6,17.19,17.19,0,0,0-1.64-6.88,16.58,16.58,0,0,0-4.29-5.59,17.39,17.39,0,0,0-6.23-3.35,16.27,16.27,0,0,0-4.61-.67Zm-3,2.53.87-.15a15,15,0,0,1,2-.14,14.7,14.7,0,0,1,4.08.58A14.84,14.84,0,0,1,167.7,68,14.77,14.77,0,0,1,169,72.14a15.94,15.94,0,0,0-.67-1.88,17.12,17.12,0,0,0-9-9,16.43,16.43,0,0,0-6.56-1.33q-.56,0-1.1,0Z"/><g class="cls-8"><path class="cls-13" d="M197.37,90.09l0,0v.1l-1.78,2.47,0,0,0,0a.1.1,0,0,0-.07,0,.1.1,0,0,1-.07,0H173.46q-.3,0-.3-.35V60.84l0,0v-.1L175,58.22a0,0,0,0,1,0,0l0,0h.1l0,0H187c.2,0,.3.12.3.35V79.9l10,9.95v0a0,0,0,0,1,0,0l0,0v.1Zm-10.59-9.9a.28.28,0,0,1-.1-.2V58.71H175.39l-1.34,1.88H184.7a.26.26,0,0,1,.3.3V82.37l10.24,9.7,1.44-2Z"/></g><path class="cls-14" d="M187,58.07c.2,0,.3.12.3.35V79.9l10,9.95v0a0,0,0,0,1,0,0l0,0v.1l0,0v.1l-1.78,2.47,0,0,0,0a.1.1,0,0,0-.07,0,.1.1,0,0,1-.07,0H173.46q-.3,0-.3-.35V60.84l0,0v-.1L175,58.22a0,0,0,0,1,0,0l0,0h.1l0,0H187m-12.92,2.52H184.7a.26.26,0,0,1,.3.3V82.37l10.24,9.7,1.44-2-9.9-9.9a.28.28,0,0,1-.1-.2V58.71H175.39l-1.34,1.88M187,57.26H174.91l0,0h0l-.19.13a.85.85,0,0,0-.4.4l-1.71,2.38-.15.21v0l0,0v32a1.09,1.09,0,0,0,1.11,1.16h21.83a1,1,0,0,0,.3,0h.18l.24-.24,0,0,0,0,0,0,0-.05L198,90.71l.15-.21v0l0,0v-.67l-.1-.14v-.06l-.24-.29-9.76-9.71V58.42A1.09,1.09,0,0,0,187,57.26Zm-11.16,2.27h10.05V80a1.07,1.07,0,0,0,.34.78l9.4,9.4-.48.67L185.81,82V60.89a1.07,1.07,0,0,0-1.11-1.11h-9.07l.18-.25Z"/><g class="cls-8"><path class="cls-15" d="M227.46,62.08a15.71,15.71,0,0,1,4.08,5.32A16.31,16.31,0,0,1,233.1,74a15.12,15.12,0,0,1-.27,3.42,15.32,15.32,0,0,1-.94,3,18.76,18.76,0,0,1-1.48,2.77q-.87,1.34-1.81,2.67a.44.44,0,0,0-.12.2.44.44,0,0,1-.12.2,15.74,15.74,0,0,1-5.74,4.92,16,16,0,0,1-7.33,1.76A15.67,15.67,0,0,1,209,91.65a16.31,16.31,0,0,1-8.59-8.59,15.92,15.92,0,0,1-.54-10.94,17.18,17.18,0,0,1,2.05-4.31l.45-.59,1.34-1.88a15.29,15.29,0,0,1,4.8-4.68,15.79,15.79,0,0,1,6.34-2.25,15.48,15.48,0,0,1,6.68.47A16.5,16.5,0,0,1,227.46,62.08Zm3.91,14.75a15.48,15.48,0,0,1-.17,2.33,19.77,19.77,0,0,1-.47,2.23,18.91,18.91,0,0,0,1.36-3.44,12.34,12.34,0,0,0,.42-4A15.58,15.58,0,0,0,231,67.67a15.65,15.65,0,0,0-9.63-8.19,15.54,15.54,0,0,0-11.68,1.24,16.09,16.09,0,0,0-4.31,3.39,16.34,16.34,0,0,1,4.63-2.5,16,16,0,0,1,5.27-.87A15.55,15.55,0,0,1,221.52,62a16.31,16.31,0,0,1,8.59,8.59A15.55,15.55,0,0,1,231.37,76.83Z"/></g><path class="cls-16" d="M217.13,58.25a15.39,15.39,0,0,1,4.38.64,16.5,16.5,0,0,1,5.94,3.19,15.71,15.71,0,0,1,4.08,5.32A16.31,16.31,0,0,1,233.1,74a15.12,15.12,0,0,1-.27,3.42,15.32,15.32,0,0,1-.94,3,18.76,18.76,0,0,1-1.48,2.77q-.87,1.34-1.81,2.67a.44.44,0,0,0-.12.2.44.44,0,0,1-.12.2,15.74,15.74,0,0,1-5.74,4.92,16,16,0,0,1-7.33,1.76A15.67,15.67,0,0,1,209,91.65a16.31,16.31,0,0,1-8.59-8.59,15.92,15.92,0,0,1-.54-10.94,17.18,17.18,0,0,1,2.05-4.31l.45-.59,1.34-1.88a15.29,15.29,0,0,1,4.8-4.68,15.79,15.79,0,0,1,6.34-2.25,16,16,0,0,1,2.3-.17m-11.75,5.86a16.34,16.34,0,0,1,4.63-2.5,16,16,0,0,1,5.27-.87A15.55,15.55,0,0,1,221.52,62a16.31,16.31,0,0,1,8.59,8.59,16,16,0,0,1,1.09,8.56,19.77,19.77,0,0,1-.47,2.23,18.91,18.91,0,0,0,1.36-3.44,12.34,12.34,0,0,0,.42-4A15.59,15.59,0,0,0,231,67.67a15.65,15.65,0,0,0-9.63-8.19,15.44,15.44,0,0,0-4.31-.62,15.72,15.72,0,0,0-2.13.15,15.46,15.46,0,0,0-5.25,1.71,16.09,16.09,0,0,0-4.31,3.39m11.75-6.67h0a16.93,16.93,0,0,0-2.41.18A16.66,16.66,0,0,0,208.07,60,16.17,16.17,0,0,0,203,64.9l-1.32,1.86-.43.58a18.11,18.11,0,0,0-2.18,4.55,16.73,16.73,0,0,0,.57,11.5,17.12,17.12,0,0,0,9,9,16.55,16.55,0,0,0,6.61,1.33A16.86,16.86,0,0,0,223,91.88a16.62,16.62,0,0,0,6-5.13,1.25,1.25,0,0,0,.24-.39h0l0-.06c.63-.9,1.24-1.8,1.82-2.7a19.67,19.67,0,0,0,1.55-2.89,16.21,16.21,0,0,0,1-3.18,16,16,0,0,0,.29-3.6,17.2,17.2,0,0,0-1.64-6.88A16.58,16.58,0,0,0,228,61.46a17.39,17.39,0,0,0-6.24-3.35,16.27,16.27,0,0,0-4.61-.67Zm-3,2.53.87-.15a15,15,0,0,1,2-.14,14.7,14.7,0,0,1,4.08.58A14.84,14.84,0,0,1,230.26,68a14.78,14.78,0,0,1,1.26,4.12,15.94,15.94,0,0,0-.67-1.88,17.12,17.12,0,0,0-9-9,16.43,16.43,0,0,0-6.56-1.33q-.56,0-1.1,0Z"/><g class="cls-8"><path class="cls-17" d="M258,88.85a0,0,0,0,1,0,0,14.07,14.07,0,0,1-4.28,2.94,12.37,12.37,0,0,1-5.07,1.06,12.79,12.79,0,0,1-4.95-1,13,13,0,0,1-6.9-6.61,12.56,12.56,0,0,1-1.16-4.9q-.15-3.27-.15-6.56t0-6.56q0-1.58.07-3.17t0-3.17v0a.14.14,0,0,1,0-.1l1.73-2.47a.23.23,0,0,1,.25-.15h26a.26.26,0,0,1,.3.3V71.09q-.1,1.48,0,3.07t0,3.17a20.18,20.18,0,0,1-.4,3.14,9.83,9.83,0,0,1-1.16,3A22,22,0,0,1,258,88.85ZM236.46,60.69h24.89a.26.26,0,0,1,.3.3v3.19q0,1.61,0,3.19,0,3.27,0,6.53t-.1,6.53a13.84,13.84,0,0,1-1.14,4.7l.67-1a6.76,6.76,0,0,0,.57-1,9.82,9.82,0,0,0,1-2.38,13.63,13.63,0,0,0,.42-2.6q.1-1.41.1-3.12t0-4V58.81H237.8Z"/></g><path class="cls-18" d="M263.63,58.22a.26.26,0,0,1,.3.3V71.09q-.1,1.48,0,3.07t0,3.17a20.18,20.18,0,0,1-.4,3.14,9.83,9.83,0,0,1-1.16,3A22,22,0,0,1,258,88.85a0,0,0,0,1,0,0,14.07,14.07,0,0,1-4.28,2.94,12.37,12.37,0,0,1-5.07,1.06,12.79,12.79,0,0,1-4.95-1,13,13,0,0,1-6.9-6.61,12.56,12.56,0,0,1-1.16-4.9q-.15-3.27-.15-6.56t0-6.56q0-1.58.07-3.17t0-3.17v0a.14.14,0,0,1,0-.1l1.73-2.47a.23.23,0,0,1,.25-.15h26m-27.17,2.47h24.89a.26.26,0,0,1,.3.3v3.19q0,1.61,0,3.19,0,3.27,0,6.53t-.1,6.53a13.84,13.84,0,0,1-1.14,4.7l.67-1a6.76,6.76,0,0,0,.57-1,9.82,9.82,0,0,0,1-2.38,13.64,13.64,0,0,0,.42-2.6q.1-1.41.1-3.12t0-4V58.81H237.8l-1.34,1.88m27.17-3.29h-26a1,1,0,0,0-1,.56L235,60.34a.94.94,0,0,0-.22.6c0,1.1,0,2.15,0,3.2s0,2.1-.07,3.15c0,2.17-.05,4.38-.05,6.58s.05,4.41.15,6.59A13.42,13.42,0,0,0,236,85.68a13.81,13.81,0,0,0,7.33,7,13.66,13.66,0,0,0,5.26,1,13.24,13.24,0,0,0,5.4-1.13,14.94,14.94,0,0,0,4.42-3,.85.85,0,0,0,.24-.23,22.9,22.9,0,0,0,4.3-5.49,10.66,10.66,0,0,0,1.25-3.23,21.1,21.1,0,0,0,.41-3.27c0-1.06.06-2.15,0-3.23s0-2,0-3V58.51a1.07,1.07,0,0,0-1.11-1.11Zm-25.41,2.22h24.31v7.74c0-1.05,0-2.12,0-3.18V61a1.07,1.07,0,0,0-1.11-1.11H238l.18-.25Z"/><g class="cls-8"><path class="cls-19" d="M290.51,78.26A10.41,10.41,0,0,1,287.69,81a12.24,12.24,0,0,1-4.06,1.66l-.1,0-.1,0,8.07,7.82v0h0v.15l0,0,0,0v0l0,0v0h0l-2.23,1.93a.2.2,0,0,1-.15,0v0H267.49q-.35,0-.35-.3V61l0,0v0a.14.14,0,0,1,0-.1l2.28-2.47h0a0,0,0,0,1,0,0v0h14a2.61,2.61,0,0,0,.59,0c.26.07.5.12.72.15a5.6,5.6,0,0,1,.67.15q.69.2,1.34.42a6.59,6.59,0,0,1,1.29.62,9.21,9.21,0,0,1,4.11,3.86,13.59,13.59,0,0,1,1.46,4.58,11.11,11.11,0,0,1-.22,3.89,13.41,13.41,0,0,1-1.29,3.29q-.84,1.51-1.63,2.75a0,0,0,0,1,0,0s0,.08-.1.15Zm-7.82-19.4H269.92l-1.78,1.88h12.92a.29.29,0,0,1,.2,0q.49,0,1.14.07a3.72,3.72,0,0,1,.94.12,9.08,9.08,0,0,1,2.28.69,13.23,13.23,0,0,1,2,1.19,12.32,12.32,0,0,1,1.73,1.53,10.24,10.24,0,0,1,2.87,8.66q-.05.4-.1.74a7.35,7.35,0,0,1-.15.74,17,17,0,0,0,.87-2.23,9.64,9.64,0,0,0,.42-2.52A11,11,0,0,0,293,67a13.51,13.51,0,0,0-1.19-3.14,6.46,6.46,0,0,0-1.46-2A12.2,12.2,0,0,0,288,60.2q-.64-.35-1.24-.59a7.36,7.36,0,0,0-1.29-.4,3.8,3.8,0,0,0-.62-.15q-.32,0-.72-.15a2.32,2.32,0,0,1-.54,0h-.89Zm.1,24.05a0,0,0,0,1,0,0,23.32,23.32,0,0,1-3.17.3l9.4,9.16,1.83-1.58Z"/></g><path class="cls-20" d="M283.63,58.27a2.61,2.61,0,0,0,.59,0c.26.07.5.12.72.15a5.6,5.6,0,0,1,.67.15q.69.2,1.34.42a6.59,6.59,0,0,1,1.29.62,9.21,9.21,0,0,1,4.11,3.86,13.59,13.59,0,0,1,1.46,4.58,11.11,11.11,0,0,1-.22,3.89,13.41,13.41,0,0,1-1.29,3.29q-.84,1.51-1.63,2.75a0,0,0,0,1,0,0s0,.08-.1.15v0A10.41,10.41,0,0,1,287.69,81a12.24,12.24,0,0,1-4.06,1.66l-.1,0-.1,0,8.07,7.82v0h0v.15l0,0,0,0v0l0,0v0h0l-2.23,1.93a.2.2,0,0,1-.15,0v0H267.49q-.35,0-.35-.3V61l0,0v0a.14.14,0,0,1,0-.1l2.28-2.47h0a0,0,0,0,1,0,0v0h14m-15.49,2.47h12.92a.29.29,0,0,1,.2,0q.49,0,1.14.07a3.72,3.72,0,0,1,.94.12,9.08,9.08,0,0,1,2.28.69,13.23,13.23,0,0,1,2,1.19,12.32,12.32,0,0,1,1.73,1.53,10.24,10.24,0,0,1,2.87,8.66q-.05.4-.1.74a7.36,7.36,0,0,1-.15.74,17,17,0,0,0,.87-2.23,9.64,9.64,0,0,0,.42-2.52A11,11,0,0,0,293,67a13.51,13.51,0,0,0-1.19-3.14,6.46,6.46,0,0,0-1.46-2A12.2,12.2,0,0,0,288,60.2q-.64-.35-1.24-.59a7.37,7.37,0,0,0-1.29-.4,3.8,3.8,0,0,0-.62-.15q-.32,0-.72-.15a2.32,2.32,0,0,1-.54,0H269.92l-1.78,1.88M289,92.32l1.83-1.58-8-7.82a0,0,0,0,1,0,0,23.32,23.32,0,0,1-3.17.3l9.4,9.16m-5.24-34.86H268.86l0,.46-2.18,2.37a.88.88,0,0,0-.19.29l-.12.12v32a1.09,1.09,0,0,0,1.16,1.11h22.39v-.41l1.87-1.62h.51l0-.51.07-.07v-.05l.38-.39-.38-.38v-.58l-.46,0L285,83.13a12.25,12.25,0,0,0,3.11-1.44,11.27,11.27,0,0,0,3-3l.15-.21h0a.85.85,0,0,0,.08-.14c.52-.81,1.05-1.72,1.6-2.7a14.28,14.28,0,0,0,1.37-3.49,12,12,0,0,0,.24-4.17,14.45,14.45,0,0,0-1.54-4.86,10,10,0,0,0-4.45-4.21,7.21,7.21,0,0,0-1.4-.67c-.44-.15-.9-.3-1.38-.43a6.45,6.45,0,0,0-.77-.17c-.19,0-.4-.07-.64-.13l-.1,0h-.1a1.89,1.89,0,0,1-.39,0l-.1,0Zm-13.46,2.22h13.22a3.19,3.19,0,0,0,.53,0c.25.06.49.11.7.14a3,3,0,0,1,.48.12h.09a6.58,6.58,0,0,1,1.15.35c.37.15.76.34,1.17.56a11.43,11.43,0,0,1,2.19,1.52,5.68,5.68,0,0,1,1.28,1.73,12.86,12.86,0,0,1,1.12,3,13,13,0,0,0-4.07-4.9A14.11,14.11,0,0,0,286,60.95a9.88,9.88,0,0,0-2.44-.75,4.64,4.64,0,0,0-1.1-.14l-.95-.06a1.25,1.25,0,0,0-.42-.07H270l.24-.25Zm11.18,24.18,1-.12,7.14,7-.6.52-7.56-7.36Z"/><path class="cls-21" d="M126.29,122.9a9.6,9.6,0,0,1,2.52,4.87,9.44,9.44,0,0,1-.54,5.47l0,0a.2.2,0,0,1,0,.15c0,.07,0,.1,0,.1v0a17.83,17.83,0,0,1-3.32,4.95l-.15.15a8.58,8.58,0,0,1-4,2.7,16.31,16.31,0,0,1-4.28.57l-.92,0-.92,0-.92,0-1,0H100a.28.28,0,0,1-.2,0,0,0,0,0,1,0,0l0,0v-.1l0,0h0v-.15h0l1.73-2.52,9.8-13.12h-.49a2.55,2.55,0,0,0-.49,0l-2.33,0a10,10,0,0,1-2.23-.3,7.79,7.79,0,0,1-2.15-.92,7.31,7.31,0,0,1-2-1.88,7.79,7.79,0,0,1-1.71-4,8,8,0,0,1,.67-4.33l0,0,.15-.3a12.59,12.59,0,0,1,1.31-2.3,16.79,16.79,0,0,1,1.76-2.05,8.24,8.24,0,0,1,1.93-1.56,7.22,7.22,0,0,1,2-.74,10,10,0,0,1,2.15-.22h15.44a0,0,0,0,0,0,0h0v0h0v0l0,0v.2l0,0v0l-1.73,2.47-7.32,9.75h.35q1.29,0,2.52,0a13.76,13.76,0,0,1,2.45.32,9.49,9.49,0,0,1,2.38.89A8.56,8.56,0,0,1,126.29,122.9Zm-13.91-15.14h-2.28a12.08,12.08,0,0,0-2.08.17,6.57,6.57,0,0,0-1.93.67,7.41,7.41,0,0,0-1.88,1.48,3.29,3.29,0,0,0-.42.4q-.17.2-.32.4a5.68,5.68,0,0,1,1.71-.84,10.74,10.74,0,0,1,1.76-.35,16.41,16.41,0,0,1,1.81-.1h14.53l1.29-1.88H114.22l-.92,0Zm13.12,18.81a9.58,9.58,0,0,1,1.61,4,9.81,9.81,0,0,1-.27,4.21,6.17,6.17,0,0,0,.42-.79q.17-.4.37-.79a8.81,8.81,0,0,0,.59-5.2,9.28,9.28,0,0,0-2.38-4.7,9.07,9.07,0,0,0-2.1-1.68,8,8,0,0,0-2.2-.84,13.73,13.73,0,0,0-2.35-.3q-1.21,0-2.5,0h-.79l-1.39,1.88h.25q1.53,0,3,0a11.48,11.48,0,0,1,2.82.45,8.52,8.52,0,0,1,2.57,1.26A10.19,10.19,0,0,1,125.5,126.56Z"/><path class="cls-22" d="M153.22,114.78V139c0,.13,0,.22-.1.25l-2.47,2.47-.1,0-.1,0H139.31a.26.26,0,0,1-.3-.3V121.11l-7.32,3.27a.22.22,0,0,1-.3,0,.23.23,0,0,1-.15-.25V109.93a.1.1,0,0,1,0-.07.1.1,0,0,0,0-.07l1.78-2.47a.23.23,0,0,1,.25-.15h31.87a.29.29,0,0,1,.25.15.33.33,0,0,1,0,.35l-1.78,2.47-.1.1Zm-21.08-5.15h31.13l1.34-1.88H133.47Zm20.49,5.44-1.88.84v24.89l1.88-1.88Z"/><path class="cls-23" d="M191.42,127.25A10.41,10.41,0,0,1,188.6,130a12.24,12.24,0,0,1-4.06,1.66l-.1,0-.1,0,8.07,7.82v0h0v.15l0,0,0,0v0l0,0v0h0l-2.23,1.93a.2.2,0,0,1-.15,0v0H168.41q-.35,0-.35-.3V110l0,0v0a.14.14,0,0,1,0-.1l2.28-2.47h0a0,0,0,0,1,0,0v0h14a2.61,2.61,0,0,0,.59,0q.4.1.72.15a5.6,5.6,0,0,1,.67.15q.69.2,1.34.42a6.59,6.59,0,0,1,1.29.62,9.21,9.21,0,0,1,4.11,3.86,13.59,13.59,0,0,1,1.46,4.58,11.11,11.11,0,0,1-.22,3.89,13.42,13.42,0,0,1-1.29,3.29q-.84,1.51-1.63,2.75a0,0,0,0,1,0,0s0,.08-.1.15Zm-7.82-19.4H170.83l-1.78,1.88H182a.29.29,0,0,1,.2,0q.49,0,1.14.07a3.72,3.72,0,0,1,.94.12,9.09,9.09,0,0,1,2.28.69,13.24,13.24,0,0,1,2,1.19,12.33,12.33,0,0,1,1.73,1.53,10.24,10.24,0,0,1,2.87,8.66q0,.4-.1.74a7.52,7.52,0,0,1-.15.74,17,17,0,0,0,.87-2.23,9.62,9.62,0,0,0,.42-2.52,11,11,0,0,0-.3-2.85,13.52,13.52,0,0,0-1.19-3.14,6.45,6.45,0,0,0-1.46-2,12.19,12.19,0,0,0-2.35-1.63q-.64-.35-1.24-.59a7.37,7.37,0,0,0-1.29-.4,3.81,3.81,0,0,0-.62-.15q-.32,0-.72-.15a2.32,2.32,0,0,1-.54,0h-.89Zm.1,24.05a0,0,0,0,1,0,0,23.32,23.32,0,0,1-3.17.3l9.4,9.16,1.83-1.58Z"/><path class="cls-24" d="M225.72,130.22v9.06l-.05,0-1.78,2.52-.05,0a0,0,0,0,0,0,0H198.1a.26.26,0,0,1-.3-.3V109.88l0,0,1.78-2.47v0l0,0h0l0,0h23.61a.26.26,0,0,1,.3.3v9a0,0,0,0,1,0,0v0l-2.13,2.47a.33.33,0,0,1-.25.1H217.9v4.55a.1.1,0,0,1,0,.07.1.1,0,0,0,0,.07l0,0v0l-2.52,2.47-.1,0-.1,0h-4.26V130h14.7l.05,0h0l0,0v0a0,0,0,0,1,.05,0ZM223.1,107.8H200l-1.34,1.88h22.42a.26.26,0,0,1,.3.3v8.31l1.68-2Zm-12.57,22.77a.26.26,0,0,1-.3-.3v-3.71H208.5v5.89h15l1.34-1.88Zm6.73-11.38h-1.88v6.34l1.88-1.88Zm7.87,12L224,132.84v7.87l1.14-1.63Z"/><path class="cls-25" d="M260.07,139.08v0l0,0-1.68,2.43a.32.32,0,0,1-.3.2l0,0-15-3.42-.74,1.48v0l-.1.1-2.92,1.78a.1.1,0,0,0-.07,0,.19.19,0,0,1-.12,0H228.1a.23.23,0,0,1-.25-.15.25.25,0,0,1,0-.3l14.95-31.68a0,0,0,0,0,0,0l1.73-2.47h0v0a0,0,0,0,0,0,0h.3l0,0,0,0,0,0,14.95,31.67v0l0,0,0,0Zm-17.67-.89-1.29-.3-1.34,2.82,2-1.24Zm17,.79-14.65-31-1.34,1.88,14.65,31.08Z"/><path class="cls-26" d="M298.57,107.75a0,0,0,0,1,0,0v31.43l0,0v0l0,0-2.62,2.43a0,0,0,0,0,0,0h0a.14.14,0,0,0-.1,0H262.49a.26.26,0,0,1-.3-.3V109.78h0v0l1.73-2.47h0v0a.14.14,0,0,1,.1,0h.2l0,0h0l0,0,16.48,20,14.45-17.52,0,0v0h0l2.62-2.08h0l0,0h.2l0,0a0,0,0,0,1,0,0h0v.1Zm-35.73,2.13,16.23,19.75,1.53-1.83-16.38-19.85Zm33.16,31,2-1.88V108.44l-2,1.63Z"/><g class="cls-27"><path class="cls-28" d="M146.31,166.89v2.46c0,3-1.48,4.65-4.33,4.65s-4.33-1.69-4.33-4.65v-9.62c0-3,1.48-4.65,4.33-4.65s4.33,1.69,4.33,4.65v1.8h-2.75v-2c0-1.32-.58-1.82-1.51-1.82s-1.51.5-1.51,1.82v10c0,1.32.58,1.8,1.51,1.8s1.51-.48,1.51-1.8v-2.64Z"/></g><path class="cls-29" d="M142,155.08c2.85,0,4.33,1.69,4.33,4.65v1.8h-2.75v-2c0-1.32-.58-1.82-1.51-1.82s-1.51.5-1.51,1.82v10c0,1.32.58,1.8,1.51,1.8s1.51-.48,1.51-1.8v-2.64h2.75v2.46c0,3-1.48,4.65-4.33,4.65s-4.33-1.69-4.33-4.65v-9.62c0-3,1.48-4.65,4.33-4.65m0-.56c-3.11,0-4.9,1.9-4.9,5.21v9.62c0,3.31,1.78,5.21,4.9,5.21s4.9-1.9,4.9-5.21v-3H143v3.2c0,1.14-.45,1.24-.95,1.24s-.95-.09-.95-1.24v-10c0-1.17.49-1.26.95-1.26s.95.1.95,1.26v2.54h3.87v-2.36c0-3.31-1.78-5.21-4.9-5.21Z"/><g class="cls-27"><path class="cls-30" d="M149.24,159.73c0-3,1.56-4.65,4.41-4.65s4.41,1.69,4.41,4.65v9.62c0,3-1.56,4.65-4.41,4.65s-4.41-1.69-4.41-4.65Zm2.91,9.81c0,1.32.58,1.82,1.51,1.82s1.51-.5,1.51-1.82v-10c0-1.32-.58-1.82-1.51-1.82s-1.51.5-1.51,1.82Z"/></g><path class="cls-31" d="M153.66,155.08c2.86,0,4.41,1.69,4.41,4.65v9.62c0,3-1.56,4.65-4.41,4.65s-4.41-1.69-4.41-4.65v-9.62c0-3,1.56-4.65,4.41-4.65m0,16.28c.93,0,1.51-.5,1.51-1.82v-10c0-1.32-.58-1.82-1.51-1.82s-1.51.5-1.51,1.82v10c0,1.32.58,1.82,1.51,1.82m0-16.84c-3.16,0-5,1.9-5,5.21v9.62c0,3.31,1.81,5.21,5,5.21s5-1.9,5-5.21v-9.62c0-3.31-1.81-5.21-5-5.21Zm0,16.28c-.46,0-.95-.1-.95-1.26v-10c0-1.17.49-1.26.95-1.26s.95.1.95,1.26v10c0,1.16-.49,1.26-.95,1.26Z"/><g class="cls-27"><path class="cls-32" d="M167.48,168.42h.05l2-13.14h4v18.5h-2.75V160.52h-.05l-2,13.27H166l-2.11-13.08h-.05v13.08h-2.54v-18.5h4Z"/></g><path class="cls-33" d="M173.53,155.29v18.5h-2.75V160.52h-.05l-2,13.27H166l-2.11-13.08h-.05v13.08h-2.54v-18.5h4l2.11,13.14h.05l2-13.14h4m.56-.56H169l-.07.48-1.45,9.73-1.57-9.73-.08-.47h-5.08v19.62h3.66v-7l1.05,6.51.08.47h3.71l.07-.48.89-6.06v6.54h3.87V154.72Z"/><g class="cls-27"><path class="cls-34" d="M177,155.29H180v18.5H177Z"/></g><path class="cls-35" d="M180,155.29v18.5H177v-18.5H180m.56-.56h-4v19.62h4V154.72Z"/><g class="cls-27"><path class="cls-36" d="M186.11,160.39h-.05v13.4h-2.62v-18.5h3.65L190,166.36h.05V155.29h2.59v18.5h-3Z"/></g><path class="cls-37" d="M192.67,155.29v18.5h-3l-3.57-13.4h-.05v13.4h-2.62v-18.5h3.65L190,166.36h.05V155.29h2.59m.56-.56h-3.71v7.53l-1.88-7.11-.11-.42h-4.64v19.62h3.74v-9.87l2.52,9.46.11.42h4V154.72Z"/><g class="cls-27"><path class="cls-38" d="M200.52,163.48h4.07v5.87c0,3-1.48,4.65-4.33,4.65s-4.33-1.69-4.33-4.65v-9.62c0-3,1.48-4.65,4.33-4.65s4.33,1.69,4.33,4.65v1.8h-2.75v-2c0-1.32-.58-1.82-1.51-1.82s-1.51.5-1.51,1.82v10c0,1.32.58,1.8,1.51,1.8s1.51-.48,1.51-1.8v-3.41h-1.32Z"/></g><path class="cls-39" d="M200.25,155.08c2.85,0,4.33,1.69,4.33,4.65v1.8h-2.75v-2c0-1.32-.58-1.82-1.51-1.82s-1.51.5-1.51,1.82v10c0,1.32.58,1.8,1.51,1.8s1.51-.48,1.51-1.8v-3.41h-1.32v-2.64h4.07v5.87c0,3-1.48,4.65-4.33,4.65s-4.33-1.69-4.33-4.65v-9.62c0-3,1.48-4.65,4.33-4.65m0-.56c-3.11,0-4.9,1.9-4.9,5.21v9.62c0,3.31,1.78,5.21,4.9,5.21s4.9-1.9,4.9-5.21v-6.43H200v3.77h1.32v2.85c0,1.14-.45,1.24-.95,1.24s-.95-.09-.95-1.24v-10c0-1.17.49-1.26.95-1.26s.95.1.95,1.26v2.54h3.87v-2.36c0-3.31-1.78-5.21-4.9-5.21Z"/><g class="cls-27"><path class="cls-40" d="M217.28,155.08c2.83,0,4.28,1.69,4.28,4.65v.58h-2.75v-.77c0-1.32-.53-1.82-1.45-1.82s-1.45.5-1.45,1.82.58,2.35,2.48,4c2.43,2.14,3.2,3.67,3.2,5.79,0,3-1.48,4.65-4.34,4.65s-4.33-1.69-4.33-4.65v-1.14h2.75v1.32c0,1.32.58,1.8,1.51,1.8s1.51-.48,1.51-1.8-.58-2.35-2.48-4c-2.43-2.14-3.2-3.67-3.2-5.79C213,156.77,214.45,155.08,217.28,155.08Z"/></g><path class="cls-41" d="M217.28,155.08c2.83,0,4.28,1.69,4.28,4.65v.58h-2.75v-.77c0-1.32-.53-1.82-1.45-1.82s-1.45.5-1.45,1.82.58,2.35,2.48,4c2.43,2.14,3.2,3.67,3.2,5.79,0,3-1.48,4.65-4.34,4.65s-4.33-1.69-4.33-4.65v-1.14h2.75v1.32c0,1.32.58,1.8,1.51,1.8s1.51-.48,1.51-1.8-.58-2.35-2.48-4c-2.43-2.14-3.2-3.67-3.2-5.79,0-3,1.45-4.65,4.28-4.65m0-.56c-3.08,0-4.84,1.9-4.84,5.21,0,2.35.92,4,3.39,6.21,1.94,1.7,2.29,2.54,2.29,3.6s-.45,1.24-.95,1.24-.95-.09-.95-1.24v-1.88h-3.87v1.7c0,3.31,1.78,5.21,4.9,5.21s4.9-1.9,4.9-5.21c0-2.35-.92-4-3.39-6.21-1.94-1.7-2.29-2.54-2.29-3.6s.42-1.26.89-1.26.89.1.89,1.26v1.33h3.87v-1.14c0-3.31-1.77-5.21-4.84-5.21Z"/><g class="cls-27"><path class="cls-42" d="M224.41,159.73c0-3,1.56-4.65,4.41-4.65s4.41,1.69,4.41,4.65v9.62c0,3-1.56,4.65-4.41,4.65s-4.41-1.69-4.41-4.65Zm2.91,9.81c0,1.32.58,1.82,1.51,1.82s1.51-.5,1.51-1.82v-10c0-1.32-.58-1.82-1.51-1.82s-1.51.5-1.51,1.82Z"/></g><path class="cls-43" d="M228.83,155.08c2.85,0,4.41,1.69,4.41,4.65v9.62c0,3-1.56,4.65-4.41,4.65s-4.41-1.69-4.41-4.65v-9.62c0-3,1.56-4.65,4.41-4.65m0,16.28c.92,0,1.51-.5,1.51-1.82v-10c0-1.32-.58-1.82-1.51-1.82s-1.51.5-1.51,1.82v10c0,1.32.58,1.82,1.51,1.82m0-16.84c-3.16,0-5,1.9-5,5.21v9.62c0,3.31,1.81,5.21,5,5.21s5-1.9,5-5.21v-9.62c0-3.31-1.81-5.21-5-5.21Zm0,16.28c-.48,0-.95-.1-.95-1.26v-10c0-1.17.47-1.26.95-1.26s.95.1.95,1.26v10c0,1.16-.49,1.26-.95,1.26Z"/><g class="cls-27"><path class="cls-44" d="M236.28,159.73c0-3,1.56-4.65,4.41-4.65s4.41,1.69,4.41,4.65v9.62c0,3-1.56,4.65-4.41,4.65s-4.41-1.69-4.41-4.65Zm2.91,9.81c0,1.32.58,1.82,1.51,1.82s1.51-.5,1.51-1.82v-10c0-1.32-.58-1.82-1.51-1.82s-1.51.5-1.51,1.82Z"/></g><path class="cls-45" d="M240.69,155.08c2.85,0,4.41,1.69,4.41,4.65v9.62c0,3-1.56,4.65-4.41,4.65s-4.41-1.69-4.41-4.65v-9.62c0-3,1.56-4.65,4.41-4.65m0,16.28c.92,0,1.51-.5,1.51-1.82v-10c0-1.32-.58-1.82-1.51-1.82s-1.51.5-1.51,1.82v10c0,1.32.58,1.82,1.51,1.82m0-16.84c-3.16,0-5,1.9-5,5.21v9.62c0,3.31,1.81,5.21,5,5.21s5-1.9,5-5.21v-9.62c0-3.31-1.81-5.21-5-5.21Zm0,16.28c-.48,0-.95-.1-.95-1.26v-10c0-1.17.47-1.26.95-1.26s.95.1.95,1.26v10c0,1.16-.49,1.26-.95,1.26Z"/><g class="cls-27"><path class="cls-46" d="M251,160.39H251v13.4h-2.62v-18.5H252l2.93,11.08H255V155.29h2.59v18.5h-3Z"/></g><path class="cls-47" d="M257.58,155.29v18.5h-3L251,160.39H251v13.4h-2.62v-18.5H252l2.93,11.08H255V155.29h2.59m.56-.56h-3.71v7.53l-1.88-7.11-.11-.42H247.8v19.62h3.74v-9.88l2.52,9.46.11.42h4V154.72Z"/></svg>