<?xml version="1.0" encoding="utf-8"?>
<!-- Generator: Adobe Illustrator 21.1.0, SVG Export Plug-In . SVG Version: 6.00 Build 0)  -->
<svg version="1.1" id="Layer_1" xmlns="http://www.w3.org/2000/svg" xmlns:xlink="http://www.w3.org/1999/xlink" x="0px" y="0px"
	 viewBox="0 0 400 200" style="enable-background:new 0 0 400 200;" xml:space="preserve">
<style type="text/css">
	.st0{fill:url(#SVGID_1_);}
	.st1{opacity:0.14;}
	.st2{fill:#F2860F;}
	.st3{fill:#EFD229;}
	.st4{fill:#51D62B;}
	.st5{fill:#267DDB;}
	.st6{opacity:0.57;}
	.st7{opacity:0.3;}
	.st8{fill:url(#SVGID_2_);}
	.st9{fill:url(#SVGID_3_);}
	.st10{fill:url(#SVGID_4_);}
	.st11{fill:url(#SVGID_5_);}
	.st12{fill:url(#SVGID_6_);}
	.st13{fill:url(#SVGID_7_);}
	.st14{fill:url(#SVGID_8_);}
	.st15{fill:url(#SVGID_9_);}
	.st16{fill:url(#SVGID_10_);}
	.st17{fill:url(#SVGID_11_);}
	.st18{fill:url(#SVGID_12_);}
	.st19{fill:url(#SVGID_13_);}
	
		.st20{fill:url(#SVGID_14_);fill-opacity:0.3;stroke:url(#SVGID_15_);stroke-width:0.813;stroke-miterlimit:10;stroke-opacity:0.99;}
	.st21{fill:url(#SVGID_16_);fill-opacity:0.3;stroke:url(#SVGID_17_);stroke-width:0.8132;stroke-miterlimit:10;}
	.st22{fill:url(#SVGID_18_);fill-opacity:0.3;stroke:url(#SVGID_19_);stroke-width:0.8132;stroke-miterlimit:10;}
	.st23{fill:url(#SVGID_20_);fill-opacity:0.3;stroke:url(#SVGID_21_);stroke-width:0.8132;stroke-miterlimit:10;}
	.st24{fill:url(#SVGID_22_);fill-opacity:0.3;stroke:url(#SVGID_23_);stroke-width:0.8132;stroke-miterlimit:10;}
	.st25{fill:url(#SVGID_24_);fill-opacity:0.3;stroke:url(#SVGID_25_);stroke-width:0.8132;stroke-miterlimit:10;}
	.st26{fill:none;stroke:url(#SVGID_26_);stroke-width:0.813;stroke-miterlimit:10;stroke-opacity:0.99;}
	.st27{fill:#A6A6A6;}
	.st28{fill:#FFFFFF;}
</style>
<linearGradient id="SVGID_1_" gradientUnits="userSpaceOnUse" x1="200" y1="200" x2="200" y2="0">
	<stop  offset="0" style="stop-color:#191919"/>
	<stop  offset="1" style="stop-color:#2D2D2D"/>
</linearGradient>
<rect y="0" class="st0" width="400" height="200"/>
<g>
	<g class="st1">
		<rect x="0" class="st2" width="99.5" height="200"/>
		<rect x="99.5" class="st3" width="100.2" height="200"/>
		<rect x="199.7" class="st4" width="100.2" height="200"/>
		<rect x="299.8" class="st5" width="100.2" height="200"/>
	</g>
	<g class="st6">
		<g>
			<g>
				<path d="M99.5,0.5v99h-99v-99H99.5 M100,0H0v100.1h100V0L100,0z"/>
			</g>
		</g>
		<g>
			<g>
				<path d="M99.5,100.5v99h-99v-99H99.5 M100,100H0v100.1h100V100L100,100z"/>
			</g>
		</g>
		<g>
			<g>
				<path d="M199.5,0.5v99h-99v-99H199.5 M200,0H100v100.1h100V0L200,0z"/>
			</g>
		</g>
		<g>
			<g>
				<path d="M199.5,100.5v99h-99v-99H199.5 M200,100H100v100.1h100V100L200,100z"/>
			</g>
		</g>
		<g>
			<g>
				<path d="M299.5,0.5v99h-99v-99H299.5 M300,0H200v100.1h100V0L300,0z"/>
			</g>
		</g>
		<g>
			<g>
				<path d="M299.5,100.5v99h-99v-99H299.5 M300,100H200v100.1h100V100L300,100z"/>
			</g>
		</g>
		<g>
			<g>
				<path d="M399.5,0.5v99h-99v-99H399.5 M400,0H300v100.1h100V0L400,0z"/>
			</g>
		</g>
		<g>
			<g>
				<path d="M399.5,100.5v99h-99v-99H399.5 M400,100H300v100.1h100V100L400,100z"/>
			</g>
		</g>
	</g>
</g>
<g>
	<g>
		<g class="st7">
			<linearGradient id="SVGID_2_" gradientUnits="userSpaceOnUse" x1="118.6239" y1="92.8131" x2="118.6239" y2="58.019">
				<stop  offset="0" style="stop-color:#26AEEA"/>
				<stop  offset="1" style="stop-color:#2199EA"/>
			</linearGradient>
			<path class="st8" d="M132.5,68.2l-10.1,6.6l11.8,7.8c0,0,0,0,0,0l0,0v0c0,0,0,0,0,0v0v0c0,0,0,0,0,0v0l-1.8,2.5
				c-1.5,2.3-3.4,4.1-5.7,5.4c-2.3,1.3-4.8,1.9-7.6,1.9c-2,0-4-0.4-5.9-1.1c-1.9-0.7-3.7-1.8-5.2-3.2c-1.5-1.4-2.8-3.1-3.7-5.1
				c-1-2-1.4-4.3-1.4-6.8c0-2.1,0.3-4,1-5.9c0.7-1.8,1.7-3.5,3.1-5c1.5-2.4,3.4-4.2,5.7-5.6c2.4-1.4,5-2.1,7.8-2.2
				c2.8,0,5.4,0.6,7.8,1.9c2.4,1.3,4.4,3.1,6,5.4l0,0v0v0v0v0c0,0,0,0.1,0,0.1L132.5,68.2L132.5,68.2z M120.5,58.6
				c-2.2,0.1-4.2,0.5-6.2,1.4c-1.9,0.9-3.6,2.1-5.1,3.7c1.5-1.1,3-1.9,4.7-2.4c1.7-0.6,3.5-0.8,5.3-0.8c2.7,0,5.1,0.6,7.4,1.8
				c2.3,1.2,4.1,2.9,5.7,5.2l1.4-2c-1.5-2.2-3.4-3.9-5.7-5.1C125.7,59.1,123.2,58.5,120.5,58.6z M121.8,75.2l-2.2,1.4l12.6,8.3
				l1.4-2L121.8,75.2z"/>
		</g>
		<linearGradient id="SVGID_3_" gradientUnits="userSpaceOnUse" x1="118.6239" y1="93.6263" x2="118.6239" y2="57.2058">
			<stop  offset="0" style="stop-color:#26AEEA"/>
			<stop  offset="1" style="stop-color:#2199EA"/>
		</linearGradient>
		<path class="st9" d="M120.7,58c2.7,0,5.3,0.6,7.6,1.9c2.4,1.3,4.4,3.1,6,5.4l0,0v0v0v0v0c0,0,0,0.1,0,0.1l-1.8,2.5l0,0l-10.1,6.6
			l11.8,7.8c0,0,0,0,0,0l0,0v0c0,0,0,0,0,0v0v0c0,0,0,0,0,0v0l-1.8,2.5c-1.5,2.3-3.4,4.1-5.7,5.4c-2.3,1.3-4.8,1.9-7.6,1.9
			c-2,0-4-0.4-5.9-1.1c-1.9-0.7-3.7-1.8-5.2-3.2c-1.5-1.4-2.8-3.1-3.7-5.1c-1-2-1.4-4.3-1.4-6.8c0-2.1,0.3-4,1-5.9
			c0.7-1.8,1.7-3.5,3.1-5c1.5-2.4,3.4-4.2,5.7-5.6c2.4-1.4,5-2.1,7.8-2.2C120.6,58,120.6,58,120.7,58 M109.2,63.8
			c1.5-1.1,3-1.9,4.7-2.4c1.7-0.6,3.5-0.8,5.3-0.8c2.7,0,5.1,0.6,7.4,1.8c2.3,1.2,4.1,2.9,5.7,5.2l1.4-2c-1.5-2.2-3.4-3.9-5.7-5.1
			c-2.2-1.2-4.5-1.7-7.1-1.7c-0.1,0-0.3,0-0.4,0c-2.2,0.1-4.2,0.5-6.2,1.4C112.4,60.9,110.7,62.2,109.2,63.8 M132.2,84.9l1.4-2
			l-11.8-7.7l-2.2,1.4L132.2,84.9 M120.7,57.2L120.7,57.2l-0.2,0c-2.9,0.1-5.7,0.8-8.2,2.3c-2.5,1.4-4.5,3.4-6,5.8
			c-1.4,1.5-2.5,3.3-3.2,5.2c-0.7,1.9-1.1,4-1.1,6.2c0,2.7,0.5,5.1,1.5,7.2c1,2.1,2.3,3.9,3.9,5.3c1.6,1.4,3.4,2.6,5.5,3.3
			c2,0.8,4.1,1.2,6.2,1.2c2.9,0,5.5-0.7,8-2c2.4-1.3,4.4-3.2,6-5.7l1.8-2.5l0.1-0.2v-0.1c0-0.1,0-0.2,0-0.3v-0.1c0-0.1,0-0.2,0-0.3
			v-0.1l-0.2-0.2c-0.1-0.2-0.2-0.3-0.4-0.4l-10.7-7l9.1-5.9l0.1,0l0.1-0.1l0,0l0,0l0-0.1l1.8-2.5l0.1-0.1l0.1-0.1v-0.3v-0.1v-0.3
			l-0.2-0.3c-1.6-2.4-3.7-4.4-6.3-5.7C126.3,57.9,123.6,57.2,120.7,57.2L120.7,57.2z M117.9,59.7c0.9-0.2,1.7-0.3,2.6-0.3
			c0.1,0,0.3,0,0.4,0c2.4,0,4.6,0.6,6.7,1.6c2,1.1,3.7,2.6,5.1,4.4l-0.4,0.6c-1.5-1.9-3.2-3.4-5.3-4.5c-2.4-1.3-5-1.9-7.8-1.9
			C118.8,59.7,118.3,59.7,117.9,59.7L117.9,59.7z M121.1,76.6l0.7-0.5l10.6,7l-0.5,0.6L121.1,76.6L121.1,76.6z"/>
	</g>
	<g>
		<g class="st7">
			<linearGradient id="SVGID_4_" gradientUnits="userSpaceOnUse" x1="153.5686" y1="92.9122" x2="153.5686" y2="58.2486">
				<stop  offset="0" style="stop-color:#26AEEA"/>
				<stop  offset="1" style="stop-color:#2199EA"/>
			</linearGradient>
			<path class="st10" d="M164.9,62.1c1.7,1.5,3.1,3.3,4.1,5.3c1,2.1,1.5,4.2,1.6,6.6c0,1.2-0.1,2.4-0.3,3.4c-0.2,1.1-0.5,2.1-0.9,3
				c-0.4,1-0.9,1.9-1.5,2.8c-0.6,0.9-1.2,1.8-1.8,2.7c-0.1,0.1-0.1,0.1-0.1,0.2c0,0.1-0.1,0.1-0.1,0.2c-1.5,2.1-3.4,3.8-5.7,4.9
				c-2.3,1.2-4.8,1.8-7.3,1.8c-2.2,0-4.3-0.4-6.3-1.3c-1.9-0.8-3.7-2-5.1-3.5c-1.5-1.5-2.6-3.2-3.5-5.1c-0.8-1.9-1.3-4-1.3-6.2
				c0-1.6,0.2-3.2,0.7-4.7c0.5-1.5,1.2-3,2.1-4.3l0.4-0.6l1.3-1.9c1.3-1.9,2.9-3.5,4.8-4.7c1.9-1.2,4.1-2,6.3-2.3
				c2.3-0.3,4.5-0.2,6.7,0.5C161.1,59.5,163.1,60.6,164.9,62.1z M168.8,76.8c0,0.8-0.1,1.6-0.2,2.3c-0.1,0.8-0.3,1.5-0.5,2.2
				c0.6-1.1,1-2.2,1.4-3.4c0.3-1.2,0.5-2.5,0.4-4c-0.1-2.2-0.6-4.3-1.5-6.3c-0.9-2-2.3-3.7-3.9-5.1c-1.7-1.5-3.6-2.5-5.7-3.1
				c-2.1-0.6-4.3-0.8-6.4-0.5c-1.9,0.3-3.6,0.8-5.2,1.7c-1.6,0.9-3.1,2-4.3,3.4c1.4-1.1,3-1.9,4.6-2.5c1.7-0.6,3.4-0.9,5.3-0.9
				c2.2,0,4.3,0.4,6.2,1.3c1.9,0.8,3.7,2,5.1,3.5c1.5,1.5,2.6,3.2,3.5,5.1C168.4,72.5,168.8,74.6,168.8,76.8z"/>
		</g>
		<linearGradient id="SVGID_5_" gradientUnits="userSpaceOnUse" x1="153.5686" y1="93.7254" x2="153.5686" y2="57.4354">
			<stop  offset="0" style="stop-color:#26AEEA"/>
			<stop  offset="1" style="stop-color:#2199EA"/>
		</linearGradient>
		<path class="st11" d="M154.6,58.2c1.5,0,2.9,0.2,4.4,0.6c2.2,0.6,4.2,1.7,5.9,3.2c1.7,1.5,3.1,3.3,4.1,5.3c1,2.1,1.5,4.2,1.6,6.6
			c0,1.2-0.1,2.4-0.3,3.4c-0.2,1.1-0.5,2.1-0.9,3c-0.4,1-0.9,1.9-1.5,2.8c-0.6,0.9-1.2,1.8-1.8,2.7c-0.1,0.1-0.1,0.1-0.1,0.2
			c0,0.1-0.1,0.1-0.1,0.2c-1.5,2.1-3.4,3.8-5.7,4.9c-2.3,1.2-4.8,1.8-7.3,1.8c-2.2,0-4.3-0.4-6.3-1.3c-1.9-0.8-3.7-2-5.1-3.5
			c-1.5-1.5-2.6-3.2-3.5-5.1c-0.8-1.9-1.3-4-1.3-6.2c0-1.6,0.2-3.2,0.7-4.7c0.5-1.5,1.2-3,2.1-4.3l0.4-0.6l1.3-1.9
			c1.3-1.9,2.9-3.5,4.8-4.7c1.9-1.2,4.1-2,6.3-2.3C153.1,58.3,153.8,58.2,154.6,58.2 M142.8,64.1c1.4-1.1,3-1.9,4.6-2.5
			c1.7-0.6,3.4-0.9,5.3-0.9c2.2,0,4.3,0.4,6.2,1.3c1.9,0.8,3.7,2,5.1,3.5c1.5,1.5,2.6,3.2,3.5,5.1c0.8,1.9,1.3,4,1.3,6.2
			c0,0.8-0.1,1.6-0.2,2.3c-0.1,0.8-0.3,1.5-0.5,2.2c0.6-1.1,1-2.2,1.4-3.4c0.3-1.2,0.5-2.5,0.4-4c-0.1-2.2-0.6-4.3-1.5-6.3
			c-0.9-2-2.3-3.7-3.9-5.1c-1.7-1.5-3.6-2.5-5.7-3.1c-1.4-0.4-2.9-0.6-4.3-0.6c-0.7,0-1.4,0-2.1,0.1c-1.9,0.3-3.6,0.8-5.2,1.7
			C145.5,61.6,144.1,62.7,142.8,64.1 M154.6,57.4L154.6,57.4c-0.8,0-1.6,0.1-2.4,0.2c-2.4,0.3-4.6,1.1-6.6,2.4
			c-2,1.3-3.7,2.9-5.1,4.9l-1.3,1.9l-0.4,0.6l0,0l0,0c-0.9,1.4-1.7,2.9-2.2,4.5c-0.5,1.6-0.8,3.3-0.8,4.9c0,2.3,0.4,4.5,1.3,6.6
			c0.9,2,2.1,3.8,3.6,5.4c1.5,1.5,3.3,2.8,5.4,3.6c2,0.9,4.3,1.3,6.6,1.3c2.7,0,5.3-0.6,7.7-1.8c2.4-1.2,4.4-2.9,6-5.1
			c0.1-0.1,0.2-0.2,0.2-0.4l0,0l0-0.1c0.6-0.9,1.2-1.8,1.8-2.7c0.6-0.9,1.1-1.9,1.5-2.9c0.4-1,0.8-2.1,1-3.2
			c0.2-1.1,0.3-2.3,0.3-3.6c-0.1-2.4-0.6-4.7-1.6-6.9c-1-2.2-2.5-4-4.3-5.6c-1.9-1.6-4-2.7-6.2-3.4
			C157.7,57.7,156.1,57.4,154.6,57.4L154.6,57.4z M151.6,60c0.3-0.1,0.6-0.1,0.9-0.1c0.7-0.1,1.3-0.1,2-0.1c1.4,0,2.7,0.2,4.1,0.6
			c2,0.6,3.8,1.6,5.4,2.9c1.6,1.3,2.8,3,3.7,4.8c0.6,1.3,1,2.7,1.3,4.1c-0.2-0.6-0.4-1.3-0.7-1.9c-0.9-2-2.1-3.8-3.6-5.4
			c-1.5-1.5-3.3-2.8-5.4-3.6c-2-0.9-4.2-1.3-6.6-1.3C152.4,59.9,152,59.9,151.6,60L151.6,60z"/>
	</g>
	<g>
		<g class="st7">
			<linearGradient id="SVGID_6_" gradientUnits="userSpaceOnUse" x1="185.2646" y1="92.8625" x2="185.2646" y2="58.0696">
				<stop  offset="0" style="stop-color:#26AEEA"/>
				<stop  offset="1" style="stop-color:#2199EA"/>
			</linearGradient>
			<path class="st12" d="M197.4,90.1L197.4,90.1L197.4,90.1l0,0.1l-1.8,2.5l0,0l0,0c0,0-0.1,0-0.1,0c0,0,0,0-0.1,0h-21.8
				c-0.2,0-0.3-0.1-0.3-0.3V60.9v0l0,0v0v0l1.8-2.5c0,0,0,0,0,0l0,0h0h0l0,0H187c0.2,0,0.3,0.1,0.3,0.3v21.5l10,9.9v0c0,0,0,0,0,0
				L197.4,90.1L197.4,90.1L197.4,90.1z M186.8,80.2c-0.1-0.1-0.1-0.1-0.1-0.2V58.7h-11.3l-1.3,1.9h10.6c0.2,0,0.3,0.1,0.3,0.3v21.5
				l10.2,9.7l1.4-2L186.8,80.2z"/>
		</g>
		<linearGradient id="SVGID_7_" gradientUnits="userSpaceOnUse" x1="185.2646" y1="93.6757" x2="185.2646" y2="57.2564">
			<stop  offset="0" style="stop-color:#26AEEA"/>
			<stop  offset="1" style="stop-color:#2199EA"/>
		</linearGradient>
		<path class="st13" d="M187,58.1c0.2,0,0.3,0.1,0.3,0.3v21.5l10,9.9v0c0,0,0,0,0,0l0,0v0v0l0,0v0v0l-1.8,2.5l0,0l0,0
			c0,0-0.1,0-0.1,0c0,0,0,0-0.1,0h-21.8c-0.2,0-0.3-0.1-0.3-0.3V60.9v0l0,0v0v0l1.8-2.5c0,0,0,0,0,0l0,0h0h0l0,0H187 M174.1,60.6
			h10.6c0.2,0,0.3,0.1,0.3,0.3v21.5l10.2,9.7l1.4-2l-9.9-9.9c-0.1-0.1-0.1-0.1-0.1-0.2V58.7h-11.3L174.1,60.6 M187,57.3h-11.7h-0.3
			l0,0l0,0l-0.2,0.1c-0.2,0.1-0.3,0.2-0.4,0.4l-1.7,2.4l-0.2,0.2v0l0,0v0.3v31.7c0,0.7,0.5,1.2,1.1,1.2h21.8c0.1,0,0.2,0,0.3,0h0.2
			l0.2-0.2l0,0l0,0l0,0l0-0.1l1.8-2.5l0.2-0.2v0l0,0v-0.3v-0.3l-0.1-0.1v-0.1l-0.2-0.3l-9.8-9.7V58.4
			C188.1,57.7,187.6,57.3,187,57.3L187,57.3z M175.8,59.5h10.1V80c0,0.2,0.1,0.5,0.3,0.8l9.4,9.4l-0.5,0.7l-9.3-8.8V60.9
			c0-0.6-0.5-1.1-1.1-1.1h-9.1L175.8,59.5L175.8,59.5z"/>
	</g>
	<g>
		<g class="st7">
			<linearGradient id="SVGID_8_" gradientUnits="userSpaceOnUse" x1="216.1256" y1="92.9122" x2="216.1256" y2="58.2486">
				<stop  offset="0" style="stop-color:#26AEEA"/>
				<stop  offset="1" style="stop-color:#2199EA"/>
			</linearGradient>
			<path class="st14" d="M227.5,62.1c1.7,1.5,3.1,3.3,4.1,5.3c1,2.1,1.5,4.2,1.6,6.6c0,1.2-0.1,2.4-0.3,3.4c-0.2,1.1-0.5,2.1-0.9,3
				c-0.4,1-0.9,1.9-1.5,2.8c-0.6,0.9-1.2,1.8-1.8,2.7c-0.1,0.1-0.1,0.1-0.1,0.2c0,0.1-0.1,0.1-0.1,0.2c-1.5,2.1-3.4,3.8-5.7,4.9
				c-2.3,1.2-4.8,1.8-7.3,1.8c-2.2,0-4.3-0.4-6.3-1.3c-1.9-0.8-3.7-2-5.1-3.5c-1.5-1.5-2.6-3.2-3.5-5.1c-0.8-1.9-1.3-4-1.3-6.2
				c0-1.6,0.2-3.2,0.7-4.7c0.5-1.5,1.2-3,2.1-4.3l0.4-0.6l1.3-1.9c1.3-1.9,2.9-3.5,4.8-4.7c1.9-1.2,4.1-2,6.3-2.3
				c2.3-0.3,4.5-0.2,6.7,0.5C223.7,59.5,225.7,60.6,227.5,62.1z M231.4,76.8c0,0.8-0.1,1.6-0.2,2.3c-0.1,0.8-0.3,1.5-0.5,2.2
				c0.6-1.1,1-2.2,1.4-3.4c0.3-1.2,0.5-2.5,0.4-4c-0.1-2.2-0.6-4.3-1.5-6.3c-0.9-2-2.3-3.7-3.9-5.1c-1.7-1.5-3.6-2.5-5.7-3.1
				c-2.1-0.6-4.3-0.8-6.4-0.5c-1.9,0.3-3.6,0.8-5.2,1.7c-1.6,0.9-3.1,2-4.3,3.4c1.4-1.1,3-1.9,4.6-2.5c1.7-0.6,3.4-0.9,5.3-0.9
				c2.2,0,4.3,0.4,6.2,1.3c1.9,0.8,3.7,2,5.1,3.5c1.5,1.5,2.6,3.2,3.5,5.1C230.9,72.5,231.4,74.6,231.4,76.8z"/>
		</g>
		<linearGradient id="SVGID_9_" gradientUnits="userSpaceOnUse" x1="216.1256" y1="93.7254" x2="216.1256" y2="57.4354">
			<stop  offset="0" style="stop-color:#26AEEA"/>
			<stop  offset="1" style="stop-color:#2199EA"/>
		</linearGradient>
		<path class="st15" d="M217.1,58.2c1.5,0,2.9,0.2,4.4,0.6c2.2,0.6,4.2,1.7,5.9,3.2c1.7,1.5,3.1,3.3,4.1,5.3c1,2.1,1.5,4.2,1.6,6.6
			c0,1.2-0.1,2.4-0.3,3.4c-0.2,1.1-0.5,2.1-0.9,3c-0.4,1-0.9,1.9-1.5,2.8c-0.6,0.9-1.2,1.8-1.8,2.7c-0.1,0.1-0.1,0.1-0.1,0.2
			c0,0.1-0.1,0.1-0.1,0.2c-1.5,2.1-3.4,3.8-5.7,4.9c-2.3,1.2-4.8,1.8-7.3,1.8c-2.2,0-4.3-0.4-6.3-1.3c-1.9-0.8-3.7-2-5.1-3.5
			c-1.5-1.5-2.6-3.2-3.5-5.1c-0.8-1.9-1.3-4-1.3-6.2c0-1.6,0.2-3.2,0.7-4.7c0.5-1.5,1.2-3,2.1-4.3l0.4-0.6l1.3-1.9
			c1.3-1.9,2.9-3.5,4.8-4.7c1.9-1.2,4.1-2,6.3-2.3C215.6,58.3,216.4,58.2,217.1,58.2 M205.4,64.1c1.4-1.1,3-1.9,4.6-2.5
			c1.7-0.6,3.4-0.9,5.3-0.9c2.2,0,4.3,0.4,6.2,1.3c1.9,0.8,3.7,2,5.1,3.5c1.5,1.5,2.6,3.2,3.5,5.1c0.8,1.9,1.3,4,1.3,6.2
			c0,0.8-0.1,1.6-0.2,2.3c-0.1,0.8-0.3,1.5-0.5,2.2c0.6-1.1,1-2.2,1.4-3.4c0.3-1.2,0.5-2.5,0.4-4c-0.1-2.2-0.6-4.3-1.5-6.3
			c-0.9-2-2.3-3.7-3.9-5.1c-1.7-1.5-3.6-2.5-5.7-3.1c-1.4-0.4-2.9-0.6-4.3-0.6c-0.7,0-1.4,0-2.1,0.1c-1.9,0.3-3.6,0.8-5.2,1.7
			C208.1,61.6,206.6,62.7,205.4,64.1 M217.1,57.4L217.1,57.4c-0.8,0-1.6,0.1-2.4,0.2c-2.4,0.3-4.6,1.1-6.6,2.4
			c-2,1.3-3.7,2.9-5.1,4.9l-1.3,1.9l-0.4,0.6c-1,1.5-1.7,3-2.2,4.5c-0.5,1.6-0.8,3.3-0.8,4.9c0,2.3,0.4,4.5,1.3,6.6
			c0.9,2,2.1,3.8,3.6,5.4c1.5,1.5,3.3,2.8,5.4,3.6c2,0.9,4.3,1.3,6.6,1.3c2.7,0,5.3-0.6,7.7-1.8c2.4-1.2,4.4-2.9,6-5.1
			c0.1-0.1,0.2-0.2,0.2-0.4l0,0l0-0.1c0.6-0.9,1.2-1.8,1.8-2.7c0.6-0.9,1.1-1.9,1.5-2.9c0.4-1,0.8-2.1,1-3.2
			c0.2-1.1,0.3-2.3,0.3-3.6c-0.1-2.4-0.6-4.7-1.6-6.9c-1-2.2-2.5-4-4.3-5.6c-1.9-1.6-4-2.7-6.2-3.4
			C220.2,57.7,218.7,57.4,217.1,57.4L217.1,57.4z M214.2,60c0.3-0.1,0.6-0.1,0.9-0.1c0.7-0.1,1.3-0.1,2-0.1c1.4,0,2.7,0.2,4.1,0.6
			c2,0.6,3.8,1.6,5.4,2.9c1.6,1.3,2.8,3,3.7,4.8c0.6,1.3,1,2.7,1.3,4.1c-0.2-0.6-0.4-1.3-0.7-1.9c-0.9-2-2.1-3.8-3.6-5.4
			c-1.5-1.5-3.3-2.8-5.4-3.6c-2-0.9-4.2-1.3-6.6-1.3C214.9,59.9,214.5,59.9,214.2,60L214.2,60z"/>
	</g>
	<g>
		<g class="st7">
			<linearGradient id="SVGID_10_" gradientUnits="userSpaceOnUse" x1="249.702" y1="92.9122" x2="249.702" y2="58.2182">
				<stop  offset="0" style="stop-color:#26AEEA"/>
				<stop  offset="1" style="stop-color:#2199EA"/>
			</linearGradient>
			<path class="st16" d="M258,88.9C258,88.9,258,88.9,258,88.9c-1.3,1.3-2.7,2.3-4.3,3c-1.6,0.7-3.3,1.1-5.1,1.1
				c-1.7,0-3.4-0.3-4.9-1c-1.6-0.6-2.9-1.5-4.1-2.6c-1.2-1.1-2.1-2.4-2.8-4c-0.7-1.5-1.1-3.2-1.2-4.9c-0.1-2.2-0.1-4.4-0.1-6.6
				c0-2.2,0-4.4,0-6.6c0-1.1,0.1-2.1,0.1-3.2c0-1.1,0-2.1,0-3.2v0c0,0,0-0.1,0-0.1l1.7-2.5c0-0.1,0.1-0.1,0.2-0.1h26
				c0.2,0,0.3,0.1,0.3,0.3v12.6c-0.1,1-0.1,2,0,3.1c0,1.1,0,2.1,0,3.2c0,1.1-0.2,2.1-0.4,3.1c-0.2,1-0.6,2-1.2,3
				C261.1,85.5,259.7,87.3,258,88.9z M236.5,60.7h8h16.9c0.2,0,0.3,0.1,0.3,0.3c0,1.1,0,2.1,0,3.2c0,1.1,0,2.1,0,3.2
				c0,2.2,0,4.4,0,6.5c0,2.2,0,4.4-0.1,6.5c-0.1,1.6-0.5,3.2-1.1,4.7c0.2-0.3,0.5-0.7,0.7-1c0.2-0.3,0.4-0.7,0.6-1
				c0.5-0.8,0.8-1.6,1-2.4c0.2-0.8,0.4-1.7,0.4-2.6c0.1-0.9,0.1-2,0.1-3.1c0-1.1,0-2.5,0-4V58.8h-25.5L236.5,60.7z"/>
		</g>
		<linearGradient id="SVGID_11_" gradientUnits="userSpaceOnUse" x1="249.702" y1="93.7254" x2="249.702" y2="57.405">
			<stop  offset="0" style="stop-color:#26AEEA"/>
			<stop  offset="1" style="stop-color:#2199EA"/>
		</linearGradient>
		<path class="st17" d="M263.6,58.2c0.2,0,0.3,0.1,0.3,0.3v12.6c-0.1,1-0.1,2,0,3.1c0,1.1,0,2.1,0,3.2c0,1.1-0.2,2.1-0.4,3.1
			c-0.2,1-0.6,2-1.2,3c-1.2,2-2.6,3.8-4.3,5.4c0,0,0,0,0,0c-1.3,1.3-2.7,2.2-4.3,2.9c-1.6,0.7-3.3,1.1-5.1,1.1c-1.7,0-3.4-0.3-4.9-1
			c-1.6-0.6-2.9-1.5-4.1-2.6c-1.2-1.1-2.1-2.4-2.8-4c-0.7-1.5-1.1-3.2-1.2-4.9c-0.1-2.2-0.1-4.4-0.1-6.6c0-2.2,0-4.4,0-6.6
			c0-1.1,0.1-2.1,0.1-3.2c0-1.1,0-2.1,0-3.2v0c0,0,0-0.1,0-0.1l1.7-2.5c0-0.1,0.1-0.1,0.2-0.1H263.6 M236.5,60.7h8h16.9
			c0.2,0,0.3,0.1,0.3,0.3c0,1.1,0,2.1,0,3.2c0,1.1,0,2.1,0,3.2c0,2.2,0,4.4,0,6.5c0,2.2,0,4.4-0.1,6.5c-0.1,1.6-0.5,3.2-1.1,4.7
			c0.2-0.3,0.5-0.7,0.7-1c0.2-0.3,0.4-0.7,0.6-1c0.5-0.8,0.8-1.6,1-2.4c0.2-0.8,0.4-1.7,0.4-2.6c0.1-0.9,0.1-2,0.1-3.1
			c0-1.1,0-2.5,0-4V58.8h-25.5L236.5,60.7 M263.6,57.4h-26c-0.4,0-0.8,0.2-1,0.6l-1.7,2.4c-0.1,0.2-0.2,0.4-0.2,0.6
			c0,1.1,0,2.2,0,3.2c0,1.1,0,2.1-0.1,3.2c0,2.2-0.1,4.4-0.1,6.6c0,2.2,0.1,4.4,0.1,6.6c0.1,1.8,0.5,3.6,1.2,5.2
			c0.7,1.6,1.8,3,3,4.2c1.2,1.2,2.7,2.1,4.3,2.8c1.6,0.7,3.4,1,5.3,1c1.9,0,3.7-0.4,5.4-1.1c1.6-0.7,3.1-1.7,4.4-3
			c0.1-0.1,0.2-0.1,0.2-0.2c1.7-1.6,3.1-3.4,4.3-5.5c0.6-1,1-2.1,1.3-3.2c0.2-1.1,0.4-2.2,0.4-3.3c0-1.1,0.1-2.1,0-3.2c0-1,0-2,0-3
			l0,0v0V58.5C264.7,57.9,264.3,57.4,263.6,57.4L263.6,57.4z M238.2,59.6h24.3v8.2c0-0.2,0-0.3,0-0.5c0-1.1,0-2.1,0-3.2V61
			c0-0.6-0.5-1.1-1.1-1.1h-16.9H238L238.2,59.6L238.2,59.6z"/>
	</g>
	<g>
		<g class="st7">
			<linearGradient id="SVGID_12_" gradientUnits="userSpaceOnUse" x1="280.5111" y1="93.011" x2="280.5111" y2="58.2676">
				<stop  offset="0" style="stop-color:#26AEEA"/>
				<stop  offset="1" style="stop-color:#2199EA"/>
			</linearGradient>
			<path class="st18" d="M290.5,78.3c-0.8,1.1-1.7,2-2.8,2.7c-1.1,0.7-2.5,1.3-4.1,1.7c0,0-0.1,0-0.1,0c0,0-0.1,0-0.1,0l8.1,7.8v0h0
				v0v0.1l0,0l0,0v0l0,0v0h0l-2.2,1.9c0,0-0.1,0-0.1,0v0H289h-21.5c-0.2,0-0.3-0.1-0.3-0.3V61l0,0v0c0,0,0-0.1,0-0.1l2.3-2.5h0
				c0,0,0,0,0,0v0h0h0.1h12.9h0.8h0.1c0.1,0,0.3,0,0.6,0c0.3,0.1,0.5,0.1,0.7,0.1c0.2,0,0.4,0.1,0.7,0.1c0.5,0.1,0.9,0.3,1.3,0.4
				c0.4,0.1,0.9,0.4,1.3,0.6c2,1.1,3.3,2.3,4.1,3.9c0.8,1.7,1.3,3.2,1.5,4.6c0.1,1.4,0.1,2.7-0.2,3.9c-0.3,1.2-0.7,2.3-1.3,3.3
				c-0.6,1-1.1,1.9-1.6,2.7c0,0,0,0,0,0C290.6,78.1,290.6,78.1,290.5,78.3L290.5,78.3z M282.7,58.9h-12.8l-1.8,1.9h12.9
				c0.1,0,0.2,0,0.2,0c0.3,0,0.7,0.1,1.1,0.1c0.4,0,0.7,0.1,0.9,0.1c0.4,0.1,0.8,0.2,1.2,0.3c0.4,0.1,0.8,0.3,1.1,0.4
				c0.8,0.4,1.4,0.8,2,1.2c0.6,0.4,1.2,0.9,1.7,1.5c1.2,1.3,2,2.6,2.4,4c0.4,1.3,0.6,2.9,0.4,4.7c0,0.3-0.1,0.5-0.1,0.7
				c0,0.2-0.1,0.5-0.1,0.7c0.3-0.7,0.6-1.4,0.9-2.2c0.2-0.8,0.4-1.6,0.4-2.5c0-0.9-0.1-1.8-0.3-2.8c-0.2-1-0.6-2.1-1.2-3.1
				c-0.4-0.8-0.9-1.4-1.5-2c-0.6-0.6-1.4-1.1-2.4-1.6c-0.4-0.2-0.8-0.4-1.2-0.6c-0.4-0.2-0.8-0.3-1.3-0.4c-0.2-0.1-0.4-0.1-0.6-0.1
				c-0.2,0-0.5-0.1-0.7-0.1c-0.2,0-0.4,0-0.5,0h-0.1H282.7z M282.8,82.9C282.8,82.9,282.7,82.9,282.8,82.9c-1,0.1-2.1,0.2-3.2,0.2
				l9.4,9.2l1.8-1.6L282.8,82.9z"/>
		</g>
		<linearGradient id="SVGID_13_" gradientUnits="userSpaceOnUse" x1="280.5108" y1="93.8242" x2="280.5108" y2="57.4544">
			<stop  offset="0" style="stop-color:#26AEEA"/>
			<stop  offset="1" style="stop-color:#2199EA"/>
		</linearGradient>
		<path class="st19" d="M283.6,58.3c0.1,0,0.3,0,0.6,0c0.3,0.1,0.5,0.1,0.7,0.1c0.2,0,0.4,0.1,0.7,0.1c0.5,0.1,0.9,0.3,1.3,0.4
			c0.4,0.1,0.9,0.4,1.3,0.6c2,1.1,3.3,2.3,4.1,3.9c0.8,1.7,1.3,3.2,1.5,4.6c0.1,1.4,0.1,2.7-0.2,3.9c-0.3,1.2-0.7,2.3-1.3,3.3
			c-0.6,1-1.1,1.9-1.6,2.7c0,0,0,0,0,0c0,0,0,0.1-0.1,0.1v0c-0.8,1.1-1.7,2-2.8,2.7c-1.1,0.7-2.5,1.3-4.1,1.7c0,0-0.1,0-0.1,0
			c0,0-0.1,0-0.1,0l8.1,7.8v0h0v0v0.1l0,0l0,0v0l0,0v0h0l-2.2,1.9c0,0-0.1,0-0.1,0v0H289h-21.5c-0.2,0-0.3-0.1-0.3-0.3V61l0,0v0
			c0,0,0-0.1,0-0.1l2.3-2.5h0c0,0,0,0,0,0v0h0h0.1h12.9H283.6L283.6,58.3 M268.1,60.7h12.9c0.1,0,0.2,0,0.2,0c0.3,0,0.7,0.1,1.1,0.1
			c0.4,0,0.7,0.1,0.9,0.1c0.4,0.1,0.8,0.2,1.2,0.3c0.4,0.1,0.8,0.3,1.1,0.4c0.8,0.4,1.4,0.8,2,1.2c0.6,0.4,1.2,0.9,1.7,1.5
			c1.2,1.3,2,2.6,2.4,4c0.4,1.3,0.6,2.9,0.4,4.7c0,0.3-0.1,0.5-0.1,0.7c0,0.2-0.1,0.5-0.1,0.7c0.3-0.7,0.6-1.4,0.9-2.2
			c0.2-0.8,0.4-1.6,0.4-2.5c0-0.9-0.1-1.8-0.3-2.8c-0.2-1-0.6-2.1-1.2-3.1c-0.4-0.8-0.9-1.4-1.5-2c-0.6-0.6-1.4-1.1-2.4-1.6
			c-0.4-0.2-0.8-0.4-1.2-0.6c-0.4-0.2-0.8-0.3-1.3-0.4c-0.2-0.1-0.4-0.1-0.6-0.1c-0.2,0-0.5-0.1-0.7-0.1c-0.2,0-0.4,0-0.5,0h-0.1
			h-0.8h-12.8L268.1,60.7 M289,92.3l1.8-1.6l-8-7.8c0,0,0,0,0,0c-1,0.2-2,0.3-3.2,0.3L289,92.3 M283.7,57.5h-0.1h-0.1h-0.8h-12.9
			h-0.1h-0.8l0,0.5l-2.2,2.4c-0.1,0.1-0.1,0.2-0.2,0.3l-0.1,0.1V61v31.7c0,0.7,0.5,1.1,1.2,1.1H289h0.1h0.8v-0.4l1.9-1.6h0.5l0-0.5
			l0.1-0.1v-0.1l0.4-0.4l-0.4-0.4v-0.6l-0.5,0l-6.9-6.7c1.2-0.4,2.2-0.8,3.1-1.4c1.2-0.8,2.2-1.8,3-3l0.1-0.2v0c0,0,0.1-0.1,0.1-0.1
			c0.5-0.8,1.1-1.7,1.6-2.7c0.6-1.1,1.1-2.2,1.4-3.5c0.3-1.3,0.4-2.7,0.2-4.2c-0.2-1.5-0.7-3.1-1.5-4.9c-0.8-1.7-2.3-3.1-4.5-4.2
			c-0.4-0.3-0.9-0.5-1.4-0.7c-0.4-0.2-0.9-0.3-1.4-0.4c-0.3-0.1-0.5-0.1-0.8-0.2c-0.2,0-0.4-0.1-0.6-0.1l-0.1,0h-0.1
			C283.9,57.5,283.8,57.5,283.7,57.5L283.7,57.5L283.7,57.5z M270.3,59.7h12.4h0.8h0c0.2,0,0.3,0,0.5,0c0.3,0.1,0.5,0.1,0.7,0.1
			c0.2,0,0.3,0.1,0.5,0.1l0,0l0,0c0.4,0.1,0.8,0.2,1.1,0.4c0.4,0.2,0.8,0.3,1.2,0.6c0.9,0.5,1.6,1,2.2,1.5c0.5,0.5,1,1.1,1.3,1.7
			c0.5,1,0.9,2,1.1,3c-0.5-1.1-1.3-2.2-2.2-3.3c-0.6-0.6-1.2-1.2-1.9-1.6c-0.6-0.5-1.4-0.9-2.2-1.3c-0.4-0.2-0.8-0.3-1.2-0.5
			c-0.4-0.1-0.8-0.2-1.2-0.3c-0.3-0.1-0.6-0.1-1.1-0.1c-0.4,0-0.7,0-0.9-0.1c-0.1,0-0.3-0.1-0.4-0.1h-11L270.3,59.7L270.3,59.7z
			 M281.4,83.9c0.3,0,0.7-0.1,1-0.1l7.1,7l-0.6,0.5L281.4,83.9L281.4,83.9z"/>
	</g>
</g>
<g>
	<linearGradient id="SVGID_14_" gradientUnits="userSpaceOnUse" x1="114.3066" y1="107.108" x2="114.3066" y2="141.9506">
		<stop  offset="0" style="stop-color:#51D62B"/>
		<stop  offset="1" style="stop-color:#3EB716"/>
	</linearGradient>
	<linearGradient id="SVGID_15_" gradientUnits="userSpaceOnUse" x1="114.0178" y1="106.7015" x2="114.0178" y2="142.3571">
		<stop  offset="0" style="stop-color:#51D62B"/>
		<stop  offset="1" style="stop-color:#3EB716"/>
	</linearGradient>
	<path class="st20" d="M126.3,122.9c1.3,1.4,2.2,3,2.5,4.9c0.4,1.9,0.2,3.7-0.5,5.5l0,0c0,0.1,0,0.1,0,0.1c0,0.1,0,0.1,0,0.1v0
		c-0.9,1.9-2,3.5-3.3,4.9l-0.1,0.1c-1.3,1.4-2.6,2.3-4,2.7c-1.4,0.4-2.8,0.6-4.3,0.6c-0.3,0-0.6,0-0.9,0c-0.3,0-0.6,0-0.9,0
		c-0.3,0-0.6,0-0.9,0c-0.3,0-0.6,0-1,0H100c-0.1,0-0.2,0-0.2,0c0,0,0,0,0,0l0,0v0v0l0,0h0v-0.1v0h0l1.7-2.5l9.8-13.1
		c-0.2,0-0.3,0-0.5,0c-0.2,0-0.3,0-0.5,0c-0.8,0-1.6,0-2.3,0c-0.8,0-1.5-0.1-2.2-0.3c-0.7-0.2-1.4-0.5-2.2-0.9
		c-0.7-0.4-1.4-1.1-2-1.9c-1-1.2-1.5-2.5-1.7-4c-0.2-1.5,0-2.9,0.7-4.3l0,0l0.1-0.3c0.4-0.8,0.8-1.6,1.3-2.3
		c0.5-0.7,1.1-1.4,1.8-2.1c0.7-0.7,1.3-1.2,1.9-1.6c0.6-0.3,1.3-0.6,2-0.7c0.7-0.1,1.4-0.2,2.2-0.2c0.8,0,1.6,0,2.5,0h1.9h10.9h0h0
		c0,0,0,0,0,0h0v0h0v0l0,0v0.1v0v0l0,0v0l-1.7,2.5l-7.3,9.8h0.3c0.9,0,1.7,0,2.5,0c0.8,0,1.6,0.1,2.4,0.3c0.8,0.2,1.6,0.5,2.4,0.9
		C124.8,121.5,125.6,122.1,126.3,122.9z M112.4,107.8c-0.8,0-1.6,0-2.3,0c-0.7,0-1.4,0.1-2.1,0.2c-0.7,0.1-1.3,0.3-1.9,0.7
		c-0.6,0.3-1.3,0.8-1.9,1.5c-0.2,0.1-0.3,0.3-0.4,0.4c-0.1,0.1-0.2,0.3-0.3,0.4c0.6-0.4,1.1-0.7,1.7-0.8c0.6-0.2,1.2-0.3,1.8-0.3
		c0.6-0.1,1.2-0.1,1.8-0.1c0.6,0,1.2,0,1.8,0h1.9h10.8l1.3-1.9h-10.3c-0.3,0-0.6,0-0.9,0C113,107.7,112.7,107.8,112.4,107.8z
		 M125.5,126.6c0.9,1.3,1.4,2.6,1.6,4c0.2,1.4,0.1,2.8-0.3,4.2c0.2-0.3,0.3-0.5,0.4-0.8c0.1-0.3,0.2-0.5,0.4-0.8
		c0.7-1.7,0.9-3.4,0.6-5.2c-0.3-1.8-1.1-3.3-2.4-4.7c-0.7-0.7-1.4-1.3-2.1-1.7c-0.7-0.4-1.4-0.7-2.2-0.8c-0.8-0.2-1.5-0.3-2.4-0.3
		c-0.8,0-1.6,0-2.5,0h-0.8l-1.4,1.9h0.2c1,0,2,0,3,0c1,0,1.9,0.2,2.8,0.4c0.9,0.3,1.8,0.7,2.6,1.3
		C124,124.6,124.7,125.5,125.5,126.6z"/>
	<linearGradient id="SVGID_16_" gradientUnits="userSpaceOnUse" x1="148.3654" y1="107.1575" x2="148.3654" y2="141.8515">
		<stop  offset="0" style="stop-color:#51D62B"/>
		<stop  offset="1" style="stop-color:#3EB716"/>
	</linearGradient>
	<linearGradient id="SVGID_17_" gradientUnits="userSpaceOnUse" x1="148.3654" y1="106.7509" x2="148.3654" y2="142.2581">
		<stop  offset="0" style="stop-color:#51D62B"/>
		<stop  offset="1" style="stop-color:#3EB716"/>
	</linearGradient>
	<path class="st21" d="M153.2,114.8V139c0,0.1,0,0.2-0.1,0.2l-2.5,2.5l-0.1,0l-0.1,0h-11.1c-0.2,0-0.3-0.1-0.3-0.3v-20.4l-7.3,3.3
		c-0.1,0.1-0.2,0-0.3,0c-0.1,0-0.1-0.1-0.1-0.2v-14.2c0,0,0-0.1,0-0.1c0,0,0,0,0-0.1l1.8-2.5c0-0.1,0.1-0.1,0.2-0.1h31.9
		c0.1,0,0.2,0,0.2,0.1c0.1,0.1,0.1,0.2,0,0.3l-1.8,2.5l-0.1,0.1L153.2,114.8z M132.1,109.6h7.2h11.1h5.8h7l1.3-1.9h-31.1
		L132.1,109.6z M152.6,115.1l-1.9,0.8v24.9l1.9-1.9V115.1z"/>
	<linearGradient id="SVGID_18_" gradientUnits="userSpaceOnUse" x1="181.4257" y1="107.2565" x2="181.4257" y2="142">
		<stop  offset="0" style="stop-color:#51D62B"/>
		<stop  offset="1" style="stop-color:#3EB716"/>
	</linearGradient>
	<linearGradient id="SVGID_19_" gradientUnits="userSpaceOnUse" x1="181.4257" y1="106.8499" x2="181.4257" y2="142.4066">
		<stop  offset="0" style="stop-color:#51D62B"/>
		<stop  offset="1" style="stop-color:#3EB716"/>
	</linearGradient>
	<path class="st22" d="M191.4,127.3c-0.8,1.1-1.7,2-2.8,2.7c-1.1,0.7-2.5,1.3-4.1,1.7c0,0-0.1,0-0.1,0c0,0-0.1,0-0.1,0l8.1,7.8v0h0
		v0v0.1l0,0l0,0v0l0,0v0h0l-2.2,1.9c0,0-0.1,0-0.1,0v0h-0.1h-21.5c-0.2,0-0.3-0.1-0.3-0.3V110l0,0v0c0,0,0-0.1,0-0.1l2.3-2.5h0
		c0,0,0,0,0,0v0h0h0.1h12.9h0.8h0.1c0.1,0,0.3,0,0.6,0c0.3,0.1,0.5,0.1,0.7,0.1c0.2,0,0.4,0.1,0.7,0.1c0.5,0.1,0.9,0.3,1.3,0.4
		c0.4,0.1,0.9,0.4,1.3,0.6c2,1.1,3.3,2.3,4.1,3.9c0.8,1.7,1.3,3.2,1.5,4.6c0.1,1.4,0.1,2.7-0.2,3.9c-0.3,1.2-0.7,2.3-1.3,3.3
		c-0.6,1-1.1,1.9-1.6,2.7c0,0,0,0,0,0C191.5,127.1,191.5,127.1,191.4,127.3L191.4,127.3z M183.6,107.9h-12.8l-1.8,1.9H182
		c0.1,0,0.2,0,0.2,0c0.3,0,0.7,0.1,1.1,0.1c0.4,0,0.7,0.1,0.9,0.1c0.4,0.1,0.8,0.2,1.2,0.3c0.4,0.1,0.8,0.3,1.1,0.4
		c0.8,0.4,1.4,0.8,2,1.2c0.6,0.4,1.2,0.9,1.7,1.5c1.2,1.3,2,2.6,2.4,4c0.4,1.3,0.6,2.9,0.4,4.7c0,0.3-0.1,0.5-0.1,0.7
		c0,0.2-0.1,0.5-0.1,0.7c0.3-0.7,0.6-1.4,0.9-2.2c0.2-0.8,0.4-1.6,0.4-2.5c0-0.9-0.1-1.8-0.3-2.8c-0.2-1-0.6-2.1-1.2-3.1
		c-0.4-0.8-0.8-1.4-1.5-2c-0.6-0.6-1.4-1.1-2.4-1.6c-0.4-0.2-0.8-0.4-1.2-0.6c-0.4-0.2-0.8-0.3-1.3-0.4c-0.2-0.1-0.4-0.1-0.6-0.1
		c-0.2,0-0.5-0.1-0.7-0.1c-0.2,0-0.4,0-0.5,0h-0.1H183.6z M183.7,131.9C183.7,131.9,183.7,131.9,183.7,131.9c-1,0.1-2.1,0.2-3.2,0.2
		l9.4,9.2l1.8-1.6L183.7,131.9z"/>
	<linearGradient id="SVGID_20_" gradientUnits="userSpaceOnUse" x1="211.7641" y1="107.2071" x2="211.7641" y2="141.9506">
		<stop  offset="0" style="stop-color:#51D62B"/>
		<stop  offset="1" style="stop-color:#3EB716"/>
	</linearGradient>
	<linearGradient id="SVGID_21_" gradientUnits="userSpaceOnUse" x1="211.7641" y1="106.8005" x2="211.7641" y2="142.3572">
		<stop  offset="0" style="stop-color:#51D62B"/>
		<stop  offset="1" style="stop-color:#3EB716"/>
	</linearGradient>
	<path class="st23" d="M225.7,130.2L225.7,130.2v9v0v0l-0.1,0l-1.8,2.5l-0.1,0c0,0,0,0,0,0h-0.1h-25.6c-0.2,0-0.3-0.1-0.3-0.3V110
		v-0.1l0,0l1.8-2.5v0l0,0h0l0,0h0h23.6c0.2,0,0.3,0.1,0.3,0.3v8.9v0v0c0,0,0,0,0,0v0l-2.1,2.5c-0.1,0.1-0.1,0.1-0.2,0.1h-0.1h0h-3.2
		v4.6c0,0,0,0.1,0,0.1c0,0,0,0,0,0.1l0,0v0l-2.5,2.5l-0.1,0l-0.1,0h-4.3v3.4h14.6h0h0l0.1,0h0l0,0L225.7,130.2
		C225.7,130.1,225.7,130.1,225.7,130.2L225.7,130.2z M223.1,107.8H200l-1.3,1.9h22.4c0.2,0,0.3,0.1,0.3,0.3v8.3l1.7-2V107.8z
		 M210.5,130.6c-0.2,0-0.3-0.1-0.3-0.3v-3.7h-1.7v5.9h15l1.3-1.9H210.5z M217.3,119.2h-1.9v6.3l1.9-1.9V119.2z M225.1,131.2
		l-1.1,1.6v7.9l1.1-1.6V131.2z"/>
	<linearGradient id="SVGID_22_" gradientUnits="userSpaceOnUse" x1="243.9576" y1="107.0586" x2="243.9576" y2="141.8021">
		<stop  offset="0" style="stop-color:#51D62B"/>
		<stop  offset="1" style="stop-color:#3EB716"/>
	</linearGradient>
	<linearGradient id="SVGID_23_" gradientUnits="userSpaceOnUse" x1="244.0412" y1="106.652" x2="244.0412" y2="142.2087">
		<stop  offset="0" style="stop-color:#51D62B"/>
		<stop  offset="1" style="stop-color:#3EB716"/>
	</linearGradient>
	<path class="st24" d="M260.1,139.1L260.1,139.1L260.1,139.1l-1.7,2.5c-0.1,0.1-0.2,0.2-0.3,0.2l0,0l-15-3.4l-0.7,1.5v0l-0.1,0.1
		l-2.9,1.8c0,0-0.1,0-0.1,0c0,0-0.1,0-0.1,0h-10.9c-0.1,0-0.2,0-0.2-0.1c-0.1-0.1-0.1-0.2,0-0.3l14.9-31.7c0,0,0,0,0,0l1.7-2.5h0v0
		c0,0,0,0,0,0h0h0.1h0h0h0l0,0l0,0l0,0l14.9,31.7v0V139.1L260.1,139.1L260.1,139.1z M242.4,138.2l-1.3-0.3l-1.3,2.8l2-1.2
		L242.4,138.2z M259.4,139l-14.6-31l-1.3,1.9l14.6,31.1L259.4,139z"/>
	<linearGradient id="SVGID_24_" gradientUnits="userSpaceOnUse" x1="280.4085" y1="107.1575" x2="280.4085" y2="141.9011">
		<stop  offset="0" style="stop-color:#51D62B"/>
		<stop  offset="1" style="stop-color:#3EB716"/>
	</linearGradient>
	<linearGradient id="SVGID_25_" gradientUnits="userSpaceOnUse" x1="280.4085" y1="106.7509" x2="280.4085" y2="142.3077">
		<stop  offset="0" style="stop-color:#51D62B"/>
		<stop  offset="1" style="stop-color:#3EB716"/>
	</linearGradient>
	<path class="st25" d="M298.6,107.8C298.6,107.8,298.6,107.8,298.6,107.8L298.6,107.8l0,31.4v0l0,0v0l0,0l-2.6,2.4c0,0,0,0,0,0h0
		c0,0-0.1,0-0.1,0h-33.2c-0.2,0-0.3-0.1-0.3-0.3v-31.7v0v0v0h0v0l1.7-2.5h0v0c0,0,0.1,0,0.1,0h0h0h0h0l0,0h0l0,0l16.5,20l14.5-17.5
		l0,0v0h0l2.6-2.1h0l0,0h0h0h0h0l0,0C298.5,107.6,298.5,107.6,298.6,107.8L298.6,107.8L298.6,107.8L298.6,107.8z M262.8,109.9
		l16.2,19.7l1.5-1.8l-16.4-19.8L262.8,109.9z M296,140.9l2-1.9v-30.6l-2,1.6V140.9z"/>
</g>
<linearGradient id="SVGID_26_" gradientUnits="userSpaceOnUse" x1="114.0178" y1="106.7015" x2="114.0178" y2="142.3571">
	<stop  offset="0" style="stop-color:#51D62B"/>
	<stop  offset="1" style="stop-color:#3EB716"/>
</linearGradient>
<path class="st26" d="M126.3,122.9c1.3,1.4,2.2,3,2.5,4.9c0.4,1.9,0.2,3.7-0.5,5.5l0,0c0,0.1,0,0.1,0,0.1c0,0.1,0,0.1,0,0.1v0
	c-0.9,1.9-2,3.5-3.3,4.9l-0.1,0.1c-1.3,1.4-2.6,2.3-4,2.7c-1.4,0.4-2.8,0.6-4.3,0.6c-0.3,0-0.6,0-0.9,0c-0.3,0-0.6,0-0.9,0
	c-0.3,0-0.6,0-0.9,0c-0.3,0-0.6,0-1,0H100c-0.1,0-0.2,0-0.2,0c0,0,0,0,0,0l0,0v0v0l0,0h0v-0.1v0h0l1.7-2.5l9.8-13.1
	c-0.2,0-0.3,0-0.5,0c-0.2,0-0.3,0-0.5,0c-0.8,0-1.6,0-2.3,0c-0.8,0-1.5-0.1-2.2-0.3c-0.7-0.2-1.4-0.5-2.2-0.9
	c-0.7-0.4-1.4-1.1-2-1.9c-1-1.2-1.5-2.5-1.7-4c-0.2-1.5,0-2.9,0.7-4.3l0,0l0.1-0.3c0.4-0.8,0.8-1.6,1.3-2.3c0.5-0.7,1.1-1.4,1.8-2.1
	c0.7-0.7,1.3-1.2,1.9-1.6c0.6-0.3,1.3-0.6,2-0.7c0.7-0.1,1.4-0.2,2.2-0.2c0.8,0,1.6,0,2.5,0h1.9h10.9h0h0c0,0,0,0,0,0h0v0h0v0l0,0
	v0.1v0v0l0,0v0l-1.7,2.5l-7.3,9.8h0.3c0.9,0,1.7,0,2.5,0c0.8,0,1.6,0.1,2.4,0.3c0.8,0.2,1.6,0.5,2.4,0.9
	C124.8,121.5,125.6,122.1,126.3,122.9z M112.4,107.8c-0.8,0-1.6,0-2.3,0c-0.7,0-1.4,0.1-2.1,0.2c-0.7,0.1-1.3,0.3-1.9,0.7
	c-0.6,0.3-1.3,0.8-1.9,1.5c-0.2,0.1-0.3,0.3-0.4,0.4c-0.1,0.1-0.2,0.3-0.3,0.4c0.6-0.4,1.1-0.7,1.7-0.8c0.6-0.2,1.2-0.3,1.8-0.3
	c0.6-0.1,1.2-0.1,1.8-0.1c0.6,0,1.2,0,1.8,0h1.9h10.8l1.3-1.9h-10.3c-0.3,0-0.6,0-0.9,0C113,107.7,112.7,107.8,112.4,107.8z
	 M125.5,126.6c0.9,1.3,1.4,2.6,1.6,4c0.2,1.4,0.1,2.8-0.3,4.2c0.2-0.3,0.3-0.5,0.4-0.8c0.1-0.3,0.2-0.5,0.4-0.8
	c0.7-1.7,0.9-3.4,0.6-5.2c-0.3-1.8-1.1-3.3-2.4-4.7c-0.7-0.7-1.4-1.3-2.1-1.7c-0.7-0.4-1.4-0.7-2.2-0.8c-0.8-0.2-1.5-0.3-2.4-0.3
	c-0.8,0-1.6,0-2.5,0h-0.8l-1.4,1.9h0.2c1,0,2,0,3,0c1,0,1.9,0.2,2.8,0.4c0.9,0.3,1.8,0.7,2.6,1.3C124,124.6,124.7,125.5,125.5,126.6
	z"/>
<g>
	<path class="st27" d="M244.4,186h-87.8c-1.8,0-3.3-1.5-3.3-3.3v-21.4c0-1.8,1.5-3.3,3.3-3.3h87.8c1.8,0,3.4,1.5,3.4,3.3v21.4
		C247.8,184.5,246.2,186,244.4,186L244.4,186z"/>
	<path d="M247.1,182.7c0,1.5-1.2,2.7-2.7,2.7h-87.8c-1.5,0-2.7-1.2-2.7-2.7v-21.4c0-1.5,1.2-2.7,2.7-2.7h87.8c1.5,0,2.7,1.2,2.7,2.7
		L247.1,182.7L247.1,182.7z"/>
	<g>
		<g>
			<path class="st28" d="M174.3,171.8c0-2.3,1.8-3.4,1.9-3.4c-1.1-1.5-2.7-1.8-3.3-1.8c-1.4-0.1-2.7,0.8-3.4,0.8
				c-0.7,0-1.8-0.8-3-0.8c-1.5,0-2.9,0.9-3.7,2.2c-1.6,2.7-0.4,6.8,1.1,9c0.8,1.1,1.6,2.3,2.8,2.3c1.1,0,1.6-0.7,2.9-0.7
				c1.4,0,1.8,0.7,2.9,0.7c1.2,0,2-1.1,2.7-2.2c0.9-1.2,1.2-2.5,1.2-2.5C176.7,175.4,174.4,174.6,174.3,171.8z"/>
			<path class="st28" d="M172.1,165.2c0.6-0.8,1-1.8,0.9-2.9c-0.9,0-2,0.6-2.6,1.4c-0.6,0.7-1.1,1.7-0.9,2.8
				C170.4,166.5,171.5,166,172.1,165.2z"/>
		</g>
	</g>
	<g>
		<path class="st28" d="M190.8,180.1h-1.6l-0.9-2.7h-3l-0.8,2.7h-1.5l3-9.3h1.9L190.8,180.1z M188.1,176.2l-0.8-2.4
			c-0.1-0.2-0.2-0.8-0.5-1.8h0c-0.1,0.4-0.2,1-0.4,1.8l-0.8,2.4H188.1z"/>
		<path class="st28" d="M198.5,176.6c0,1.1-0.3,2-0.9,2.7c-0.6,0.6-1.2,0.9-2.1,0.9c-0.9,0-1.5-0.3-1.9-1h0v3.5h-1.5v-7.2
			c0-0.7,0-1.5-0.1-2.2h1.3l0.1,1.1h0c0.5-0.8,1.3-1.2,2.3-1.2c0.8,0,1.5,0.3,2,0.9C198.2,174.8,198.5,175.6,198.5,176.6z
			 M197,176.7c0-0.7-0.1-1.2-0.4-1.6c-0.3-0.4-0.8-0.7-1.3-0.7c-0.4,0-0.7,0.1-1,0.4c-0.3,0.2-0.5,0.6-0.6,1c0,0.2-0.1,0.3-0.1,0.5
			v1.1c0,0.5,0.1,0.9,0.4,1.2c0.3,0.3,0.7,0.5,1.2,0.5c0.6,0,1-0.2,1.3-0.6C196.8,177.9,197,177.4,197,176.7z"/>
		<path class="st28" d="M206.2,176.6c0,1.1-0.3,2-0.9,2.7c-0.6,0.6-1.2,0.9-2.1,0.9c-0.9,0-1.5-0.3-1.9-1h0v3.5h-1.5v-7.2
			c0-0.7,0-1.5-0.1-2.2h1.3l0.1,1.1h0c0.5-0.8,1.3-1.2,2.3-1.2c0.8,0,1.5,0.3,2,0.9C206,174.8,206.2,175.6,206.2,176.6z
			 M204.7,176.7c0-0.7-0.1-1.2-0.4-1.6c-0.3-0.4-0.8-0.7-1.3-0.7c-0.4,0-0.7,0.1-1,0.4c-0.3,0.2-0.5,0.6-0.6,1
			c0,0.2-0.1,0.3-0.1,0.5v1.1c0,0.5,0.1,0.9,0.4,1.2c0.3,0.3,0.7,0.5,1.2,0.5c0.6,0,1-0.2,1.3-0.6
			C204.6,177.9,204.7,177.4,204.7,176.7z"/>
		<path class="st28" d="M214.9,177.4c0,0.8-0.3,1.4-0.8,1.9c-0.6,0.5-1.5,0.8-2.5,0.8c-1,0-1.8-0.2-2.4-0.6l0.3-1.2
			c0.7,0.4,1.4,0.6,2.2,0.6c0.6,0,1-0.1,1.3-0.4c0.3-0.3,0.5-0.6,0.5-1c0-0.4-0.1-0.7-0.4-1c-0.3-0.3-0.7-0.5-1.3-0.7
			c-1.6-0.6-2.4-1.5-2.4-2.7c0-0.8,0.3-1.4,0.9-1.9c0.6-0.5,1.3-0.7,2.3-0.7c0.8,0,1.6,0.1,2.1,0.4l-0.4,1.2
			c-0.5-0.3-1.1-0.4-1.8-0.4c-0.5,0-0.9,0.1-1.2,0.4c-0.2,0.2-0.4,0.5-0.4,0.8c0,0.4,0.1,0.7,0.4,0.9c0.2,0.2,0.7,0.5,1.4,0.7
			c0.8,0.3,1.4,0.7,1.8,1.1C214.7,176.3,214.9,176.8,214.9,177.4z"/>
		<path class="st28" d="M219.8,174.5h-1.6v3.3c0,0.8,0.3,1.2,0.9,1.2c0.3,0,0.5,0,0.7-0.1l0,1.1c-0.3,0.1-0.7,0.2-1.2,0.2
			c-0.6,0-1.1-0.2-1.4-0.5c-0.3-0.4-0.5-1-0.5-1.8v-3.4h-1v-1.1h1v-1.2l1.5-0.4v1.7h1.6C219.8,173.3,219.8,174.5,219.8,174.5z"/>
		<path class="st28" d="M227.2,176.6c0,1-0.3,1.9-0.9,2.5c-0.6,0.7-1.4,1-2.5,1c-1,0-1.8-0.3-2.4-1c-0.6-0.7-0.9-1.5-0.9-2.5
			c0-1,0.3-1.9,0.9-2.6c0.6-0.7,1.4-1,2.4-1c1,0,1.8,0.3,2.4,1C226.9,174.8,227.2,175.6,227.2,176.6z M225.7,176.7
			c0-0.6-0.1-1.2-0.4-1.6c-0.3-0.5-0.8-0.8-1.3-0.8c-0.6,0-1.1,0.3-1.4,0.8c-0.3,0.4-0.4,1-0.4,1.6c0,0.6,0.1,1.2,0.4,1.6
			c0.3,0.5,0.8,0.8,1.4,0.8c0.6,0,1-0.3,1.3-0.8C225.5,177.8,225.7,177.3,225.7,176.7z"/>
		<path class="st28" d="M232.1,174.6c-0.1,0-0.3,0-0.5,0c-0.5,0-0.9,0.2-1.2,0.6c-0.2,0.4-0.4,0.8-0.4,1.3v3.5h-1.5l0-4.6
			c0-0.8,0-1.5-0.1-2.1h1.3l0.1,1.3h0c0.2-0.4,0.4-0.8,0.7-1.1c0.3-0.2,0.7-0.4,1.1-0.4c0.1,0,0.3,0,0.4,0
			C232.1,173.2,232.1,174.6,232.1,174.6z"/>
		<path class="st28" d="M238.8,176.4c0,0.3,0,0.5-0.1,0.7h-4.5c0,0.7,0.2,1.2,0.6,1.5c0.4,0.3,0.9,0.5,1.5,0.5
			c0.7,0,1.3-0.1,1.8-0.3l0.2,1c-0.6,0.3-1.4,0.4-2.3,0.4c-1,0-1.9-0.3-2.5-0.9c-0.6-0.6-0.9-1.4-0.9-2.5c0-1,0.3-1.9,0.8-2.5
			c0.6-0.7,1.4-1.1,2.3-1.1c1,0,1.7,0.4,2.2,1.1C238.6,174.8,238.8,175.5,238.8,176.4z M237.3,176c0-0.4-0.1-0.8-0.3-1.1
			c-0.3-0.4-0.7-0.6-1.2-0.6c-0.5,0-0.9,0.2-1.2,0.6c-0.2,0.3-0.4,0.7-0.4,1.2L237.3,176L237.3,176z"/>
	</g>
	<g>
		<g>
			<path class="st28" d="M187.6,165c0,0.8-0.2,1.4-0.7,1.9c-0.5,0.4-1.1,0.6-1.9,0.6c-0.4,0-0.8,0-1.1-0.1v-4.5
				c0.4-0.1,0.8-0.1,1.3-0.1c0.8,0,1.4,0.2,1.8,0.5C187.4,163.7,187.6,164.3,187.6,165z M186.8,165c0-0.5-0.1-0.9-0.4-1.2
				c-0.3-0.3-0.7-0.4-1.2-0.4c-0.2,0-0.4,0-0.6,0v3.4c0.1,0,0.3,0,0.5,0c0.6,0,1-0.2,1.3-0.5C186.7,166.1,186.8,165.6,186.8,165z"/>
			<path class="st28" d="M191.7,165.7c0,0.5-0.1,0.9-0.4,1.2c-0.3,0.3-0.7,0.5-1.2,0.5c-0.5,0-0.9-0.2-1.2-0.5
				c-0.3-0.3-0.4-0.7-0.4-1.2c0-0.5,0.1-0.9,0.4-1.3c0.3-0.3,0.7-0.5,1.2-0.5c0.5,0,0.9,0.2,1.2,0.5
				C191.5,164.8,191.7,165.2,191.7,165.7z M190.9,165.7c0-0.3-0.1-0.6-0.2-0.8c-0.2-0.3-0.4-0.4-0.7-0.4c-0.3,0-0.5,0.1-0.7,0.4
				c-0.1,0.2-0.2,0.5-0.2,0.8c0,0.3,0.1,0.6,0.2,0.8c0.2,0.3,0.4,0.4,0.7,0.4c0.3,0,0.5-0.1,0.7-0.4
				C190.9,166.3,190.9,166.1,190.9,165.7z"/>
			<path class="st28" d="M197.2,164.1l-1,3.3h-0.7l-0.4-1.4c-0.1-0.4-0.2-0.7-0.3-1.1h0c-0.1,0.4-0.2,0.7-0.3,1.1l-0.5,1.4h-0.7
				l-1-3.3h0.8l0.4,1.6c0.1,0.4,0.2,0.7,0.2,1.1h0c0.1-0.3,0.1-0.6,0.3-1.1l0.5-1.6h0.6l0.4,1.5c0.1,0.4,0.2,0.7,0.3,1.1h0
				c0-0.3,0.1-0.7,0.2-1.1l0.4-1.5L197.2,164.1L197.2,164.1z"/>
			<path class="st28" d="M201,167.4h-0.7v-1.9c0-0.6-0.2-0.9-0.7-0.9c-0.2,0-0.4,0.1-0.5,0.2c-0.1,0.2-0.2,0.3-0.2,0.6v2h-0.7V165
				c0-0.3,0-0.6,0-0.9h0.6l0,0.5h0c0.1-0.2,0.2-0.3,0.4-0.4c0.2-0.1,0.4-0.2,0.7-0.2c0.3,0,0.6,0.1,0.8,0.3c0.3,0.2,0.4,0.6,0.4,1.1
				V167.4z"/>
			<path class="st28" d="M203,167.4h-0.7v-4.8h0.7V167.4z"/>
			<path class="st28" d="M207.3,165.7c0,0.5-0.1,0.9-0.4,1.2c-0.3,0.3-0.7,0.5-1.2,0.5c-0.5,0-0.9-0.2-1.2-0.5
				c-0.3-0.3-0.4-0.7-0.4-1.2c0-0.5,0.1-0.9,0.4-1.3s0.7-0.5,1.2-0.5c0.5,0,0.9,0.2,1.2,0.5C207.2,164.8,207.3,165.2,207.3,165.7z
				 M206.6,165.7c0-0.3-0.1-0.6-0.2-0.8c-0.2-0.3-0.4-0.4-0.7-0.4c-0.3,0-0.5,0.1-0.7,0.4c-0.1,0.2-0.2,0.5-0.2,0.8
				c0,0.3,0.1,0.6,0.2,0.8c0.2,0.3,0.4,0.4,0.7,0.4c0.3,0,0.5-0.1,0.7-0.4C206.5,166.3,206.6,166.1,206.6,165.7z"/>
			<path class="st28" d="M210.9,167.4h-0.7l-0.1-0.4h0c-0.2,0.3-0.5,0.5-1,0.5c-0.3,0-0.6-0.1-0.8-0.3c-0.2-0.2-0.3-0.4-0.3-0.7
				c0-0.4,0.2-0.7,0.5-0.9c0.3-0.2,0.8-0.3,1.4-0.3v-0.1c0-0.4-0.2-0.7-0.7-0.7c-0.3,0-0.6,0.1-0.9,0.2l-0.1-0.5
				c0.3-0.2,0.7-0.3,1.1-0.3c0.9,0,1.3,0.5,1.3,1.4v1.2C210.8,166.9,210.8,167.2,210.9,167.4z M210.1,166.3v-0.5
				c-0.8,0-1.2,0.2-1.2,0.7c0,0.2,0,0.3,0.1,0.4c0.1,0.1,0.2,0.1,0.4,0.1c0.2,0,0.3-0.1,0.4-0.2c0.1-0.1,0.2-0.2,0.3-0.4
				C210.1,166.4,210.1,166.3,210.1,166.3z"/>
			<path class="st28" d="M215,167.4h-0.7l0-0.5h0c-0.2,0.4-0.6,0.6-1.1,0.6c-0.4,0-0.7-0.2-1-0.5c-0.3-0.3-0.4-0.7-0.4-1.2
				c0-0.5,0.1-1,0.4-1.3c0.3-0.3,0.6-0.5,1-0.5c0.4,0,0.8,0.1,0.9,0.4h0v-1.9h0.7v3.9C215,166.8,215,167.1,215,167.4z M214.3,166
				v-0.6c0-0.1,0-0.2,0-0.2c0-0.2-0.1-0.3-0.3-0.4c-0.1-0.1-0.3-0.2-0.5-0.2c-0.3,0-0.5,0.1-0.6,0.3c-0.2,0.2-0.2,0.5-0.2,0.8
				c0,0.3,0.1,0.6,0.2,0.8c0.2,0.2,0.4,0.3,0.6,0.3c0.2,0,0.4-0.1,0.6-0.3C214.2,166.4,214.3,166.2,214.3,166z"/>
			<path class="st28" d="M221.3,165.7c0,0.5-0.1,0.9-0.4,1.2c-0.3,0.3-0.7,0.5-1.2,0.5c-0.5,0-0.9-0.2-1.2-0.5
				c-0.3-0.3-0.4-0.7-0.4-1.2c0-0.5,0.1-0.9,0.4-1.3s0.7-0.5,1.2-0.5c0.5,0,0.9,0.2,1.2,0.5C221.2,164.8,221.3,165.2,221.3,165.7z
				 M220.6,165.7c0-0.3-0.1-0.6-0.2-0.8c-0.2-0.3-0.4-0.4-0.7-0.4c-0.3,0-0.5,0.1-0.7,0.4c-0.1,0.2-0.2,0.5-0.2,0.8
				c0,0.3,0.1,0.6,0.2,0.8c0.2,0.3,0.4,0.4,0.7,0.4c0.3,0,0.5-0.1,0.7-0.4C220.5,166.3,220.6,166.1,220.6,165.7z"/>
			<path class="st28" d="M225.3,167.4h-0.7v-1.9c0-0.6-0.2-0.9-0.7-0.9c-0.2,0-0.4,0.1-0.5,0.2s-0.2,0.3-0.2,0.6v2h-0.7V165
				c0-0.3,0-0.6,0-0.9h0.6l0,0.5h0c0.1-0.2,0.2-0.3,0.4-0.4c0.2-0.1,0.4-0.2,0.7-0.2c0.3,0,0.6,0.1,0.8,0.3c0.3,0.2,0.4,0.6,0.4,1.1
				V167.4z"/>
			<path class="st28" d="M230.2,164.7h-0.8v1.6c0,0.4,0.1,0.6,0.4,0.6c0.1,0,0.2,0,0.3,0l0,0.6c-0.1,0.1-0.3,0.1-0.6,0.1
				c-0.3,0-0.5-0.1-0.7-0.3c-0.2-0.2-0.2-0.5-0.2-0.9v-1.7h-0.5v-0.5h0.5v-0.6l0.7-0.2v0.8h0.8L230.2,164.7L230.2,164.7z"/>
			<path class="st28" d="M234.1,167.4h-0.7v-1.9c0-0.6-0.2-0.9-0.7-0.9c-0.3,0-0.6,0.2-0.7,0.5c0,0.1,0,0.2,0,0.3v2h-0.7v-4.8h0.7v2
				h0c0.2-0.4,0.6-0.5,1-0.5c0.3,0,0.6,0.1,0.8,0.3c0.2,0.2,0.4,0.6,0.4,1.1C234.1,165.4,234.1,167.4,234.1,167.4z"/>
			<path class="st28" d="M238.1,165.6c0,0.1,0,0.2,0,0.3h-2.2c0,0.3,0.1,0.6,0.3,0.7c0.2,0.2,0.4,0.2,0.7,0.2c0.3,0,0.6-0.1,0.9-0.2
				l0.1,0.5c-0.3,0.1-0.7,0.2-1.1,0.2c-0.5,0-0.9-0.2-1.2-0.5c-0.3-0.3-0.4-0.7-0.4-1.2c0-0.5,0.1-0.9,0.4-1.2
				c0.3-0.4,0.7-0.5,1.2-0.5c0.5,0,0.8,0.2,1.1,0.5C238,164.8,238.1,165.2,238.1,165.6z M237.4,165.4c0-0.2,0-0.4-0.1-0.6
				c-0.1-0.2-0.3-0.3-0.6-0.3c-0.2,0-0.4,0.1-0.6,0.3c-0.1,0.2-0.2,0.3-0.2,0.6C235.9,165.4,237.4,165.4,237.4,165.4z"/>
		</g>
	</g>
</g>
</svg>
