<svg id="Layer_1" data-name="Layer 1" xmlns="http://www.w3.org/2000/svg" viewBox="0 0 400 200"><title>Contact Full</title><rect width="400" height="200" style="fill:#104b75"/><path d="M128.0684,87.8062v6.2095a13.6473,13.6473,0,0,1-7.9248,2.1958,9.4143,9.4143,0,0,1-7.3931-2.9673q-2.6594-2.967-2.6592-8.8a14.9405,14.9405,0,0,1,.6694-4.6318,10.5255,10.5255,0,0,1,1.75-3.396,9.9612,9.9612,0,0,1,2.5215-2.23,12.0624,12.0624,0,0,1,6.2266-1.6128A15.21,15.21,0,0,1,127.76,73.98v5.832l-3.5.24V77.377a1.5839,1.5839,0,0,0-.1372-.7549q-.3779-.6511-3.1221-.6519-6.6211,0-6.6211,8.2,0,8.6448,5.9692,8.645a6.69,6.69,0,0,0,3.6367-.8232V86.88h-.0342l-2.6416-.103v-2.916h8.5425v2.7446l-.7891.0688a1.3165,1.3165,0,0,0-.772.2915A1.1933,1.1933,0,0,0,128.0684,87.8062Z" style="fill:#fff"/><path d="M140.4531,78.0288a6.2,6.2,0,0,1,4.0825,1.252,4.3168,4.3168,0,0,1,1.51,3.5166,5.3161,5.3161,0,0,1-2.2646,4.46,8.4706,8.4706,0,0,1-2.3325,1.0635,18.08,18.08,0,0,1-5.1807.686A4.5533,4.5533,0,0,0,137.4,91.94a4.0952,4.0952,0,0,0,3.1563,1.1147,7.3182,7.3182,0,0,0,4.2539-1.5093l1.3037,2.7788a8.0741,8.0741,0,0,1-2.3159,1.269,9.96,9.96,0,0,1-3.7222.6519q-4.1858,0-6.1406-2.3154a9.5588,9.5588,0,0,1-1.9556-6.3643,10.42,10.42,0,0,1,2.23-6.7925A7.594,7.594,0,0,1,140.4531,78.0288Zm-1.561,7.8394a5.565,5.565,0,0,0,2.3159-.9951,2.2363,2.2363,0,0,0,1.0635-1.8354,1.8348,1.8348,0,0,0-2.0586-2.0928,3.3446,3.3446,0,0,0-2.95,1.5269A7.0109,7.0109,0,0,0,136.13,86.125,18.0786,18.0786,0,0,0,138.8921,85.8682Z" style="fill:#fff"/><path d="M152.2544,74.9067h2.23v3.6367h4.5625l-.3428,2.8818h-4.22v9.0225a3.1334,3.1334,0,0,0,.5488,2.11,2.1911,2.1911,0,0,0,1.6982.6006,4.3828,4.3828,0,0,0,2.3154-.7207l1.0293,2.6421a7.4261,7.4261,0,0,1-4.3569,1.2007,7.5442,7.5442,0,0,1-2.6074-.3945,4.7312,4.7312,0,0,1-1.5781-.875,3.0668,3.0668,0,0,1-.7891-1.4067,7.064,7.064,0,0,1-.3086-1.458q-.0344-.531-.0347-1.561v-9.16h-2.4355l.3433-2.5044a3.3438,3.3438,0,0,0,2.4355-1.1494A10.1754,10.1754,0,0,0,152.2544,74.9067Z" style="fill:#fff"/><path d="M174.4507,78.5435V92.9521l1.9556.103V95.8h-8.165V93.1924l1.1318-.103a.9882.9882,0,0,0,.9951-1.0977V82.4546a1.2035,1.2035,0,0,0-.189-.7891.8831.8831,0,0,0-.6689-.2061l-1.2007-.0688V78.5435Zm-4.3228-2.9678a2.4057,2.4057,0,0,1-.7207-1.8008,2.4962,2.4962,0,0,1,2.6074-2.5732,2.5788,2.5788,0,0,1,1.9043.7378,2.4931,2.4931,0,0,1,.7373,1.8354,2.3792,2.3792,0,0,1-.7373,1.8008,2.6464,2.6464,0,0,1-1.9043.7036A2.5843,2.5843,0,0,1,170.1279,75.5757Z" style="fill:#fff"/><path d="M178.19,81.2881V78.5435h5.7979v2.23a6.2494,6.2494,0,0,1,2.3672-2.0068,7.0345,7.0345,0,0,1,3.19-.7378,5.3083,5.3083,0,0,1,4.0313,1.4922A6.2658,6.2658,0,0,1,195,83.998v8.9541l1.9556.103V95.8h-8.165V93.1924l1.1318-.103a1.3538,1.3538,0,0,0,.7549-.2915,1.1361,1.1361,0,0,0,.24-.84V84.89a5.2816,5.2816,0,0,0-.5835-2.7959,2.4315,2.4315,0,0,0-2.2124-.9092,3.3719,3.3719,0,0,0-2.59,1.0293,3.4489,3.4489,0,0,0-.96,2.4355v8.3022l1.9551.103V95.8h-8.165V93.1924l1.1323-.103a1.3554,1.3554,0,0,0,.7549-.2915,1.1361,1.1361,0,0,0,.24-.84V82.4546q0-1.03-.8579-1.064Z" style="fill:#fff"/><path d="M209.6494,74.9067h2.2295v3.6367h4.5625L216.1,81.4253h-4.2207v9.0225a3.1388,3.1388,0,0,0,.5488,2.11,2.192,2.192,0,0,0,1.6992.6006,4.3784,4.3784,0,0,0,2.3145-.7207l1.0293,2.6421a7.4234,7.4234,0,0,1-4.3564,1.2007,7.5423,7.5423,0,0,1-2.6074-.3945,4.7262,4.7262,0,0,1-1.5781-.875,3.0712,3.0712,0,0,1-.7891-1.4067,7.0969,7.0969,0,0,1-.3086-1.458q-.0337-.531-.0342-1.561v-9.16h-2.4355l.3428-2.5044a3.3429,3.3429,0,0,0,2.4355-1.1494A10.1754,10.1754,0,0,0,209.6494,74.9067Z" style="fill:#fff"/><path d="M218.0889,87.1543a11.7246,11.7246,0,0,1,.7549-4.4082,6.7373,6.7373,0,0,1,2.0234-2.8647,8.6944,8.6944,0,0,1,5.3867-1.8525,8.1569,8.1569,0,0,1,3.4824.6689,6.0151,6.0151,0,0,1,3.6016,4.0825,12.2363,12.2363,0,0,1,.5664,3.9282q0,4.7344-2.2988,7.17a7.7305,7.7305,0,0,1-5.8828,2.436,7.0568,7.0568,0,0,1-5.6094-2.3159Q218.0889,91.6833,218.0889,87.1543Zm7.8906,6.1411q3.7383,0,3.7393-6.0381a10.12,10.12,0,0,0-.84-4.6313,2.9371,2.9371,0,0,0-2.8145-1.5781,3.1562,3.1562,0,0,0-2.8984,1.5093,7.8476,7.8476,0,0,0-.9258,4.1172q0,4.8369,1.7832,6.0723A3.3407,3.3407,0,0,0,225.9795,93.2954Z" style="fill:#fff"/><path d="M253.8711,93.0894V95.8h-5.5576V93.57a6.3647,6.3647,0,0,1-5.5576,2.6758q-5.3188,0-5.3184-5.9351V82.3857q0-.9265-.8574-.96l-1.0977-.0688v-2.813h6.0381v10.875a5.78,5.78,0,0,0,.5146,2.7446,2.2164,2.2164,0,0,0,2.127.9263,3.4664,3.4664,0,0,0,2.59-.9946,3.2991,3.2991,0,0,0,.9785-2.4014V82.4546a1.21,1.21,0,0,0-.1895-.772.9314.9314,0,0,0-.668-.2573l-1.0986-.0688v-2.813h6.0381V91.9917a.7893.7893,0,0,0,.8574.9951Z" style="fill:#fff"/><path d="M261.2129,91.5112a3.6006,3.6006,0,0,0,3.1738,1.6128,6.9142,6.9142,0,0,0,4.1-1.4756l1.4746,2.6421a9.3369,9.3369,0,0,1-6.1064,1.99,7.4258,7.4258,0,0,1-5.78-2.3159q-2.1108-2.3159-2.11-6.8442t2.4189-6.81a7.7462,7.7462,0,0,1,5.4541-2.2812,11.7027,11.7027,0,0,1,5.6436,1.4067v4.46l-3.1562.24V82.4888q0-.9265-.6689-1.1494a4.3731,4.3731,0,0,0-1.39-.2231q-4.1514,0-4.15,5.8667A7.978,7.978,0,0,0,261.2129,91.5112Z" style="fill:#fff"/><path d="M274.2148,91.9575V75.25a1.1327,1.1327,0,0,0-.1895-.7549.9808.9808,0,0,0-.668-.24l-1.2012-.0684V71.3389h6.1064v9.2285a5.7694,5.7694,0,0,1,5.0088-2.5386,5.3083,5.3083,0,0,1,4.0313,1.4922,6.2636,6.2636,0,0,1,1.4238,4.4771v8.9541l1.9551.103V95.8h-8.1641V93.1924l1.1309-.103a1.3558,1.3558,0,0,0,.7559-.2915,1.1382,1.1382,0,0,0,.24-.84V84.89a5.4638,5.4638,0,0,0-.5664-2.7446,2.333,2.333,0,0,0-2.1953-.96,3.4584,3.4584,0,0,0-2.6074,1.0122,3.3989,3.3989,0,0,0-.9785,2.4526v8.3022l1.9551.103V95.8h-8.1641V93.1924l1.1318-.103a1.3554,1.3554,0,0,0,.7549-.2915A1.134,1.134,0,0,0,274.2148,91.9575Z" style="fill:#fff"/><path d="M102.1294,123.6514V110.8281a.8694.8694,0,0,0-.1445-.5791.7562.7562,0,0,0-.5137-.1846l-.9214-.0527v-2.1855h4.6865v7.083a4.43,4.43,0,0,1,3.8447-1.9482,4.0736,4.0736,0,0,1,3.0938,1.1455,4.8079,4.8079,0,0,1,1.0928,3.4365v6.8721l1.501.0791v2.1064h-6.2671V124.6l.8691-.0791a1.0419,1.0419,0,0,0,.5791-.2236.8731.8731,0,0,0,.1846-.6455v-5.4238a4.1882,4.1882,0,0,0-.4346-2.1064,1.7913,1.7913,0,0,0-1.6851-.7373,2.6557,2.6557,0,0,0-2.0015.7764,2.6111,2.6111,0,0,0-.75,1.8828v6.3721l1.501.0791v2.1064h-6.2666V124.6l.8687-.0791a1.0436,1.0436,0,0,0,.58-.2236A.8733.8733,0,0,0,102.1294,123.6514Z" style="fill:#fff"/><path d="M122.9307,112.9609a4.7576,4.7576,0,0,1,3.1333.9609,3.3141,3.3141,0,0,1,1.1587,2.6992,4.0766,4.0766,0,0,1-1.7378,3.4229,6.4969,6.4969,0,0,1-1.7905.8164,13.8742,13.8742,0,0,1-3.9761.5264,3.4939,3.4939,0,0,0,.8691,2.252,3.1426,3.1426,0,0,0,2.4224.8555,5.6169,5.6169,0,0,0,3.2651-1.1582l1,2.1328a6.2156,6.2156,0,0,1-1.7773.9736,7.6574,7.6574,0,0,1-2.8569.501,5.83,5.83,0,0,1-4.7134-1.7783,7.3347,7.3347,0,0,1-1.501-4.8838,7.9973,7.9973,0,0,1,1.7119-5.2139A5.8278,5.8278,0,0,1,122.9307,112.9609Zm-1.1982,6.0166a4.2659,4.2659,0,0,0,1.7778-.7637,1.7156,1.7156,0,0,0,.8159-1.4082,1.408,1.408,0,0,0-1.58-1.6064,2.5674,2.5674,0,0,0-2.2646,1.1719,5.3771,5.3771,0,0,0-.8691,2.8037A13.7962,13.7962,0,0,0,121.7324,118.9775Z" style="fill:#fff"/><path d="M133.7793,107.8262V124.415l1.501.0791v2.1064h-6.2666V124.6l.8687-.0791a.7584.7584,0,0,0,.7637-.8428V110.6963q0-.5786-.6582-.6318l-.9214-.0527v-2.1855Z" style="fill:#fff"/><path d="M141.6255,107.8262V124.415l1.501.0791v2.1064H136.86V124.6l.8687-.0791a.7584.7584,0,0,0,.7637-.8428V110.6963q0-.5786-.6582-.6318l-.9214-.0527v-2.1855Z" style="fill:#fff"/><path d="M144.7593,119.9648a9.0131,9.0131,0,0,1,.5791-3.3838,5.1749,5.1749,0,0,1,1.5537-2.1982,6.6674,6.6674,0,0,1,4.1338-1.4219,6.2524,6.2524,0,0,1,2.6729.5137,4.6151,4.6151,0,0,1,2.7646,3.1328,9.3907,9.3907,0,0,1,.4346,3.0156,7.7375,7.7375,0,0,1-1.7642,5.5029,5.9328,5.9328,0,0,1-4.5161,1.8691,5.4154,5.4154,0,0,1-4.3052-1.7773A7.7723,7.7723,0,0,1,144.7593,119.9648Zm6.0562,4.7139q2.87,0,2.87-4.6348a7.7623,7.7623,0,0,0-.645-3.5547,2.2525,2.2525,0,0,0-2.1592-1.2109,2.4212,2.4212,0,0,0-2.2251,1.1582,6.0192,6.0192,0,0,0-.7109,3.16q0,3.7119,1.3691,4.66A2.5609,2.5609,0,0,0,150.8154,124.6787Z" style="fill:#fff"/><path d="M178.8052,119.1221a7.5591,7.5591,0,0,0-1.9746-5.4893q-1.9746-2.0405-6.0825-2.041a8.1944,8.1944,0,0,0-6.438,2.6064,10.7536,10.7536,0,0,0-.2373,13.0605,7.329,7.329,0,0,0,5.8589,2.4229,10.06,10.06,0,0,0,4.1606-.8164l.6582,1.9219a12.07,12.07,0,0,1-4.8057.8955,11.84,11.84,0,0,1-4.7529-.8818,8.24,8.24,0,0,1-3.2388-2.4092,11.3816,11.3816,0,0,1-2.396-7.373q0-5.4243,3.2388-8.4521a11.6932,11.6932,0,0,1,8.3208-3.0283,10.3519,10.3519,0,0,1,7.2412,2.4883,9,9,0,0,1,2.7383,7.0176,7.9443,7.9443,0,0,1-1.7905,5.6084,6.2851,6.2851,0,0,1-4.7661,1.9482h-1.5l-.2109-1.4219-.0791-.0264a3.49,3.49,0,0,1-3.1069,1.5273q-4.292,0-4.292-5.3721a6.9241,6.9241,0,0,1,1.4878-4.7393,5.34,5.34,0,0,1,4.2261-1.6855,11.3243,11.3243,0,0,1,3.95.7637v7.7158l.1055,1.3955Q178.8054,124.5205,178.8052,119.1221Zm-6.3984-2.0273a3.5883,3.5883,0,0,0-1.501-.2891q-2.9758.0264-2.9751,4.4229,0,3.5024,2.3169,3.5029,2.1592,0,2.1592-2.5283Z" style="fill:#fff"/><path d="M195.5781,113.8828v9.7949a.8684.8684,0,0,0,.1445.5791.7532.7532,0,0,0,.5137.1846l.8423.0527v2.1064h-4.1865v-1.5273l-.0791-.0264a4.1635,4.1635,0,0,1-3.6074,1.8965,4.6568,4.6568,0,0,1-3.9761-1.7119,7.6225,7.6225,0,0,1-1.29-4.6875,8.24,8.24,0,0,1,1.7378-5.582,6.5347,6.5347,0,0,1,5.2139-2.001A13.3036,13.3036,0,0,1,195.5781,113.8828Zm-3.0547,8.5313v-6.82a4.9194,4.9194,0,0,0-2.0273-.3418,2.7017,2.7017,0,0,0-2.5542,1.4219,7.7409,7.7409,0,0,0-.79,3.7656q0,4.2656,2.7383,4.2656a2.6443,2.6443,0,0,0,1.896-.6982A2.14,2.14,0,0,0,192.5234,122.4141Z" style="fill:#fff"/><path d="M208.375,126.1006v-2.002a4.8865,4.8865,0,0,1-4.2656,2.0547q-4.0825,0-4.0815-4.5557v-5.293q0-.71-.6582-.7373l-.8428-.0527v-2.1592h4.6353v7.5576a4.4386,4.4386,0,0,0,.3945,2.1064,1.7022,1.7022,0,0,0,1.6328.7109,2.6561,2.6561,0,0,0,1.9863-.7637,2.5273,2.5273,0,0,0,.752-1.8428v-4.7666a.988.988,0,0,0-.1445-.6182.6491.6491,0,0,0-.5137-.1719l-.8437-.0527v-2.1592h4.6348v12.7451a6.1989,6.1989,0,0,1-1.541,4.66,6.5077,6.5077,0,0,1-4.66,1.4746,11.0471,11.0471,0,0,1-4.8579-.8691v-3.66l2.5-.21V128.76a.946.946,0,0,0,.66.9609,5.2606,5.2606,0,0,0,1.8164.25Q208.374,129.9707,208.375,126.1006Z" style="fill:#fff"/><path d="M218.38,113.3555v13.877a7.4093,7.4093,0,0,1-.6846,3.4229q-.8687,1.5806-3.5283,1.58a6.2276,6.2276,0,0,1-3.37-.9219l.9482-2.1855a4.0194,4.0194,0,0,0,1.8818.5537,1.4259,1.4259,0,0,0,1.2383-.5273,3.1533,3.1533,0,0,0,.3818-1.79V116.3574a.87.87,0,0,0-.1455-.5791.7533.7533,0,0,0-.5127-.1846l-.9219-.0527v-2.1855Zm-3.3174-2.2773a1.8488,1.8488,0,0,1-.5527-1.3828,1.9154,1.9154,0,0,1,2.001-1.9746,1.9782,1.9782,0,0,1,1.4609.5664,1.912,1.912,0,0,1,.5664,1.4082,1.8235,1.8235,0,0,1-.5664,1.3828,2.0273,2.0273,0,0,1-1.4609.54A1.9826,1.9826,0,0,1,215.0625,111.0781Z" style="fill:#fff"/><path d="M227.834,112.9609a4.7562,4.7562,0,0,1,3.1328.9609,3.3144,3.3144,0,0,1,1.1592,2.6992,4.0818,4.0818,0,0,1-1.7383,3.4229,6.5,6.5,0,0,1-1.79.8164,13.88,13.88,0,0,1-3.9766.5264,3.4965,3.4965,0,0,0,.8691,2.252,3.1429,3.1429,0,0,0,2.4219.8555,5.6171,5.6171,0,0,0,3.2656-1.1582l1.001,2.1328a6.2226,6.2226,0,0,1-1.7773.9736,7.66,7.66,0,0,1-2.8574.501,5.8293,5.8293,0,0,1-4.7129-1.7783,7.3321,7.3321,0,0,1-1.501-4.8838,8.002,8.002,0,0,1,1.7109-5.2139A5.83,5.83,0,0,1,227.834,112.9609Zm-1.1982,6.0166a4.2667,4.2667,0,0,0,1.7773-.7637,1.715,1.715,0,0,0,.8164-1.4082,1.4085,1.4085,0,0,0-1.58-1.6064,2.5668,2.5668,0,0,0-2.2646,1.1719,5.3815,5.3815,0,0,0-.8691,2.8037A13.8146,13.8146,0,0,0,226.6357,118.9775Z" style="fill:#fff"/><path d="M240.5781,112.9609a4.7562,4.7562,0,0,1,3.1328.9609,3.3144,3.3144,0,0,1,1.1592,2.6992,4.0818,4.0818,0,0,1-1.7383,3.4229,6.5,6.5,0,0,1-1.79.8164,13.88,13.88,0,0,1-3.9766.5264,3.4965,3.4965,0,0,0,.8691,2.252,3.1429,3.1429,0,0,0,2.4219.8555,5.6171,5.6171,0,0,0,3.2656-1.1582l1.001,2.1328a6.2226,6.2226,0,0,1-1.7773.9736,7.66,7.66,0,0,1-2.8574.501,5.8293,5.8293,0,0,1-4.7129-1.7783,7.3321,7.3321,0,0,1-1.501-4.8838,8.002,8.002,0,0,1,1.7109-5.2139A5.83,5.83,0,0,1,240.5781,112.9609Zm-1.1982,6.0166a4.2667,4.2667,0,0,0,1.7773-.7637,1.715,1.715,0,0,0,.8164-1.4082,1.4085,1.4085,0,0,0-1.58-1.6064,2.5668,2.5668,0,0,0-2.2646,1.1719,5.3815,5.3815,0,0,0-.8691,2.8037A13.8146,13.8146,0,0,0,239.38,118.9775Z" style="fill:#fff"/><path d="M248.8193,126.9951a1.8941,1.8941,0,0,1-1.4219-.5127,1.8413,1.8413,0,0,1-.5-1.3428,1.91,1.91,0,0,1,.5127-1.37,1.8367,1.8367,0,0,1,1.3955-.5391,1.9352,1.9352,0,0,1,1.4092.5127,1.7947,1.7947,0,0,1,.5264,1.3438,1.9386,1.9386,0,0,1-.5,1.3691A1.8448,1.8448,0,0,1,248.8193,126.9951Z" style="fill:#fff"/><path d="M256.6914,123.31a2.7638,2.7638,0,0,0,2.4355,1.2373,5.2965,5.2965,0,0,0,3.1465-1.1328l1.1328,2.0283a7.17,7.17,0,0,1-4.6875,1.5264,5.7,5.7,0,0,1-4.4365-1.7773,7.56,7.56,0,0,1-1.6191-5.2529,6.852,6.852,0,0,1,1.8564-5.2266,5.9476,5.9476,0,0,1,4.1865-1.751,8.9782,8.9782,0,0,1,4.3311,1.08v3.4229l-2.4219.1836v-1.2637a.8124.8124,0,0,0-.5137-.8818,3.35,3.35,0,0,0-1.0664-.1709q-3.186,0-3.1865,4.502A6.1328,6.1328,0,0,0,256.6914,123.31Z" style="fill:#fff"/><path d="M264.8027,119.9648a9.0034,9.0034,0,0,1,.5791-3.3838,5.179,5.179,0,0,1,1.5537-2.1982,6.6674,6.6674,0,0,1,4.1338-1.4219,6.2494,6.2494,0,0,1,2.6729.5137,4.6181,4.6181,0,0,1,2.7646,3.1328,9.3772,9.3772,0,0,1,.4346,3.0156,7.7377,7.7377,0,0,1-1.7646,5.5029,5.9318,5.9318,0,0,1-4.5156,1.8691,5.4144,5.4144,0,0,1-4.3047-1.7773A7.77,7.77,0,0,1,264.8027,119.9648Zm6.0557,4.7139q2.87,0,2.87-4.6348a7.7631,7.7631,0,0,0-.6445-3.5547,2.2525,2.2525,0,0,0-2.1592-1.2109,2.4231,2.4231,0,0,0-2.2256,1.1582,6.0239,6.0239,0,0,0-.7109,3.16q0,3.7119,1.3691,4.66A2.5641,2.5641,0,0,0,270.8584,124.6787Z" style="fill:#fff"/><path d="M278.5469,115.4883v-2.1328h4.45v1.7119a4.6727,4.6727,0,0,1,4.042-2.1064,3.4066,3.4066,0,0,1,3.4619,2.1064,4.6391,4.6391,0,0,1,4.0029-2.1064,3.7222,3.7222,0,0,1,2.9229,1.1455,5.01,5.01,0,0,1,1.0264,3.4365v6.8721l1.501.0791v2.1064h-6.2666V124.6l.8691-.0791a.9692.9692,0,0,0,.5654-.2236.9519.9519,0,0,0,.1982-.6191v-5.45a5.3043,5.3043,0,0,0-.3291-2.1465q-.33-.6973-1.541-.6973a2.3364,2.3364,0,0,0-1.8564.7373,2.8927,2.8927,0,0,0-.6445,1.9746v6.3193l1.4482.0791v2.1064h-6.2148V124.6l.8691-.0791a1.04,1.04,0,0,0,.5791-.2236.871.871,0,0,0,.1846-.6455v-5.4238a5.2873,5.2873,0,0,0-.3291-2.1465q-.33-.6973-1.5537-.6973a2.27,2.27,0,0,0-1.8564.7637,2.8748,2.8748,0,0,0-.6318,1.8955v6.3721l1.4219.0791v2.1064h-6.2139V124.6l.8691-.0791a1.0434,1.0434,0,0,0,.5791-.2236.8753.8753,0,0,0,.1846-.6455h.0264v-7.2676a.9808.9808,0,0,0-.1455-.6182.7156.7156,0,0,0-.5137-.1982Z" style="fill:#fff"/></svg>