<svg id="Layer_1" data-name="Layer 1" xmlns="http://www.w3.org/2000/svg" xmlns:xlink="http://www.w3.org/1999/xlink" viewBox="0 0 400 200"><defs><style>.cls-1{fill:url(#linear-gradient);}.cls-2{fill:#21ad35;}.cls-3{fill:#e2ba8a;}.cls-4{fill:#1fc932;}.cls-5{fill:url(#radial-gradient);}.cls-6{fill:#fff;}.cls-7{fill:#4ba6dd;}.cls-8{fill:#dd85a2;}.cls-9{fill:#af5278;}.cls-10{fill:#4c2511;}.cls-11{fill:#ce1b1b;opacity:0.77;}.cls-12{fill:#f4a4bb;}.cls-13{fill:#aa26db;}.cls-14{fill:#25a525;}.cls-15{fill:#a6a6a6;}</style><linearGradient id="linear-gradient" x1="200" y1="200" x2="200" gradientUnits="userSpaceOnUse"><stop offset="0" stop-color="#70c6f2"/><stop offset="1" stop-color="#4bb0ef"/></linearGradient><radialGradient id="radial-gradient" cx="182.12" cy="121.95" r="35" gradientTransform="translate(300.95 -67.12) rotate(90)" gradientUnits="userSpaceOnUse"><stop offset="0" stop-color="#f4a4bb"/><stop offset="0.6" stop-color="#f3a2ba"/><stop offset="0.81" stop-color="#f19bb6"/><stop offset="0.97" stop-color="#ee90af"/><stop offset="1" stop-color="#ed8cad"/></radialGradient></defs><title>Jumpig</title><rect class="cls-1" width="400" height="200"/><polygon class="cls-2" points="400 179 0 179.25 -0.01 169.2 400 169 400 179"/><polygon class="cls-3" points="400 179 0 179.25 0 200 400 200 400 179"/><polygon class="cls-4" points="400 169 -0.01 169.2 -0.02 158.15 400 158 400 169"/><circle class="cls-5" cx="179" cy="115" r="35" transform="translate(-4.83 222.1) rotate(-62.94)"/><ellipse class="cls-6" cx="167.05" cy="108.45" rx="10.55" ry="9.89" transform="translate(-5.51 207.89) rotate(-62.94)"/><ellipse class="cls-7" cx="167.05" cy="108.45" rx="5.13" ry="4.81" transform="translate(-5.51 207.89) rotate(-62.94)"/><ellipse class="cls-6" cx="191.79" cy="121.08" rx="10.55" ry="9.89" transform="translate(-3.28 236.81) rotate(-62.94)"/><ellipse class="cls-7" cx="191.79" cy="121.08" rx="5.13" ry="4.81" transform="translate(-3.28 236.81) rotate(-62.94)"/><path class="cls-8" d="M179.89,136.75c-2.68,5.26-8.39,5.91-13.65,3.23s-8.07-7.69-5.39-13,8.27-5.68,13.53-3S182.57,131.5,179.89,136.75Z"/><path class="cls-9" d="M169.42,131.41a2.68,2.68,0,1,1-1-3.83A2.72,2.72,0,0,1,169.42,131.41Z"/><path class="cls-9" d="M176.56,135.05a2.68,2.68,0,1,1-1-3.83A2.72,2.72,0,0,1,176.56,135.05Z"/><path class="cls-10" d="M181,98.07c-2.08,2.66-4.78,0-9.85-1.8s-8.76-1.69-8.78-4.82c0-1.33,5.13-1,10.21.79S181.82,97,181,98.07Z"/><path class="cls-10" d="M209.12,116.08c-2.78,1.92-4.56-1.42-8.86-4.66s-7.85-4.23-6.94-7.22c.39-1.27,5.2.57,9.51,3.81S210.21,115.33,209.12,116.08Z"/><path class="cls-11" d="M214,113.6a35.17,35.17,0,0,0-3.71-14.32,79.26,79.26,0,0,0-39.06-18.4,35.13,35.13,0,0,0-13.07,6Q191.63,89.34,214,113.6Z"/><path class="cls-6" d="M108.75,64.83a17.53,17.53,0,0,1-7.47-1.42,11.21,11.21,0,0,1-4.92-4.65,16.71,16.71,0,0,1-1.57-3.89,15.94,15.94,0,0,1-.6-4.19,4.4,4.4,0,0,1,4.63-4.78,3.85,3.85,0,0,1,3,1.19,7.42,7.42,0,0,1,1.47,3.34,27.91,27.91,0,0,0,1,3.5,4.78,4.78,0,0,0,1.48,2,4.54,4.54,0,0,0,2.93.82c3.45,0,5.13-2.55,5.13-7.8V25.42a6.38,6.38,0,0,1,1.3-4.31,4.53,4.53,0,0,1,3.57-1.51,4.65,4.65,0,0,1,3.62,1.5,6.29,6.29,0,0,1,1.33,4.32V47.73a42.61,42.61,0,0,1-.25,5A16.27,16.27,0,0,1,122.23,57a11.77,11.77,0,0,1-5,5.76A16.47,16.47,0,0,1,108.75,64.83Z"/><path class="cls-12" d="M118.69,20.19a4.07,4.07,0,0,1,3.18,1.31A5.7,5.7,0,0,1,123,25.42V47.73a41.87,41.87,0,0,1-.25,4.94,15.6,15.6,0,0,1-1.12,4.13,11.14,11.14,0,0,1-4.79,5.48,15.82,15.82,0,0,1-8.13,2,16.87,16.87,0,0,1-7.22-1.37,10.59,10.59,0,0,1-4.66-4.42,16.07,16.07,0,0,1-1.51-3.75,15.28,15.28,0,0,1-.58-4,3.81,3.81,0,0,1,4-4.18,3.27,3.27,0,0,1,2.59,1,6.93,6.93,0,0,1,1.34,3.08,28.19,28.19,0,0,0,1,3.57,5.34,5.34,0,0,0,1.66,2.3,5.07,5.07,0,0,0,3.31,1q5.72,0,5.72-8.4V25.42a5.8,5.8,0,0,1,1.15-3.92,3.94,3.94,0,0,1,3.12-1.31m0-1.19a5.1,5.1,0,0,0-4,1.71,7,7,0,0,0-1.44,4.71V49c0,6.46-2.59,7.21-4.53,7.21a4,4,0,0,1-2.55-.69,4.14,4.14,0,0,1-1.3-1.79,27.2,27.2,0,0,1-.94-3.42,8,8,0,0,0-1.61-3.61,4.41,4.41,0,0,0-3.48-1.39,5,5,0,0,0-5.23,5.37A16.53,16.53,0,0,0,94.21,55a17.33,17.33,0,0,0,1.63,4,11.81,11.81,0,0,0,5.19,4.9,18.11,18.11,0,0,0,7.73,1.48,17.05,17.05,0,0,0,8.74-2.12,12.36,12.36,0,0,0,5.29-6,16.86,16.86,0,0,0,1.2-4.44,43.23,43.23,0,0,0,.26-5.08V25.42a6.85,6.85,0,0,0-1.48-4.72,5.23,5.23,0,0,0-4.07-1.7Z"/><path class="cls-6" d="M156.19,64.83a4,4,0,0,1-3.13-1.37,5,5,0,0,1-1.19-3.12,17.11,17.11,0,0,1-2.05,1.9,11.65,11.65,0,0,1-3.61,1.91,14.55,14.55,0,0,1-4.42.62,11.62,11.62,0,0,1-5.43-1.26A9.33,9.33,0,0,1,132.59,60,15.15,15.15,0,0,1,131,52.44V36.72a5.71,5.71,0,0,1,1.23-4,4.26,4.26,0,0,1,3.29-1.37,4.36,4.36,0,0,1,3.34,1.38,5.63,5.63,0,0,1,1.26,3.95v12.7a19.11,19.11,0,0,0,.45,4.49,5,5,0,0,0,1.49,2.63,4.23,4.23,0,0,0,2.88.91,6.09,6.09,0,0,0,3.44-1.09,6.4,6.4,0,0,0,2.37-2.85c.41-1,.62-3.44.62-7.15V36.72a5.63,5.63,0,0,1,1.26-3.95A4.33,4.33,0,0,1,156,31.39a4.26,4.26,0,0,1,3.29,1.37,5.71,5.71,0,0,1,1.23,4v23a5.49,5.49,0,0,1-1.19,3.8A4,4,0,0,1,156.19,64.83Z"/><path class="cls-12" d="M156,32a3.67,3.67,0,0,1,2.85,1.18,5.13,5.13,0,0,1,1.07,3.56v23a4.91,4.91,0,0,1-1,3.4,3.67,3.67,0,0,1-5.35,0,4.75,4.75,0,0,1-1.06-3.3v-1a17.68,17.68,0,0,1-3,3A11,11,0,0,1,146,63.58a13.9,13.9,0,0,1-4.24.6A11,11,0,0,1,136.63,63a8.69,8.69,0,0,1-3.53-3.28,14.52,14.52,0,0,1-1.48-7.26V36.72a5.13,5.13,0,0,1,1.08-3.56A3.67,3.67,0,0,1,135.54,32a3.78,3.78,0,0,1,2.91,1.19,5,5,0,0,1,1.1,3.54v12.7a19.58,19.58,0,0,0,.46,4.63A5.56,5.56,0,0,0,141.68,57,4.77,4.77,0,0,0,145,58a6.65,6.65,0,0,0,3.78-1.19,7,7,0,0,0,2.59-3.11q.67-1.68.67-7.38V36.72a5,5,0,0,1,1.1-3.54A3.74,3.74,0,0,1,156,32m0-1.19a4.9,4.9,0,0,0-3.75,1.57,6.2,6.2,0,0,0-1.42,4.35v9.65c0,4.52-.32,6.27-.58,6.94a5.71,5.71,0,0,1-2.14,2.56,5.44,5.44,0,0,1-3.11,1,3.61,3.61,0,0,1-2.48-.76,4.37,4.37,0,0,1-1.3-2.33,18.52,18.52,0,0,1-.43-4.35V36.72a6.2,6.2,0,0,0-1.42-4.35,4.94,4.94,0,0,0-3.78-1.57,4.83,4.83,0,0,0-3.73,1.56,6.27,6.27,0,0,0-1.39,4.36V52.44c0,3.4.54,6,1.65,7.86a9.91,9.91,0,0,0,4,3.74,12.2,12.2,0,0,0,5.71,1.33,15.15,15.15,0,0,0,4.6-.65,12.26,12.26,0,0,0,3.8-2,16.69,16.69,0,0,0,1.28-1.11,5.14,5.14,0,0,0,1.16,2.26,4.86,4.86,0,0,0,7.11,0,6.05,6.05,0,0,0,1.34-4.2v-23a6.27,6.27,0,0,0-1.39-4.36A4.83,4.83,0,0,0,156,30.8Z"/><path class="cls-6" d="M208.61,64.83a4.4,4.4,0,0,1-3.39-1.46,6,6,0,0,1-1.3-4.13V45.9a30.09,30.09,0,0,0-.21-4,4.08,4.08,0,0,0-1-2.27,3.21,3.21,0,0,0-2.47-.85,4.76,4.76,0,0,0-2.65.83,5.75,5.75,0,0,0-2,2.27c-.53,1.23-.81,3.53-.81,6.82V59.24a6,6,0,0,1-1.29,4.15A4.43,4.43,0,0,1,190,64.83a4.32,4.32,0,0,1-3.36-1.45,6.05,6.05,0,0,1-1.27-4.15V46.6a40.3,40.3,0,0,0-.2-4.58,4.48,4.48,0,0,0-1-2.4,3,3,0,0,0-2.39-.85c-2.36,0-3.87.76-4.59,2.33a18.39,18.39,0,0,0-1.18,7.42V59.24a6.07,6.07,0,0,1-1.27,4.13,4.34,4.34,0,0,1-3.39,1.46A4.39,4.39,0,0,1,168,63.37a6,6,0,0,1-1.3-4.13V36.55a5.56,5.56,0,0,1,1.18-3.79,4,4,0,0,1,3.16-1.36,4.28,4.28,0,0,1,3.14,1.26,4.38,4.38,0,0,1,1.22,2.69,13.45,13.45,0,0,1,3.6-2.67,12.28,12.28,0,0,1,5.49-1.22A11.09,11.09,0,0,1,190,32.71a9.67,9.67,0,0,1,3.33,3.12,13.91,13.91,0,0,1,4-3.14,11.62,11.62,0,0,1,5.36-1.24,12.22,12.22,0,0,1,5.89,1.35,8.75,8.75,0,0,1,3.77,3.92,17.14,17.14,0,0,1,1.08,7V59.24A6,6,0,0,1,212,63.38,4.44,4.44,0,0,1,208.61,64.83Z"/><path class="cls-12" d="M171.07,32a3.69,3.69,0,0,1,2.72,1.09,4.06,4.06,0,0,1,1.09,3v.76a13.8,13.8,0,0,1,4.42-3.63A11.65,11.65,0,0,1,184.52,32a10.46,10.46,0,0,1,5.14,1.19,9.32,9.32,0,0,1,3.54,3.6,13.79,13.79,0,0,1,4.3-3.62A11,11,0,0,1,202.59,32a11.58,11.58,0,0,1,5.61,1.28A8.14,8.14,0,0,1,211.71,37a16.78,16.78,0,0,1,1,6.77V59.24A5.42,5.42,0,0,1,211.6,63a3.85,3.85,0,0,1-3,1.25A3.8,3.8,0,0,1,205.66,63a5.38,5.38,0,0,1-1.15-3.73V45.9a30.64,30.64,0,0,0-.22-4.1,4.7,4.7,0,0,0-1.18-2.59,3.75,3.75,0,0,0-2.91-1,5.32,5.32,0,0,0-3,.93A6.31,6.31,0,0,0,195,41.6q-.87,2-.87,7.09V59.24A5.42,5.42,0,0,1,193,63a3.85,3.85,0,0,1-3,1.25A3.74,3.74,0,0,1,187.12,63,5.47,5.47,0,0,1,186,59.24V46.6a40.58,40.58,0,0,0-.2-4.65,5,5,0,0,0-1.1-2.72,3.54,3.54,0,0,0-2.85-1.06q-3.89,0-5.13,2.67a18.85,18.85,0,0,0-1.23,7.67V59.24A5.48,5.48,0,0,1,174.37,63a3.75,3.75,0,0,1-2.95,1.26A3.8,3.8,0,0,1,168.47,63a5.38,5.38,0,0,1-1.15-3.73V36.55a5,5,0,0,1,1-3.4A3.46,3.46,0,0,1,171.07,32m0-1.19a4.61,4.61,0,0,0-3.61,1.56,6.12,6.12,0,0,0-1.33,4.19V59.24a6.54,6.54,0,0,0,1.46,4.53,5,5,0,0,0,3.83,1.65,4.91,4.91,0,0,0,3.84-1.66,6.63,6.63,0,0,0,1.42-4.52V48.52a17.85,17.85,0,0,1,1.13-7.17c.23-.49.92-2,4-2a2.46,2.46,0,0,1,1.94.64,3.85,3.85,0,0,1,.83,2.09,39.67,39.67,0,0,1,.19,4.5V59.24a6.61,6.61,0,0,0,1.42,4.54A4.9,4.9,0,0,0,190,65.42a5,5,0,0,0,3.87-1.64,6.56,6.56,0,0,0,1.44-4.55V48.69c0-4,.41-5.76.76-6.59a5.09,5.09,0,0,1,1.77-2,4.12,4.12,0,0,1,2.32-.73,2.66,2.66,0,0,1,2,.66,3.51,3.51,0,0,1,.88,1.95,29.66,29.66,0,0,1,.21,3.93V59.24a6.54,6.54,0,0,0,1.46,4.53,5.33,5.33,0,0,0,7.7,0,6.57,6.57,0,0,0,1.44-4.55V43.75c0-3.29-.37-5.67-1.13-7.28a9.35,9.35,0,0,0-4-4.2,12.81,12.81,0,0,0-6.17-1.42A12.21,12.21,0,0,0,197,32.16a14,14,0,0,0-3.62,2.74,10.05,10.05,0,0,0-3.1-2.71,11.67,11.67,0,0,0-5.72-1.34,12.88,12.88,0,0,0-5.76,1.28,13.42,13.42,0,0,0-3,2,4.69,4.69,0,0,0-1.17-1.94,4.85,4.85,0,0,0-3.56-1.44Z"/><path class="cls-12" d="M224.16,76.59c-1.72,0-2.89-.56-3.49-1.66a9,9,0,0,1-.8-4.22V36.49A5.57,5.57,0,0,1,221,32.71a4,4,0,0,1,3.15-1.32,4.16,4.16,0,0,1,3.18,1.34,5,5,0,0,1,1.2,3.09,15,15,0,0,1,3.79-3,12,12,0,0,1,5.74-1.36,13.29,13.29,0,0,1,7,2,13.65,13.65,0,0,1,5.09,5.76,20,20,0,0,1,1.85,8.86A21.66,21.66,0,0,1,251,55a15.74,15.74,0,0,1-2.95,5.34,13,13,0,0,1-4.46,3.35,13.21,13.21,0,0,1-5.52,1.17,11.68,11.68,0,0,1-6-1.45,15.61,15.61,0,0,1-3.5-2.91v10.3C228.56,75.58,226.17,76.59,224.16,76.59Zm12-38.09A6.44,6.44,0,0,0,231,40.89c-1.4,1.6-2.11,4-2.11,7.22,0,3,.71,5.34,2.1,7a6.38,6.38,0,0,0,5.1,2.42,5.74,5.74,0,0,0,3.33-1,7.35,7.35,0,0,0,2.49-3.19,13.15,13.15,0,0,0,1-5.31,13.21,13.21,0,0,0-.91-5.16,7.37,7.37,0,0,0-2.46-3.21A5.8,5.8,0,0,0,236.13,38.51Z"/><path class="cls-6" d="M224.16,32a3.57,3.57,0,0,1,2.75,1.15,4.69,4.69,0,0,1,1.06,3.3v1a15.66,15.66,0,0,1,4.65-4.05A11.38,11.38,0,0,1,238.08,32a12.65,12.65,0,0,1,6.74,1.89,13,13,0,0,1,4.87,5.52,19.29,19.29,0,0,1,1.79,8.6,21,21,0,0,1-1,6.73,15.08,15.08,0,0,1-2.83,5.14,12.36,12.36,0,0,1-4.26,3.2,12.57,12.57,0,0,1-5.27,1.12,11,11,0,0,1-5.71-1.37,16.3,16.3,0,0,1-4.4-4V70.77Q228,76,224.16,76q-2.24,0-3-1.35a8.5,8.5,0,0,1-.73-3.94V36.49a5,5,0,0,1,1-3.38,3.42,3.42,0,0,1,2.7-1.12m12,26.12A6.37,6.37,0,0,0,239.79,57a7.89,7.89,0,0,0,2.7-3.44,13.66,13.66,0,0,0,1-5.55,13.72,13.72,0,0,0-1-5.39,7.91,7.91,0,0,0-2.66-3.46,6.36,6.36,0,0,0-3.76-1.21,7.06,7.06,0,0,0-5.53,2.59q-2.25,2.59-2.25,7.61,0,4.74,2.24,7.36a7,7,0,0,0,5.55,2.63m-12-27.31a4.57,4.57,0,0,0-3.59,1.52,6.13,6.13,0,0,0-1.29,4.17V70.71a9.52,9.52,0,0,0,.87,4.5c.48.9,1.57,2,4,2,1.87,0,5-.83,5-6.42V61.92a15.12,15.12,0,0,0,2.61,2,12.26,12.26,0,0,0,6.31,1.53,13.81,13.81,0,0,0,5.77-1.23,13.6,13.6,0,0,0,4.66-3.5,16.33,16.33,0,0,0,3.06-5.54,22.25,22.25,0,0,0,1.09-7.1,20.55,20.55,0,0,0-1.91-9.12,14.24,14.24,0,0,0-5.31-6,13.88,13.88,0,0,0-7.36-2.06,12.6,12.6,0,0,0-6,1.43,14.63,14.63,0,0,0-3.11,2.28,5,5,0,0,0-1.17-2.25,4.73,4.73,0,0,0-3.62-1.53Zm12,26.12a5.81,5.81,0,0,1-4.64-2.21c-1.3-1.52-2-3.74-2-6.59,0-3,.66-5.34,2-6.83a5.87,5.87,0,0,1,4.64-2.18,5.15,5.15,0,0,1,3.07,1,6.78,6.78,0,0,1,2.25,3,12.62,12.62,0,0,1,.86,4.92,12.55,12.55,0,0,1-.91,5.07A6.77,6.77,0,0,1,239.12,56a5.16,5.16,0,0,1-3,.94Z"/><path class="cls-12" d="M261.75,64.83a4.17,4.17,0,0,1-3.28-1.45,5.86,5.86,0,0,1-1.24-4V36.72a5.67,5.67,0,0,1,1.25-3.95,4.25,4.25,0,0,1,3.27-1.38,4.39,4.39,0,0,1,3.31,1.38,5.21,5.21,0,0,1,1.3,3.72V59.41a5.7,5.7,0,0,1-1.29,4A4.34,4.34,0,0,1,261.75,64.83Zm.09-35.94a4.78,4.78,0,0,1-3.22-1.16,4.18,4.18,0,0,1-1.38-3.33,4.16,4.16,0,0,1,1.4-3.22,4.64,4.64,0,0,1,3.2-1.24A4.76,4.76,0,0,1,265,21.07a4.11,4.11,0,0,1,1.41,3.33A4.21,4.21,0,0,1,265,27.71,4.62,4.62,0,0,1,261.84,28.89Z"/><path class="cls-6" d="M261.84,20.54a4.16,4.16,0,0,1,2.73,1,3.52,3.52,0,0,1,1.19,2.88,3.63,3.63,0,0,1-1.16,2.86,4,4,0,0,1-2.76,1,4.18,4.18,0,0,1-2.83-1,3.6,3.6,0,0,1-1.18-2.88A3.57,3.57,0,0,1,259,21.63a4,4,0,0,1,2.8-1.09M261.75,32a3.8,3.8,0,0,1,2.88,1.19,4.61,4.61,0,0,1,1.13,3.31V59.41a5.12,5.12,0,0,1-1.13,3.6,3.75,3.75,0,0,1-2.88,1.22A3.58,3.58,0,0,1,258.92,63a5.27,5.27,0,0,1-1.09-3.57V36.72a5.09,5.09,0,0,1,1.09-3.54A3.66,3.66,0,0,1,261.75,32m.09-12.64a5.22,5.22,0,0,0-3.6,1.4,4.73,4.73,0,0,0-1.6,3.66,4.75,4.75,0,0,0,1.59,3.78,5.36,5.36,0,0,0,3.61,1.31,5.19,5.19,0,0,0,3.55-1.33A4.78,4.78,0,0,0,267,24.4a4.67,4.67,0,0,0-1.62-3.79,5.34,5.34,0,0,0-3.49-1.26Zm-.09,11.45A4.82,4.82,0,0,0,258,32.37a6.24,6.24,0,0,0-1.4,4.35V59.41A6.43,6.43,0,0,0,258,63.77a4.74,4.74,0,0,0,3.73,1.66,4.92,4.92,0,0,0,3.75-1.6A6.27,6.27,0,0,0,267,59.41V36.49a5.77,5.77,0,0,0-1.46-4.13,5,5,0,0,0-3.74-1.56Z"/><path class="cls-12" d="M287.23,76.59a22.44,22.44,0,0,1-7.52-1.18,13.27,13.27,0,0,1-5.2-3.11,6,6,0,0,1-1.91-4.15,3.67,3.67,0,0,1,1.18-2.8,4,4,0,0,1,2.79-1.07,4.49,4.49,0,0,1,3.5,1.75c.43.53.87,1.05,1.32,1.58a7.16,7.16,0,0,0,1.39,1.26,5.35,5.35,0,0,0,1.79.75,11.09,11.09,0,0,0,2.54.26,10.32,10.32,0,0,0,4.51-.79A4.28,4.28,0,0,0,293.73,67a9.07,9.07,0,0,0,.75-3.1c.06-.88.11-2.18.14-3.88a12.93,12.93,0,0,1-3.31,2.68,12.18,12.18,0,0,1-6,1.41A12.67,12.67,0,0,1,278,62,13.62,13.62,0,0,1,273.24,56a21.65,21.65,0,0,1-1.65-8.69,20.73,20.73,0,0,1,1-6.64,14.17,14.17,0,0,1,2.9-5.06,12.54,12.54,0,0,1,4.36-3.12,13.72,13.72,0,0,1,5.41-1,13.07,13.07,0,0,1,6.12,1.36,13.78,13.78,0,0,1,3.74,3,4.92,4.92,0,0,1,1.15-3.05,3.94,3.94,0,0,1,3.06-1.33c1.76,0,3,.61,3.58,1.82a10.28,10.28,0,0,1,.82,4.58v23a24.85,24.85,0,0,1-.87,7,11.52,11.52,0,0,1-2.85,5,12,12,0,0,1-5.12,2.91A27.2,27.2,0,0,1,287.23,76.59Zm.41-38.09a6,6,0,0,0-5,2.36c-1.27,1.61-1.92,4-1.92,7s.66,5.38,2,6.91a6.21,6.21,0,0,0,5,2.26,6.55,6.55,0,0,0,3.43-1,7.23,7.23,0,0,0,2.64-3,10.66,10.66,0,0,0,1-4.91c0-3.08-.68-5.5-2-7.19A6.2,6.2,0,0,0,287.64,38.51Z"/><path class="cls-6" d="M299.32,32a3.08,3.08,0,0,1,3.05,1.5,9.82,9.82,0,0,1,.76,4.31v23a24.14,24.14,0,0,1-.84,6.8,10.88,10.88,0,0,1-2.7,4.71,11.33,11.33,0,0,1-4.87,2.76,26.48,26.48,0,0,1-7.48.9,21.76,21.76,0,0,1-7.32-1.15,12.65,12.65,0,0,1-5-3,5.41,5.41,0,0,1-1.74-3.73,3.08,3.08,0,0,1,1-2.37,3.38,3.38,0,0,1,2.38-.92,3.91,3.91,0,0,1,3.05,1.54q.64.78,1.32,1.58a7.71,7.71,0,0,0,1.51,1.37,5.91,5.91,0,0,0,2,.84,11.63,11.63,0,0,0,2.67.28,10.82,10.82,0,0,0,4.78-.86,4.89,4.89,0,0,0,2.38-2.4,9.65,9.65,0,0,0,.8-3.3q.12-1.76.17-5.65A13,13,0,0,1,291,62.17a11.54,11.54,0,0,1-5.71,1.34,12,12,0,0,1-7-2,13,13,0,0,1-4.58-5.69,21,21,0,0,1-1.6-8.45,20,20,0,0,1,1-6.45A13.52,13.52,0,0,1,275.93,36a11.88,11.88,0,0,1,4.15-3,13.06,13.06,0,0,1,5.17-1,12.43,12.43,0,0,1,5.84,1.29,14.22,14.22,0,0,1,4.59,4.05V36.31a4.62,4.62,0,0,1,1-3.2A3.35,3.35,0,0,1,299.32,32M287.7,57.61a7.11,7.11,0,0,0,3.73-1.06,7.78,7.78,0,0,0,2.86-3.2,11.19,11.19,0,0,0,1.1-5.19q0-4.85-2.14-7.55a6.82,6.82,0,0,0-5.62-2.7,6.6,6.6,0,0,0-5.45,2.59q-2,2.59-2,7.35t2.11,7.29a6.83,6.83,0,0,0,5.45,2.47M299.32,30.8a4.51,4.51,0,0,0-3.5,1.53,5,5,0,0,0-1.12,2.18,12.71,12.71,0,0,0-9.44-3.65,14.3,14.3,0,0,0-5.64,1.1,13.11,13.11,0,0,0-4.57,3.27,14.77,14.77,0,0,0-3,5.27,21.31,21.31,0,0,0-1,6.83,22.24,22.24,0,0,0,1.7,8.93,14.21,14.21,0,0,0,5,6.2,13.25,13.25,0,0,0,7.63,2.24,12.76,12.76,0,0,0,6.29-1.49A13,13,0,0,0,294,61.49c0,1-.06,1.77-.1,2.36a8.51,8.51,0,0,1-.7,2.89,3.71,3.71,0,0,1-1.83,1.82,9.76,9.76,0,0,1-4.24.73,10.51,10.51,0,0,1-2.4-.24,4.77,4.77,0,0,1-1.59-.67,6.55,6.55,0,0,1-1.28-1.16q-.67-.79-1.3-1.56a5.08,5.08,0,0,0-4-2,4.55,4.55,0,0,0-3.19,1.23A4.24,4.24,0,0,0,272,68.16a6.57,6.57,0,0,0,2.07,4.56A13.87,13.87,0,0,0,279.51,76a23,23,0,0,0,7.72,1.22,27.76,27.76,0,0,0,7.82-1,12.55,12.55,0,0,0,5.37-3.06,12.11,12.11,0,0,0,3-5.21,25.42,25.42,0,0,0,.89-7.14v-23a10.83,10.83,0,0,0-.88-4.85c-.5-1-1.61-2.15-4.11-2.15ZM287.7,56.42a5.64,5.64,0,0,1-4.54-2.05c-1.21-1.42-1.82-3.61-1.82-6.52s.6-5.11,1.79-6.61a5.42,5.42,0,0,1,4.52-2.13,5.64,5.64,0,0,1,4.69,2.25c1.25,1.58,1.88,3.87,1.88,6.82a10.07,10.07,0,0,1-1,4.64,6.65,6.65,0,0,1-2.42,2.72,5.89,5.89,0,0,1-3.12.89Z"/><path class="cls-6" d="M45.5,114.24A31.74,31.74,0,1,1,77.24,82.5,31.78,31.78,0,0,1,45.5,114.24Z"/><path class="cls-13" d="M45.5,53.52a29,29,0,1,1-29,29,29,29,0,0,1,29-29m0-5.52A34.5,34.5,0,1,0,80,82.5,34.5,34.5,0,0,0,45.5,48Z"/><path class="cls-6" d="M339,153.08A22.08,22.08,0,1,1,361.08,131,22.11,22.11,0,0,1,339,153.08Z"/><path class="cls-14" d="M339,110.84A20.16,20.16,0,1,1,318.84,131,20.18,20.18,0,0,1,339,110.84m0-3.84a24,24,0,1,0,24,24,24,24,0,0,0-24-24Z"/><path class="cls-15" d="M393,26.81H324.58A2.58,2.58,0,0,1,322,24.23V7.58A2.58,2.58,0,0,1,324.58,5H393a2.62,2.62,0,0,1,2.62,2.58V24.23A2.62,2.62,0,0,1,393,26.81Z"/><path d="M395.1,24.23A2.09,2.09,0,0,1,393,26.32H324.58a2.09,2.09,0,0,1-2.09-2.09V7.58a2.09,2.09,0,0,1,2.09-2.09H393a2.09,2.09,0,0,1,2.09,2.09V24.23Z"/><path class="cls-6" d="M338.43,15.79a3.16,3.16,0,0,1,1.51-2.65,3.24,3.24,0,0,0-2.55-1.38c-1.07-.11-2.11.64-2.66.64s-1.4-.63-2.31-.61a3.4,3.4,0,0,0-2.86,1.74c-1.24,2.14-.31,5.28.87,7,.59.85,1.28,1.79,2.19,1.76s1.22-.57,2.29-.57,1.37.57,2.29.54,1.55-.85,2.12-1.71a7,7,0,0,0,1-2A3.06,3.06,0,0,1,338.43,15.79Z"/><path class="cls-6" d="M336.69,10.62a3.11,3.11,0,0,0,.71-2.23,3.17,3.17,0,0,0-2,1.06,3,3,0,0,0-.73,2.15A2.62,2.62,0,0,0,336.69,10.62Z"/><path class="cls-6" d="M351.26,22.18H350L349.34,20H347l-.65,2.13h-1.21l2.34-7.26h1.44Zm-2.12-3-.61-1.9q-.1-.29-.37-1.37h0q-.11.46-.34,1.37l-.6,1.9Z"/><path class="cls-6" d="M357.26,19.5a3,3,0,0,1-.72,2.11,2.11,2.11,0,0,1-1.6.69,1.6,1.6,0,0,1-1.49-.74h0v2.76h-1.16V18.67q0-.84,0-1.72h1l.06.83h0a2.07,2.07,0,0,1,3.31-.21A2.88,2.88,0,0,1,357.26,19.5Zm-1.18,0a2.15,2.15,0,0,0-.34-1.26,1.19,1.19,0,0,0-1-.52,1.21,1.21,0,0,0-.78.29,1.32,1.32,0,0,0-.46.75,1.52,1.52,0,0,0-.05.35V20a1.4,1.4,0,0,0,.35,1,1.16,1.16,0,0,0,.91.39,1.19,1.19,0,0,0,1-.51A2.23,2.23,0,0,0,356.08,19.54Z"/><path class="cls-6" d="M363.28,19.5a3,3,0,0,1-.72,2.11,2.11,2.11,0,0,1-1.6.69,1.6,1.6,0,0,1-1.49-.74h0v2.76h-1.16V18.67q0-.84,0-1.72h1l.06.83h0a2.07,2.07,0,0,1,3.31-.21A2.89,2.89,0,0,1,363.28,19.5Zm-1.18,0a2.15,2.15,0,0,0-.35-1.26,1.19,1.19,0,0,0-1-.52,1.21,1.21,0,0,0-.78.29,1.32,1.32,0,0,0-.46.75,1.55,1.55,0,0,0-.05.35V20a1.4,1.4,0,0,0,.35,1,1.16,1.16,0,0,0,.91.39,1.19,1.19,0,0,0,1-.51A2.23,2.23,0,0,0,362.1,19.54Z"/><path class="cls-6" d="M370,20.15a1.93,1.93,0,0,1-.64,1.51,2.86,2.86,0,0,1-2,.64,3.46,3.46,0,0,1-1.88-.45l.27-1a3.19,3.19,0,0,0,1.68.46,1.59,1.59,0,0,0,1-.3,1,1,0,0,0,.37-.79,1,1,0,0,0-.3-.74,2.8,2.8,0,0,0-1-.56q-1.91-.71-1.91-2.08a1.84,1.84,0,0,1,.67-1.47,2.63,2.63,0,0,1,1.78-.57,3.52,3.52,0,0,1,1.65.34l-.29.95a2.86,2.86,0,0,0-1.39-.33,1.41,1.41,0,0,0-1,.3.86.86,0,0,0-.29.66.89.89,0,0,0,.33.71,3.77,3.77,0,0,0,1.06.56,3.58,3.58,0,0,1,1.38.88A1.84,1.84,0,0,1,370,20.15Z"/><path class="cls-6" d="M373.86,17.82h-1.28v2.54q0,1,.68,1a2.07,2.07,0,0,0,.52-.05l0,.88a2.63,2.63,0,0,1-.9.13,1.4,1.4,0,0,1-1.08-.42,2.06,2.06,0,0,1-.39-1.41V17.82h-.76v-.87h.76V16l1.14-.34v1.3h1.28Z"/><path class="cls-6" d="M379.64,19.52a2.87,2.87,0,0,1-.69,2,2.46,2.46,0,0,1-1.92.8,2.34,2.34,0,0,1-1.84-.76,2.78,2.78,0,0,1-.68-1.93,2.84,2.84,0,0,1,.71-2,2.44,2.44,0,0,1,1.9-.78,2.39,2.39,0,0,1,1.85.76A2.75,2.75,0,0,1,379.64,19.52Zm-1.21,0a2.35,2.35,0,0,0-.31-1.24,1.15,1.15,0,0,0-1-.63,1.17,1.17,0,0,0-1.07.63,2.4,2.4,0,0,0-.31,1.26,2.35,2.35,0,0,0,.31,1.24,1.19,1.19,0,0,0,2.1,0A2.36,2.36,0,0,0,378.43,19.56Z"/><path class="cls-6" d="M383.42,18a2,2,0,0,0-.37,0,1.1,1.1,0,0,0-.95.46,1.74,1.74,0,0,0-.29,1v2.75h-1.16V18.6q0-.9,0-1.65h1l0,1h0a1.79,1.79,0,0,1,.58-.83,1.41,1.41,0,0,1,.84-.28l.29,0Z"/><path class="cls-6" d="M388.62,19.32a2.73,2.73,0,0,1,0,.53h-3.49A1.52,1.52,0,0,0,385.6,21a1.73,1.73,0,0,0,1.14.37,3.86,3.86,0,0,0,1.41-.25l.18.81a4.36,4.36,0,0,1-1.75.32,2.54,2.54,0,0,1-1.91-.72,2.64,2.64,0,0,1-.69-1.92,3,3,0,0,1,.65-2,2.23,2.23,0,0,1,1.83-.84,2,2,0,0,1,1.71.84A2.83,2.83,0,0,1,388.62,19.32Zm-1.11-.3a1.58,1.58,0,0,0-.23-.89,1,1,0,0,0-.93-.48,1.1,1.1,0,0,0-.93.47,1.74,1.74,0,0,0-.34.9h2.42Z"/><path class="cls-6" d="M348.75,10.46a1.79,1.79,0,0,1-.58,1.45,2.3,2.3,0,0,1-1.52.45,7,7,0,0,1-.84,0V8.81a6.17,6.17,0,0,1,1-.07,2.12,2.12,0,0,1,1.41.41A1.65,1.65,0,0,1,348.75,10.46Zm-.6,0a1.16,1.16,0,0,0-1.3-1.29,2.42,2.42,0,0,0-.46,0v2.67l.39,0a1.35,1.35,0,0,0,1-.36A1.46,1.46,0,0,0,348.15,10.47Z"/><path class="cls-6" d="M351.95,11a1.41,1.41,0,0,1-.34,1,1.21,1.21,0,0,1-.94.39,1.15,1.15,0,0,1-.9-.38,1.37,1.37,0,0,1-.34-.95,1.4,1.4,0,0,1,.35-1,1.2,1.2,0,0,1,.93-.38,1.18,1.18,0,0,1,.91.38A1.36,1.36,0,0,1,351.95,11Zm-.59,0a1.16,1.16,0,0,0-.15-.61.56.56,0,0,0-.51-.31.57.57,0,0,0-.52.31A1.18,1.18,0,0,0,350,11a1.16,1.16,0,0,0,.15.61.58.58,0,0,0,.52.31.57.57,0,0,0,.51-.31A1.16,1.16,0,0,0,351.35,11Z"/><path class="cls-6" d="M356.23,9.76l-.8,2.57h-.52l-.33-1.12a8.36,8.36,0,0,1-.21-.83h0a6.08,6.08,0,0,1-.21.83l-.35,1.12h-.53l-.76-2.57h.59l.29,1.22q.11.43.17.83h0q.06-.32.21-.82l.36-1.23h.47L355,11q.13.44.21.85h0a8.09,8.09,0,0,1,.17-.85l.31-1.2h.56Z"/><path class="cls-6" d="M359.19,12.33h-.57V10.85q0-.68-.52-.68a.52.52,0,0,0-.41.19.66.66,0,0,0-.16.44v1.52H357V10.49q0-.34,0-.74h.5l0,.4h0a.83.83,0,0,1,.3-.31,1,1,0,0,1,.52-.14.82.82,0,0,1,.6.23,1.13,1.13,0,0,1,.3.85Z"/><path class="cls-6" d="M360.77,12.33h-.57V8.58h.57Z"/><path class="cls-6" d="M364.13,11a1.41,1.41,0,0,1-.34,1,1.21,1.21,0,0,1-.94.39A1.15,1.15,0,0,1,362,12a1.37,1.37,0,0,1-.34-.95,1.4,1.4,0,0,1,.35-1,1.2,1.2,0,0,1,.93-.38,1.18,1.18,0,0,1,.91.38A1.36,1.36,0,0,1,364.13,11Zm-.59,0a1.16,1.16,0,0,0-.15-.61.56.56,0,0,0-.51-.31.57.57,0,0,0-.52.31,1.18,1.18,0,0,0-.15.62,1.16,1.16,0,0,0,.15.61.58.58,0,0,0,.52.31.57.57,0,0,0,.51-.31A1.15,1.15,0,0,0,363.54,11Z"/><path class="cls-6" d="M366.9,12.33h-.51l0-.3h0a.88.88,0,0,1-.75.35.78.78,0,0,1-.59-.23.73.73,0,0,1-.2-.52.8.8,0,0,1,.39-.72,2,2,0,0,1,1.11-.24v0q0-.51-.53-.51a1.2,1.2,0,0,0-.67.19L365,9.92a1.65,1.65,0,0,1,.88-.22q1,0,1,1.06v.95A4,4,0,0,0,366.9,12.33Zm-.59-.88V11q-.95,0-.95.52a.39.39,0,0,0,.11.3.4.4,0,0,0,.28.1.58.58,0,0,0,.35-.12.49.49,0,0,0,.21-.4Z"/><path class="cls-6" d="M370.15,12.33h-.51l0-.41h0a.85.85,0,0,1-.83.47A1,1,0,0,1,368,12a1.42,1.42,0,0,1-.31-.95,1.49,1.49,0,0,1,.33-1,1,1,0,0,1,.79-.36.77.77,0,0,1,.72.35h0V8.58h.57v3.06Q370.13,12,370.15,12.33Zm-.59-1.08v-.43a.84.84,0,0,0,0-.18.65.65,0,0,0-.21-.35.56.56,0,0,0-.38-.14.59.59,0,0,0-.5.25,1.09,1.09,0,0,0-.18.65,1,1,0,0,0,.18.62.59.59,0,0,0,.5.25.55.55,0,0,0,.45-.21A.7.7,0,0,0,369.56,11.24Z"/><path class="cls-6" d="M375,11a1.41,1.41,0,0,1-.34,1,1.21,1.21,0,0,1-.94.39,1.15,1.15,0,0,1-.9-.38,1.37,1.37,0,0,1-.34-.95,1.4,1.4,0,0,1,.35-1,1.2,1.2,0,0,1,.93-.38,1.17,1.17,0,0,1,.91.38A1.36,1.36,0,0,1,375,11Zm-.59,0a1.16,1.16,0,0,0-.15-.61.57.57,0,0,0-.51-.31.57.57,0,0,0-.52.31,1.18,1.18,0,0,0-.15.62,1.16,1.16,0,0,0,.15.61.58.58,0,0,0,1,0A1.16,1.16,0,0,0,374.44,11Z"/><path class="cls-6" d="M378.11,12.33h-.57V10.85q0-.68-.52-.68a.51.51,0,0,0-.41.19.66.66,0,0,0-.16.44v1.52h-.57V10.49q0-.34,0-.74h.5l0,.4h0a.83.83,0,0,1,.3-.31,1,1,0,0,1,.52-.14.82.82,0,0,1,.6.23,1.13,1.13,0,0,1,.3.85Z"/><path class="cls-6" d="M382,10.18h-.63v1.25c0,.32.11.48.33.48a1,1,0,0,0,.25,0v.43a1.28,1.28,0,0,1-.44.06.68.68,0,0,1-.53-.21,1,1,0,0,1-.19-.69v-1.3h-.38V9.76h.38V9.28l.56-.17v.64H382v.43Z"/><path class="cls-6" d="M385,12.33h-.57V10.86q0-.69-.52-.69a.55.55,0,0,0-.55.4.72.72,0,0,0,0,.21v1.55h-.57V8.58h.57v1.55h0a.86.86,0,0,1,.77-.42.8.8,0,0,1,.59.23,1.17,1.17,0,0,1,.29.86Z"/><path class="cls-6" d="M388.1,10.92a1.38,1.38,0,0,1,0,.26h-1.71a.75.75,0,0,0,.25.58.85.85,0,0,0,.56.18,1.89,1.89,0,0,0,.69-.12l.09.4a2.15,2.15,0,0,1-.86.16,1.25,1.25,0,0,1-.94-.35,1.3,1.3,0,0,1-.34-.94,1.47,1.47,0,0,1,.32-1,1.09,1.09,0,0,1,.9-.41,1,1,0,0,1,.84.41A1.37,1.37,0,0,1,388.1,10.92Zm-.55-.15a.77.77,0,0,0-.11-.44.5.5,0,0,0-.45-.24.54.54,0,0,0-.45.23.87.87,0,0,0-.17.44Z"/></svg>